%
M48
M72
T01C0.0320
T02C0.0400
T03C0.0470
T04C0.0500
T05C0.0590
T06C0.0630
T07C0.0700
T08C0.0787
T09C0.0790
T10C0.0984
T11C0.1102
T12C0.1260
T13C0.1500
T14C0.2460
%
T01
X37475Y34005
X42475Y34005
X42475Y64755
X37475Y64755
T02
X52725Y63255
X54725Y63255
X54725Y35505
X52725Y35505
T03
X49850Y45380
X49850Y47380
X49850Y51380
X49850Y53380
T04
X10725Y34880
X5475Y34880
T05
X21225Y38130
X21225Y44130
X30975Y44130
X30975Y38130
X30975Y54630
X30975Y60630
X21225Y60630
X21225Y54630
T06
X23935Y54625
X26100Y54625
X28265Y54625
X30225Y49380
X28265Y44135
X26100Y44135
X23935Y44135
X18515Y44135
X16350Y44135
X14185Y44135
X13725Y49380
X14185Y54625
X16350Y54625
X18515Y54625
T07
X4471Y33876
X4471Y35884
X6479Y35884
X6479Y33876
X9721Y33876
X9721Y35884
X11729Y35884
X11729Y33876
T08
X4223Y55481
X4223Y59222
X55973Y53097
X55973Y49396
X55973Y45656
T09
X39975Y43880
X39975Y39880
X39975Y54880
X39975Y58880
T10
X48725Y61074
X58725Y61074
X58725Y37686
X48725Y37686
T11
X46225Y48005
X46225Y50880
T12
X58600Y64130
X58600Y34630
X1600Y34630
X1600Y64130
T13
X5975Y51630
X5975Y41380
T14
X16350Y36005
X26100Y36005
X26100Y62755
X16350Y62755
M30
