G75*
G70*
%OFA0B0*%
%FSLAX24Y24*%
%IPPOS*%
%LPD*%
%AMOC8*
5,1,8,0,0,1.08239X$1,22.5*
%
%ADD10C,0.2540*%
%ADD11C,0.1340*%
%ADD12C,0.1580*%
%ADD13C,0.1890*%
%ADD14OC8,0.1890*%
%ADD15C,0.1025*%
%ADD16OC8,0.2080*%
%ADD17C,0.0785*%
%ADD18C,0.0965*%
%ADD19OC8,0.0600*%
%ADD20C,0.0680*%
%ADD21C,0.0830*%
%ADD22C,0.1130*%
D10*
X016350Y036005D03*
X026100Y036005D03*
X026100Y062755D03*
X016350Y062755D03*
D11*
X001600Y064130D03*
X001600Y034630D03*
X058600Y034630D03*
X058600Y064130D03*
D12*
X058725Y061074D03*
X055973Y053097D03*
X055973Y049396D03*
X055973Y045656D03*
X058725Y037686D03*
X048725Y037686D03*
X030225Y049380D03*
X013725Y049380D03*
X005975Y051630D03*
X004223Y055481D03*
X004223Y059222D03*
X005975Y041380D03*
X048725Y061074D03*
D13*
X039975Y058880D03*
X039975Y043880D03*
D14*
X039975Y039880D03*
X039975Y054880D03*
D15*
X028265Y055098D02*
X028265Y054153D01*
X026100Y054153D02*
X026100Y055098D01*
X023935Y055098D02*
X023935Y054153D01*
X018515Y054153D02*
X018515Y055098D01*
X016350Y055098D02*
X016350Y054153D01*
X014185Y054153D02*
X014185Y055098D01*
X014185Y044607D02*
X014185Y043662D01*
X016350Y043662D02*
X016350Y044607D01*
X018515Y044607D02*
X018515Y043662D01*
X023935Y043662D02*
X023935Y044607D01*
X026100Y044607D02*
X026100Y043662D01*
X028265Y043662D02*
X028265Y044607D01*
D16*
X046225Y048005D03*
X046225Y050880D03*
D17*
X049498Y051380D02*
X050203Y051380D01*
X050203Y053380D02*
X049498Y053380D01*
X049498Y047380D02*
X050203Y047380D01*
X050203Y045380D02*
X049498Y045380D01*
D18*
X030975Y044573D02*
X030975Y043688D01*
X030975Y038573D02*
X030975Y037688D01*
X021225Y037688D02*
X021225Y038573D01*
X021225Y043688D02*
X021225Y044573D01*
X021225Y054188D02*
X021225Y055073D01*
X021225Y060188D02*
X021225Y061073D01*
X030975Y061073D02*
X030975Y060188D01*
X030975Y055073D02*
X030975Y054188D01*
D19*
X037475Y064755D03*
X042475Y064755D03*
X042475Y034005D03*
X037475Y034005D03*
D20*
X052725Y035205D02*
X052725Y035805D01*
X054725Y035805D02*
X054725Y035205D01*
X054725Y062955D02*
X054725Y063555D01*
X052725Y063555D02*
X052725Y062955D01*
D21*
X010725Y034880D03*
X005475Y034880D03*
D22*
X004471Y033876D03*
X004471Y035884D03*
X006479Y035884D03*
X006479Y033876D03*
X009721Y033876D03*
X009721Y035884D03*
X011729Y035884D03*
X011729Y033876D03*
M02*
