G75*
G70*
%OFA0B0*%
%FSLAX24Y24*%
%IPPOS*%
%LPD*%
%AMOC8*
5,1,8,0,0,1.08239X$1,22.5*
%
%ADD10C,0.1810*%
%ADD11OC8,0.1810*%
%ADD12R,0.0512X0.0591*%
%ADD13C,0.0945*%
%ADD14OC8,0.2000*%
%ADD15R,0.0709X0.0669*%
%ADD16R,0.2000X0.1000*%
%ADD17R,0.1000X0.2000*%
%ADD18C,0.0705*%
%ADD19C,0.1500*%
%ADD20C,0.0885*%
%ADD21OC8,0.0520*%
%ADD22C,0.0600*%
%ADD23R,0.1063X0.0709*%
%ADD24R,0.0591X0.0512*%
%ADD25C,0.0750*%
%ADD26C,0.1050*%
%ADD27C,0.0320*%
%ADD28C,0.0160*%
%ADD29C,0.1500*%
%ADD30C,0.0560*%
%ADD31C,0.1175*%
D10*
X039975Y043880D03*
X039975Y058880D03*
D11*
X039975Y054880D03*
X039975Y039880D03*
D12*
X025474Y041130D03*
X024726Y041130D03*
X015724Y041130D03*
X014976Y041130D03*
X016976Y057630D03*
X017724Y057630D03*
X026726Y057630D03*
X027474Y057630D03*
D13*
X028265Y055098D02*
X028265Y054153D01*
X026100Y054153D02*
X026100Y055098D01*
X023935Y055098D02*
X023935Y054153D01*
X018515Y054153D02*
X018515Y055098D01*
X016350Y055098D02*
X016350Y054153D01*
X014185Y054153D02*
X014185Y055098D01*
X014185Y044607D02*
X014185Y043662D01*
X016350Y043662D02*
X016350Y044607D01*
X018515Y044607D02*
X018515Y043662D01*
X023935Y043662D02*
X023935Y044607D01*
X026100Y044607D02*
X026100Y043662D01*
X028265Y043662D02*
X028265Y044607D01*
D14*
X046225Y048005D03*
X046225Y050880D03*
D15*
X028157Y056755D03*
X026543Y056755D03*
X025657Y056755D03*
X024043Y056755D03*
X024918Y058505D03*
X026532Y058505D03*
X018407Y056755D03*
X016793Y056755D03*
X015907Y056755D03*
X014293Y056755D03*
X015168Y058505D03*
X016782Y058505D03*
X016793Y042005D03*
X015907Y042005D03*
X015918Y040255D03*
X017532Y040255D03*
X018407Y042005D03*
X014293Y042005D03*
X024043Y042005D03*
X025657Y042005D03*
X026543Y042005D03*
X028157Y042005D03*
X027282Y040255D03*
X025668Y040255D03*
D16*
X026350Y038755D03*
X016600Y038755D03*
X016100Y060005D03*
X025850Y060005D03*
D17*
X028350Y059005D03*
X018600Y059005D03*
X014100Y039755D03*
X010725Y038005D03*
X008975Y038005D03*
X005475Y038005D03*
X003725Y038005D03*
X023850Y039755D03*
D18*
X049498Y045380D02*
X050203Y045380D01*
X050203Y047380D02*
X049498Y047380D01*
X049498Y051380D02*
X050203Y051380D01*
X050203Y053380D02*
X049498Y053380D01*
D19*
X055973Y053097D03*
X055973Y049396D03*
X055973Y045656D03*
X058725Y037686D03*
X048725Y037686D03*
X030225Y049380D03*
X013725Y049380D03*
X004223Y055481D03*
X004223Y059222D03*
X048725Y061074D03*
X058725Y061074D03*
D20*
X030975Y061073D02*
X030975Y060188D01*
X030975Y055073D02*
X030975Y054188D01*
X030975Y044573D02*
X030975Y043688D01*
X030975Y038573D02*
X030975Y037688D01*
X021225Y037688D02*
X021225Y038573D01*
X021225Y043688D02*
X021225Y044573D01*
X021225Y054188D02*
X021225Y055073D01*
X021225Y060188D02*
X021225Y061073D01*
D21*
X037475Y064755D03*
X042475Y064755D03*
X042475Y034005D03*
X037475Y034005D03*
D22*
X052725Y035205D02*
X052725Y035805D01*
X054725Y035805D02*
X054725Y035205D01*
X054725Y062955D02*
X054725Y063555D01*
X052725Y063555D02*
X052725Y062955D01*
D23*
X028475Y040371D03*
X028475Y038639D03*
X018725Y038639D03*
X018725Y040371D03*
X013975Y058389D03*
X013975Y060121D03*
X023725Y060246D03*
X023725Y058514D03*
D24*
X023725Y059006D03*
X023725Y059754D03*
X013975Y059629D03*
X013975Y058881D03*
X018725Y039879D03*
X018725Y039131D03*
X028475Y039131D03*
X028475Y039879D03*
D25*
X010725Y034880D03*
X005475Y034880D03*
D26*
X004471Y033876D03*
X004471Y035884D03*
X006479Y035884D03*
X006479Y033876D03*
X009721Y033876D03*
X009721Y035884D03*
X011729Y035884D03*
X011729Y033876D03*
D27*
X016600Y038755D02*
X018609Y038755D01*
X018725Y038639D01*
X018725Y039131D01*
X018725Y039879D02*
X018725Y040371D01*
X018725Y040920D01*
X018515Y041130D01*
X018515Y042005D01*
X018407Y042005D01*
X018515Y042005D02*
X018515Y044135D01*
X016793Y042005D02*
X015907Y042005D01*
X015850Y041130D02*
X015918Y041062D01*
X015918Y040255D01*
X015850Y041130D02*
X018515Y041130D01*
X017532Y040255D02*
X017532Y039755D01*
X017597Y039820D01*
X017532Y039755D02*
X017532Y039187D01*
X017100Y038755D01*
X016600Y038755D01*
X015850Y041130D02*
X015724Y041130D01*
X014976Y041130D02*
X014225Y041130D01*
X014100Y041005D01*
X014100Y039755D01*
X014185Y041130D02*
X014185Y042005D01*
X014293Y042005D01*
X014185Y042005D02*
X014185Y044135D01*
X014225Y041130D02*
X014185Y041130D01*
X023850Y041045D02*
X023850Y039755D01*
X023850Y041045D02*
X023935Y041130D01*
X023935Y041880D01*
X024043Y042005D01*
X023935Y041880D02*
X023935Y044135D01*
X025657Y042005D02*
X026543Y042005D01*
X025725Y041130D02*
X025668Y041073D01*
X025668Y040255D01*
X025725Y041130D02*
X028265Y041130D01*
X028475Y040920D01*
X028475Y040371D01*
X028475Y039879D01*
X028475Y039131D02*
X028475Y038639D01*
X028359Y038755D01*
X026350Y038755D01*
X026850Y038755D01*
X027282Y039187D01*
X027282Y039880D01*
X027342Y039820D01*
X027282Y039880D02*
X027282Y040255D01*
X028265Y041130D02*
X028265Y041880D01*
X028157Y042005D01*
X028265Y041880D02*
X028265Y044135D01*
X025725Y041130D02*
X025474Y041130D01*
X024726Y041130D02*
X023935Y041130D01*
X023935Y054625D02*
X023935Y056755D01*
X024043Y056755D01*
X023935Y056755D02*
X023935Y057630D01*
X023725Y057840D01*
X023725Y058514D01*
X023725Y059006D01*
X023725Y059754D02*
X023725Y060246D01*
X025359Y060246D01*
X025600Y060005D01*
X025350Y060005D01*
X024918Y059573D01*
X024918Y058880D01*
X024853Y058815D01*
X024918Y058880D02*
X024918Y058505D01*
X023935Y057630D02*
X026475Y057630D01*
X026532Y057687D01*
X026532Y058505D01*
X026475Y057630D02*
X026726Y057630D01*
X027474Y057630D02*
X028225Y057630D01*
X028350Y057755D01*
X028350Y059005D01*
X028265Y057630D02*
X028265Y056755D01*
X028157Y056755D01*
X028265Y056755D02*
X028265Y054625D01*
X026543Y056755D02*
X025657Y056755D01*
X028225Y057630D02*
X028265Y057630D01*
X025850Y060005D02*
X025600Y060005D01*
X018600Y059005D02*
X018515Y058920D01*
X018515Y057630D01*
X018515Y056755D01*
X018407Y056755D01*
X018515Y056755D02*
X018515Y054625D01*
X016793Y056755D02*
X015907Y056755D01*
X016725Y057630D02*
X016782Y057687D01*
X016782Y058505D01*
X016725Y057630D02*
X014185Y057630D01*
X013975Y057840D01*
X013975Y058389D01*
X013975Y058881D01*
X013975Y059629D02*
X013975Y060121D01*
X015609Y060121D01*
X015725Y060005D01*
X015600Y060005D01*
X015168Y059573D01*
X015168Y058755D01*
X015108Y058815D01*
X015168Y058755D02*
X015168Y058505D01*
X014185Y057630D02*
X014185Y056755D01*
X014293Y056755D01*
X014185Y056755D02*
X014185Y054625D01*
X016725Y057630D02*
X016976Y057630D01*
X017724Y057630D02*
X018515Y057630D01*
X016100Y060005D02*
X015725Y060005D01*
D28*
X020225Y055505D02*
X022225Y055505D01*
X022225Y053380D01*
X022475Y053130D01*
X032600Y053130D01*
X032850Y053380D01*
X032850Y064880D01*
X033100Y065130D01*
X041775Y065130D01*
X041715Y065070D01*
X041715Y064440D01*
X042160Y063995D01*
X042790Y063995D01*
X043235Y064440D01*
X043235Y065070D01*
X043175Y065130D01*
X046975Y065130D01*
X047225Y064880D01*
X047225Y057217D01*
X041082Y057217D01*
X040805Y057143D01*
X040557Y057000D01*
X039842Y056285D01*
X039393Y056285D01*
X038570Y055462D01*
X038570Y054298D01*
X039393Y053475D01*
X040557Y053475D01*
X041380Y054298D01*
X041380Y054747D01*
X041675Y055043D01*
X047225Y055043D01*
X047225Y052001D01*
X046846Y052380D01*
X045604Y052380D01*
X044725Y051501D01*
X044725Y050259D01*
X045604Y049380D01*
X046846Y049380D01*
X047225Y049759D01*
X047225Y033880D01*
X046975Y033630D01*
X043175Y033630D01*
X043235Y033690D01*
X043235Y033802D01*
X043255Y033850D01*
X043255Y041535D01*
X043136Y041822D01*
X041355Y043603D01*
X041380Y043695D01*
X041380Y044065D01*
X041284Y044422D01*
X041099Y044743D01*
X040838Y045004D01*
X040517Y045189D01*
X040160Y045285D01*
X039790Y045285D01*
X039433Y045189D01*
X039112Y045004D01*
X038851Y044743D01*
X038666Y044422D01*
X038570Y044065D01*
X038570Y043695D01*
X038666Y043338D01*
X038851Y043017D01*
X039112Y042756D01*
X039433Y042571D01*
X039790Y042475D01*
X040160Y042475D01*
X040252Y042500D01*
X041695Y041057D01*
X041695Y033850D01*
X041715Y033802D01*
X041715Y033690D01*
X041775Y033630D01*
X038175Y033630D01*
X038235Y033690D01*
X038235Y034320D01*
X037790Y034765D01*
X037160Y034765D01*
X036715Y034320D01*
X036715Y033690D01*
X036775Y033630D01*
X033100Y033630D01*
X032850Y033880D01*
X032850Y045380D01*
X032600Y045630D01*
X022475Y045630D01*
X022225Y045380D01*
X022225Y043255D01*
X020225Y043255D01*
X020225Y045380D01*
X019975Y045630D01*
X017350Y045630D01*
X016975Y045255D01*
X015725Y045255D01*
X015350Y045630D01*
X012850Y045630D01*
X012600Y045880D01*
X012600Y052880D01*
X012850Y053130D01*
X015350Y053130D01*
X015725Y053505D01*
X016975Y053505D01*
X017350Y053130D01*
X019975Y053130D01*
X020225Y053380D01*
X020225Y055505D01*
X020225Y055479D02*
X022225Y055479D01*
X022225Y055320D02*
X020225Y055320D01*
X020225Y055162D02*
X022225Y055162D01*
X022225Y055003D02*
X020225Y055003D01*
X020225Y054845D02*
X022225Y054845D01*
X022225Y054686D02*
X020225Y054686D01*
X020225Y054528D02*
X022225Y054528D01*
X022225Y054369D02*
X020225Y054369D01*
X020225Y054211D02*
X022225Y054211D01*
X022225Y054052D02*
X020225Y054052D01*
X020225Y053894D02*
X022225Y053894D01*
X022225Y053735D02*
X020225Y053735D01*
X020225Y053577D02*
X022225Y053577D01*
X022225Y053418D02*
X020225Y053418D01*
X020105Y053260D02*
X022345Y053260D01*
X017220Y053260D02*
X015480Y053260D01*
X015638Y053418D02*
X017062Y053418D01*
X012821Y053101D02*
X047225Y053101D01*
X047225Y052943D02*
X012663Y052943D01*
X012600Y052784D02*
X047225Y052784D01*
X047225Y052626D02*
X012600Y052626D01*
X012600Y052467D02*
X047225Y052467D01*
X047225Y052309D02*
X046918Y052309D01*
X047076Y052150D02*
X047225Y052150D01*
X047225Y053260D02*
X032730Y053260D01*
X032850Y053418D02*
X047225Y053418D01*
X047225Y053577D02*
X040659Y053577D01*
X040817Y053735D02*
X047225Y053735D01*
X047225Y053894D02*
X040976Y053894D01*
X041134Y054052D02*
X047225Y054052D01*
X047225Y054211D02*
X041293Y054211D01*
X041380Y054369D02*
X047225Y054369D01*
X047225Y054528D02*
X041380Y054528D01*
X041380Y054686D02*
X047225Y054686D01*
X047225Y054845D02*
X041477Y054845D01*
X041636Y055003D02*
X047225Y055003D01*
X047225Y057222D02*
X032850Y057222D01*
X032850Y057064D02*
X040667Y057064D01*
X040462Y056905D02*
X032850Y056905D01*
X032850Y056747D02*
X040304Y056747D01*
X040145Y056588D02*
X032850Y056588D01*
X032850Y056430D02*
X039987Y056430D01*
X039379Y056271D02*
X032850Y056271D01*
X032850Y056113D02*
X039221Y056113D01*
X039062Y055954D02*
X032850Y055954D01*
X032850Y055796D02*
X038904Y055796D01*
X038745Y055637D02*
X032850Y055637D01*
X032850Y055479D02*
X038587Y055479D01*
X038570Y055320D02*
X032850Y055320D01*
X032850Y055162D02*
X038570Y055162D01*
X038570Y055003D02*
X032850Y055003D01*
X032850Y054845D02*
X038570Y054845D01*
X038570Y054686D02*
X032850Y054686D01*
X032850Y054528D02*
X038570Y054528D01*
X038570Y054369D02*
X032850Y054369D01*
X032850Y054211D02*
X038657Y054211D01*
X038816Y054052D02*
X032850Y054052D01*
X032850Y053894D02*
X038974Y053894D01*
X039133Y053735D02*
X032850Y053735D01*
X032850Y053577D02*
X039291Y053577D01*
X044740Y051516D02*
X012600Y051516D01*
X012600Y051358D02*
X044725Y051358D01*
X044725Y051199D02*
X012600Y051199D01*
X012600Y051041D02*
X044725Y051041D01*
X044725Y050882D02*
X012600Y050882D01*
X012600Y050724D02*
X044725Y050724D01*
X044725Y050565D02*
X030632Y050565D01*
X030707Y050545D02*
X030390Y050630D01*
X030060Y050630D01*
X029743Y050545D01*
X029457Y050380D01*
X029225Y050148D01*
X029060Y049862D01*
X028975Y049545D01*
X028975Y049215D01*
X029060Y048898D01*
X029225Y048612D01*
X029457Y048380D01*
X029743Y048215D01*
X030060Y048130D01*
X030390Y048130D01*
X030707Y048215D01*
X030993Y048380D01*
X031225Y048612D01*
X031390Y048898D01*
X031475Y049215D01*
X031475Y049545D01*
X031390Y049862D01*
X031225Y050148D01*
X030993Y050380D01*
X030707Y050545D01*
X030947Y050407D02*
X044725Y050407D01*
X044736Y050248D02*
X031125Y050248D01*
X031259Y050090D02*
X044894Y050090D01*
X045053Y049931D02*
X031350Y049931D01*
X031414Y049773D02*
X045211Y049773D01*
X045370Y049614D02*
X031456Y049614D01*
X031475Y049456D02*
X045528Y049456D01*
X046922Y049456D02*
X047225Y049456D01*
X047225Y049614D02*
X047080Y049614D01*
X047225Y049297D02*
X031475Y049297D01*
X031454Y049139D02*
X047225Y049139D01*
X047225Y048980D02*
X031412Y048980D01*
X031346Y048822D02*
X047225Y048822D01*
X047225Y048663D02*
X031254Y048663D01*
X031117Y048505D02*
X047225Y048505D01*
X047225Y048346D02*
X030934Y048346D01*
X030604Y048188D02*
X047225Y048188D01*
X047225Y048029D02*
X012600Y048029D01*
X012600Y047871D02*
X047225Y047871D01*
X047225Y047712D02*
X012600Y047712D01*
X012600Y047554D02*
X047225Y047554D01*
X047225Y047395D02*
X012600Y047395D01*
X012600Y047237D02*
X047225Y047237D01*
X047225Y047078D02*
X012600Y047078D01*
X012600Y046920D02*
X047225Y046920D01*
X047225Y046761D02*
X012600Y046761D01*
X012600Y046603D02*
X047225Y046603D01*
X047225Y046444D02*
X012600Y046444D01*
X012600Y046286D02*
X047225Y046286D01*
X047225Y046127D02*
X012600Y046127D01*
X012600Y045969D02*
X047225Y045969D01*
X047225Y045810D02*
X012670Y045810D01*
X012828Y045652D02*
X047225Y045652D01*
X047225Y045493D02*
X032737Y045493D01*
X032850Y045335D02*
X047225Y045335D01*
X047225Y045176D02*
X040540Y045176D01*
X040815Y045018D02*
X047225Y045018D01*
X047225Y044859D02*
X040983Y044859D01*
X041124Y044701D02*
X047225Y044701D01*
X047225Y044542D02*
X041215Y044542D01*
X041295Y044384D02*
X047225Y044384D01*
X047225Y044225D02*
X041337Y044225D01*
X041380Y044067D02*
X047225Y044067D01*
X047225Y043908D02*
X041380Y043908D01*
X041380Y043750D02*
X047225Y043750D01*
X047225Y043591D02*
X041367Y043591D01*
X041526Y043433D02*
X047225Y043433D01*
X047225Y043274D02*
X041684Y043274D01*
X041843Y043116D02*
X047225Y043116D01*
X047225Y042957D02*
X042001Y042957D01*
X042160Y042799D02*
X047225Y042799D01*
X047225Y042640D02*
X042318Y042640D01*
X042477Y042482D02*
X047225Y042482D01*
X047225Y042323D02*
X042635Y042323D01*
X042794Y042165D02*
X047225Y042165D01*
X047225Y042006D02*
X042952Y042006D01*
X043111Y041848D02*
X047225Y041848D01*
X047225Y041689D02*
X043191Y041689D01*
X043255Y041531D02*
X047225Y041531D01*
X047225Y041372D02*
X043255Y041372D01*
X043255Y041214D02*
X047225Y041214D01*
X047225Y041055D02*
X043255Y041055D01*
X043255Y040897D02*
X047225Y040897D01*
X047225Y040738D02*
X043255Y040738D01*
X043255Y040580D02*
X047225Y040580D01*
X047225Y040421D02*
X043255Y040421D01*
X043255Y040263D02*
X047225Y040263D01*
X047225Y040104D02*
X043255Y040104D01*
X043255Y039946D02*
X047225Y039946D01*
X047225Y039787D02*
X043255Y039787D01*
X043255Y039629D02*
X047225Y039629D01*
X047225Y039470D02*
X043255Y039470D01*
X043255Y039312D02*
X047225Y039312D01*
X047225Y039153D02*
X043255Y039153D01*
X043255Y038995D02*
X047225Y038995D01*
X047225Y038836D02*
X043255Y038836D01*
X043255Y038678D02*
X047225Y038678D01*
X047225Y038519D02*
X043255Y038519D01*
X043255Y038361D02*
X047225Y038361D01*
X047225Y038202D02*
X043255Y038202D01*
X043255Y038044D02*
X047225Y038044D01*
X047225Y037885D02*
X043255Y037885D01*
X043255Y037727D02*
X047225Y037727D01*
X047225Y037568D02*
X043255Y037568D01*
X043255Y037410D02*
X047225Y037410D01*
X047225Y037251D02*
X043255Y037251D01*
X043255Y037093D02*
X047225Y037093D01*
X047225Y036934D02*
X043255Y036934D01*
X043255Y036776D02*
X047225Y036776D01*
X047225Y036617D02*
X043255Y036617D01*
X043255Y036459D02*
X047225Y036459D01*
X047225Y036300D02*
X043255Y036300D01*
X043255Y036142D02*
X047225Y036142D01*
X047225Y036255D02*
X047475Y036005D01*
X052850Y036005D01*
X052975Y035880D01*
X052975Y035130D01*
X052850Y035005D01*
X047475Y035005D01*
X047225Y034755D01*
X046975Y034755D01*
X046975Y036255D01*
X047225Y036255D01*
X047338Y036142D02*
X046975Y036142D01*
X046975Y035983D02*
X052872Y035983D01*
X052975Y035825D02*
X046975Y035825D01*
X046975Y035666D02*
X052975Y035666D01*
X052975Y035508D02*
X046975Y035508D01*
X046975Y035349D02*
X052975Y035349D01*
X052975Y035191D02*
X046975Y035191D01*
X046975Y035032D02*
X052877Y035032D01*
X047344Y034874D02*
X046975Y034874D01*
X047225Y034874D02*
X043255Y034874D01*
X043255Y035032D02*
X047225Y035032D01*
X047225Y035191D02*
X043255Y035191D01*
X043255Y035349D02*
X047225Y035349D01*
X047225Y035508D02*
X043255Y035508D01*
X043255Y035666D02*
X047225Y035666D01*
X047225Y035825D02*
X043255Y035825D01*
X043255Y035983D02*
X047225Y035983D01*
X047225Y034715D02*
X043255Y034715D01*
X043255Y034557D02*
X047225Y034557D01*
X047225Y034398D02*
X043255Y034398D01*
X043255Y034240D02*
X047225Y034240D01*
X047225Y034081D02*
X043255Y034081D01*
X043255Y033923D02*
X047225Y033923D01*
X047109Y033764D02*
X043235Y033764D01*
X041715Y033764D02*
X038235Y033764D01*
X038235Y033923D02*
X041695Y033923D01*
X041695Y034081D02*
X038235Y034081D01*
X038235Y034240D02*
X041695Y034240D01*
X041695Y034398D02*
X038157Y034398D01*
X037998Y034557D02*
X041695Y034557D01*
X041695Y034715D02*
X037840Y034715D01*
X037110Y034715D02*
X032850Y034715D01*
X032850Y034557D02*
X036952Y034557D01*
X036793Y034398D02*
X032850Y034398D01*
X032850Y034240D02*
X036715Y034240D01*
X036715Y034081D02*
X032850Y034081D01*
X032850Y033923D02*
X036715Y033923D01*
X036715Y033764D02*
X032966Y033764D01*
X032850Y034874D02*
X041695Y034874D01*
X041695Y035032D02*
X032850Y035032D01*
X032850Y035191D02*
X041695Y035191D01*
X041695Y035349D02*
X032850Y035349D01*
X032850Y035508D02*
X041695Y035508D01*
X041695Y035666D02*
X032850Y035666D01*
X032850Y035825D02*
X041695Y035825D01*
X041695Y035983D02*
X032850Y035983D01*
X032850Y036142D02*
X041695Y036142D01*
X041695Y036300D02*
X032850Y036300D01*
X032850Y036459D02*
X041695Y036459D01*
X041695Y036617D02*
X032850Y036617D01*
X032850Y036776D02*
X041695Y036776D01*
X041695Y036934D02*
X032850Y036934D01*
X032850Y037093D02*
X041695Y037093D01*
X041695Y037251D02*
X032850Y037251D01*
X032850Y037410D02*
X041695Y037410D01*
X041695Y037568D02*
X032850Y037568D01*
X032850Y037727D02*
X041695Y037727D01*
X041695Y037885D02*
X032850Y037885D01*
X032850Y038044D02*
X041695Y038044D01*
X041695Y038202D02*
X032850Y038202D01*
X032850Y038361D02*
X041695Y038361D01*
X041695Y038519D02*
X040601Y038519D01*
X040557Y038475D02*
X041380Y039298D01*
X041380Y040462D01*
X040557Y041285D01*
X039393Y041285D01*
X038570Y040462D01*
X038570Y039298D01*
X039393Y038475D01*
X040557Y038475D01*
X040759Y038678D02*
X041695Y038678D01*
X041695Y038836D02*
X040918Y038836D01*
X041076Y038995D02*
X041695Y038995D01*
X041695Y039153D02*
X041235Y039153D01*
X041380Y039312D02*
X041695Y039312D01*
X041695Y039470D02*
X041380Y039470D01*
X041380Y039629D02*
X041695Y039629D01*
X041695Y039787D02*
X041380Y039787D01*
X041380Y039946D02*
X041695Y039946D01*
X041695Y040104D02*
X041380Y040104D01*
X041380Y040263D02*
X041695Y040263D01*
X041695Y040421D02*
X041380Y040421D01*
X041262Y040580D02*
X041695Y040580D01*
X041695Y040738D02*
X041104Y040738D01*
X040945Y040897D02*
X041695Y040897D01*
X041695Y041055D02*
X040787Y041055D01*
X040628Y041214D02*
X041538Y041214D01*
X041380Y041372D02*
X032850Y041372D01*
X032850Y041214D02*
X039322Y041214D01*
X039163Y041055D02*
X032850Y041055D01*
X032850Y040897D02*
X039005Y040897D01*
X038846Y040738D02*
X032850Y040738D01*
X032850Y040580D02*
X038688Y040580D01*
X038570Y040421D02*
X032850Y040421D01*
X032850Y040263D02*
X038570Y040263D01*
X038570Y040104D02*
X032850Y040104D01*
X032850Y039946D02*
X038570Y039946D01*
X038570Y039787D02*
X032850Y039787D01*
X032850Y039629D02*
X038570Y039629D01*
X038570Y039470D02*
X032850Y039470D01*
X032850Y039312D02*
X038570Y039312D01*
X038715Y039153D02*
X032850Y039153D01*
X032850Y038995D02*
X038874Y038995D01*
X039032Y038836D02*
X032850Y038836D01*
X032850Y038678D02*
X039191Y038678D01*
X039349Y038519D02*
X032850Y038519D01*
X032850Y041531D02*
X041221Y041531D01*
X041063Y041689D02*
X032850Y041689D01*
X032850Y041848D02*
X040904Y041848D01*
X040746Y042006D02*
X032850Y042006D01*
X032850Y042165D02*
X040587Y042165D01*
X040429Y042323D02*
X032850Y042323D01*
X032850Y042482D02*
X039766Y042482D01*
X040184Y042482D02*
X040270Y042482D01*
X039313Y042640D02*
X032850Y042640D01*
X032850Y042799D02*
X039070Y042799D01*
X038911Y042957D02*
X032850Y042957D01*
X032850Y043116D02*
X038794Y043116D01*
X038703Y043274D02*
X032850Y043274D01*
X032850Y043433D02*
X038640Y043433D01*
X038598Y043591D02*
X032850Y043591D01*
X032850Y043750D02*
X038570Y043750D01*
X038570Y043908D02*
X032850Y043908D01*
X032850Y044067D02*
X038570Y044067D01*
X038613Y044225D02*
X032850Y044225D01*
X032850Y044384D02*
X038655Y044384D01*
X038735Y044542D02*
X032850Y044542D01*
X032850Y044701D02*
X038826Y044701D01*
X038967Y044859D02*
X032850Y044859D01*
X032850Y045018D02*
X039135Y045018D01*
X039410Y045176D02*
X032850Y045176D01*
X029846Y048188D02*
X012600Y048188D01*
X012600Y048346D02*
X029516Y048346D01*
X029333Y048505D02*
X012600Y048505D01*
X012600Y048663D02*
X029196Y048663D01*
X029104Y048822D02*
X012600Y048822D01*
X012600Y048980D02*
X029038Y048980D01*
X028996Y049139D02*
X012600Y049139D01*
X012600Y049297D02*
X028975Y049297D01*
X028975Y049456D02*
X012600Y049456D01*
X012600Y049614D02*
X028994Y049614D01*
X029036Y049773D02*
X012600Y049773D01*
X012600Y049931D02*
X029100Y049931D01*
X029191Y050090D02*
X012600Y050090D01*
X012600Y050248D02*
X029325Y050248D01*
X029503Y050407D02*
X012600Y050407D01*
X012600Y050565D02*
X029818Y050565D01*
X032850Y057381D02*
X047225Y057381D01*
X047225Y057539D02*
X032850Y057539D01*
X032850Y057698D02*
X047225Y057698D01*
X047225Y057856D02*
X032850Y057856D01*
X032850Y058015D02*
X047225Y058015D01*
X047225Y058173D02*
X032850Y058173D01*
X032850Y058332D02*
X047225Y058332D01*
X047225Y058490D02*
X032850Y058490D01*
X032850Y058649D02*
X047225Y058649D01*
X047225Y058807D02*
X032850Y058807D01*
X032850Y058966D02*
X047225Y058966D01*
X047225Y059124D02*
X032850Y059124D01*
X032850Y059283D02*
X047225Y059283D01*
X047225Y059441D02*
X032850Y059441D01*
X032850Y059600D02*
X047225Y059600D01*
X047225Y059758D02*
X032850Y059758D01*
X032850Y059917D02*
X047225Y059917D01*
X047225Y060075D02*
X032850Y060075D01*
X032850Y060234D02*
X047225Y060234D01*
X047225Y060392D02*
X032850Y060392D01*
X032850Y060551D02*
X047225Y060551D01*
X047225Y060709D02*
X032850Y060709D01*
X032850Y060868D02*
X047225Y060868D01*
X047225Y061026D02*
X032850Y061026D01*
X032850Y061185D02*
X047225Y061185D01*
X047225Y061343D02*
X032850Y061343D01*
X032850Y061502D02*
X047225Y061502D01*
X047225Y061660D02*
X032850Y061660D01*
X032850Y061819D02*
X047225Y061819D01*
X047225Y061977D02*
X032850Y061977D01*
X032850Y062136D02*
X047225Y062136D01*
X047225Y062294D02*
X032850Y062294D01*
X032850Y062453D02*
X047225Y062453D01*
X047225Y062611D02*
X032850Y062611D01*
X032850Y062770D02*
X047225Y062770D01*
X047225Y062928D02*
X032850Y062928D01*
X032850Y063087D02*
X047225Y063087D01*
X047225Y063245D02*
X032850Y063245D01*
X032850Y063404D02*
X047225Y063404D01*
X047225Y063562D02*
X032850Y063562D01*
X032850Y063721D02*
X047225Y063721D01*
X047225Y063879D02*
X032850Y063879D01*
X032850Y064038D02*
X042118Y064038D01*
X041959Y064196D02*
X032850Y064196D01*
X032850Y064355D02*
X041801Y064355D01*
X041715Y064513D02*
X032850Y064513D01*
X032850Y064672D02*
X041715Y064672D01*
X041715Y064830D02*
X032850Y064830D01*
X032959Y064989D02*
X041715Y064989D01*
X042832Y064038D02*
X047225Y064038D01*
X047225Y064196D02*
X042991Y064196D01*
X043149Y064355D02*
X047225Y064355D01*
X047225Y064513D02*
X043235Y064513D01*
X043235Y064672D02*
X047225Y064672D01*
X047225Y064830D02*
X043235Y064830D01*
X043235Y064989D02*
X047116Y064989D01*
X045532Y052309D02*
X012600Y052309D01*
X012600Y052150D02*
X045374Y052150D01*
X045215Y051992D02*
X012600Y051992D01*
X012600Y051833D02*
X045057Y051833D01*
X044898Y051675D02*
X012600Y051675D01*
X015487Y045493D02*
X017213Y045493D01*
X017055Y045335D02*
X015645Y045335D01*
X020112Y045493D02*
X022338Y045493D01*
X022225Y045335D02*
X020225Y045335D01*
X020225Y045176D02*
X022225Y045176D01*
X022225Y045018D02*
X020225Y045018D01*
X020225Y044859D02*
X022225Y044859D01*
X022225Y044701D02*
X020225Y044701D01*
X020225Y044542D02*
X022225Y044542D01*
X022225Y044384D02*
X020225Y044384D01*
X020225Y044225D02*
X022225Y044225D01*
X022225Y044067D02*
X020225Y044067D01*
X020225Y043908D02*
X022225Y043908D01*
X022225Y043750D02*
X020225Y043750D01*
X020225Y043591D02*
X022225Y043591D01*
X022225Y043433D02*
X020225Y043433D01*
X020225Y043274D02*
X022225Y043274D01*
X010725Y038005D02*
X010725Y034880D01*
X009721Y035884D02*
X008975Y036630D01*
X008975Y038005D01*
X005475Y038005D02*
X005475Y034880D01*
X004471Y035884D02*
X003725Y036630D01*
X003725Y038005D01*
D29*
X016350Y044135D02*
X016350Y046130D01*
X016350Y052630D02*
X016350Y054625D01*
D30*
X039975Y043880D02*
X042475Y041380D01*
X042475Y034005D01*
D31*
X055973Y049396D02*
X056616Y049396D01*
X058725Y051505D01*
X058725Y054880D01*
X057475Y056130D01*
X041225Y056130D01*
X039975Y054880D01*
X049850Y053380D02*
X049850Y051380D01*
X050383Y053097D02*
X049850Y053380D01*
X050383Y053097D02*
X055973Y053097D01*
M02*
