G75*
G70*
%OFA0B0*%
%FSLAX24Y24*%
%IPPOS*%
%LPD*%
%AMOC8*
5,1,8,0,0,1.08239X$1,22.5*
%
%ADD10C,0.0000*%
%ADD11C,0.0030*%
%ADD12C,0.0050*%
%ADD13C,0.0080*%
%ADD14R,0.1125X0.0250*%
%ADD15R,0.0500X0.0250*%
%ADD16R,0.0750X0.0250*%
%ADD17R,0.0250X0.0250*%
%ADD18R,0.0250X0.0625*%
%ADD19C,0.0090*%
%ADD20C,0.0100*%
%ADD21R,0.2000X0.0500*%
%ADD22C,0.0070*%
%ADD23C,0.0060*%
%ADD24C,0.0020*%
%ADD25R,0.0787X0.1043*%
%ADD26C,0.0040*%
%ADD27R,0.0118X0.0827*%
%ADD28R,0.0500X0.0500*%
%ADD29R,0.2000X0.0250*%
%ADD30R,0.0700X0.1500*%
%ADD31C,0.0160*%
%ADD32R,0.0500X0.0350*%
%ADD33C,0.0500*%
%ADD34R,0.0340X0.0240*%
%ADD35C,0.0200*%
%ADD36R,0.4200X0.0300*%
%ADD37R,0.0750X0.0200*%
%ADD38R,0.1300X0.0200*%
D10*
X000100Y033130D02*
X000100Y065630D01*
X060100Y065630D01*
X060100Y033130D01*
X000100Y033130D01*
X000970Y034630D02*
X000972Y034680D01*
X000978Y034730D01*
X000988Y034779D01*
X001002Y034827D01*
X001019Y034874D01*
X001040Y034919D01*
X001065Y034963D01*
X001093Y035004D01*
X001125Y035043D01*
X001159Y035080D01*
X001196Y035114D01*
X001236Y035144D01*
X001278Y035171D01*
X001322Y035195D01*
X001368Y035216D01*
X001415Y035232D01*
X001463Y035245D01*
X001513Y035254D01*
X001562Y035259D01*
X001613Y035260D01*
X001663Y035257D01*
X001712Y035250D01*
X001761Y035239D01*
X001809Y035224D01*
X001855Y035206D01*
X001900Y035184D01*
X001943Y035158D01*
X001984Y035129D01*
X002023Y035097D01*
X002059Y035062D01*
X002091Y035024D01*
X002121Y034984D01*
X002148Y034941D01*
X002171Y034897D01*
X002190Y034851D01*
X002206Y034803D01*
X002218Y034754D01*
X002226Y034705D01*
X002230Y034655D01*
X002230Y034605D01*
X002226Y034555D01*
X002218Y034506D01*
X002206Y034457D01*
X002190Y034409D01*
X002171Y034363D01*
X002148Y034319D01*
X002121Y034276D01*
X002091Y034236D01*
X002059Y034198D01*
X002023Y034163D01*
X001984Y034131D01*
X001943Y034102D01*
X001900Y034076D01*
X001855Y034054D01*
X001809Y034036D01*
X001761Y034021D01*
X001712Y034010D01*
X001663Y034003D01*
X001613Y034000D01*
X001562Y034001D01*
X001513Y034006D01*
X001463Y034015D01*
X001415Y034028D01*
X001368Y034044D01*
X001322Y034065D01*
X001278Y034089D01*
X001236Y034116D01*
X001196Y034146D01*
X001159Y034180D01*
X001125Y034217D01*
X001093Y034256D01*
X001065Y034297D01*
X001040Y034341D01*
X001019Y034386D01*
X001002Y034433D01*
X000988Y034481D01*
X000978Y034530D01*
X000972Y034580D01*
X000970Y034630D01*
X005225Y041380D02*
X005227Y041434D01*
X005233Y041488D01*
X005243Y041541D01*
X005256Y041594D01*
X005273Y041645D01*
X005294Y041695D01*
X005319Y041743D01*
X005347Y041790D01*
X005378Y041834D01*
X005412Y041876D01*
X005449Y041915D01*
X005489Y041952D01*
X005532Y041985D01*
X005577Y042016D01*
X005624Y042043D01*
X005672Y042066D01*
X005723Y042086D01*
X005774Y042103D01*
X005827Y042115D01*
X005880Y042124D01*
X005934Y042129D01*
X005989Y042130D01*
X006043Y042127D01*
X006096Y042120D01*
X006149Y042109D01*
X006202Y042095D01*
X006253Y042077D01*
X006302Y042055D01*
X006350Y042030D01*
X006396Y042001D01*
X006440Y041969D01*
X006481Y041934D01*
X006519Y041896D01*
X006555Y041855D01*
X006588Y041812D01*
X006618Y041767D01*
X006644Y041719D01*
X006667Y041670D01*
X006686Y041619D01*
X006701Y041568D01*
X006713Y041515D01*
X006721Y041461D01*
X006725Y041407D01*
X006725Y041353D01*
X006721Y041299D01*
X006713Y041245D01*
X006701Y041192D01*
X006686Y041141D01*
X006667Y041090D01*
X006644Y041041D01*
X006618Y040993D01*
X006588Y040948D01*
X006555Y040905D01*
X006519Y040864D01*
X006481Y040826D01*
X006440Y040791D01*
X006396Y040759D01*
X006350Y040730D01*
X006302Y040705D01*
X006253Y040683D01*
X006202Y040665D01*
X006149Y040651D01*
X006096Y040640D01*
X006043Y040633D01*
X005989Y040630D01*
X005934Y040631D01*
X005880Y040636D01*
X005827Y040645D01*
X005774Y040657D01*
X005723Y040674D01*
X005672Y040694D01*
X005624Y040717D01*
X005577Y040744D01*
X005532Y040775D01*
X005489Y040808D01*
X005449Y040845D01*
X005412Y040884D01*
X005378Y040926D01*
X005347Y040970D01*
X005319Y041017D01*
X005294Y041065D01*
X005273Y041115D01*
X005256Y041166D01*
X005243Y041219D01*
X005233Y041272D01*
X005227Y041326D01*
X005225Y041380D01*
X005225Y051630D02*
X005227Y051684D01*
X005233Y051738D01*
X005243Y051791D01*
X005256Y051844D01*
X005273Y051895D01*
X005294Y051945D01*
X005319Y051993D01*
X005347Y052040D01*
X005378Y052084D01*
X005412Y052126D01*
X005449Y052165D01*
X005489Y052202D01*
X005532Y052235D01*
X005577Y052266D01*
X005624Y052293D01*
X005672Y052316D01*
X005723Y052336D01*
X005774Y052353D01*
X005827Y052365D01*
X005880Y052374D01*
X005934Y052379D01*
X005989Y052380D01*
X006043Y052377D01*
X006096Y052370D01*
X006149Y052359D01*
X006202Y052345D01*
X006253Y052327D01*
X006302Y052305D01*
X006350Y052280D01*
X006396Y052251D01*
X006440Y052219D01*
X006481Y052184D01*
X006519Y052146D01*
X006555Y052105D01*
X006588Y052062D01*
X006618Y052017D01*
X006644Y051969D01*
X006667Y051920D01*
X006686Y051869D01*
X006701Y051818D01*
X006713Y051765D01*
X006721Y051711D01*
X006725Y051657D01*
X006725Y051603D01*
X006721Y051549D01*
X006713Y051495D01*
X006701Y051442D01*
X006686Y051391D01*
X006667Y051340D01*
X006644Y051291D01*
X006618Y051243D01*
X006588Y051198D01*
X006555Y051155D01*
X006519Y051114D01*
X006481Y051076D01*
X006440Y051041D01*
X006396Y051009D01*
X006350Y050980D01*
X006302Y050955D01*
X006253Y050933D01*
X006202Y050915D01*
X006149Y050901D01*
X006096Y050890D01*
X006043Y050883D01*
X005989Y050880D01*
X005934Y050881D01*
X005880Y050886D01*
X005827Y050895D01*
X005774Y050907D01*
X005723Y050924D01*
X005672Y050944D01*
X005624Y050967D01*
X005577Y050994D01*
X005532Y051025D01*
X005489Y051058D01*
X005449Y051095D01*
X005412Y051134D01*
X005378Y051176D01*
X005347Y051220D01*
X005319Y051267D01*
X005294Y051315D01*
X005273Y051365D01*
X005256Y051416D01*
X005243Y051469D01*
X005233Y051522D01*
X005227Y051576D01*
X005225Y051630D01*
X000970Y064130D02*
X000972Y064180D01*
X000978Y064230D01*
X000988Y064279D01*
X001002Y064327D01*
X001019Y064374D01*
X001040Y064419D01*
X001065Y064463D01*
X001093Y064504D01*
X001125Y064543D01*
X001159Y064580D01*
X001196Y064614D01*
X001236Y064644D01*
X001278Y064671D01*
X001322Y064695D01*
X001368Y064716D01*
X001415Y064732D01*
X001463Y064745D01*
X001513Y064754D01*
X001562Y064759D01*
X001613Y064760D01*
X001663Y064757D01*
X001712Y064750D01*
X001761Y064739D01*
X001809Y064724D01*
X001855Y064706D01*
X001900Y064684D01*
X001943Y064658D01*
X001984Y064629D01*
X002023Y064597D01*
X002059Y064562D01*
X002091Y064524D01*
X002121Y064484D01*
X002148Y064441D01*
X002171Y064397D01*
X002190Y064351D01*
X002206Y064303D01*
X002218Y064254D01*
X002226Y064205D01*
X002230Y064155D01*
X002230Y064105D01*
X002226Y064055D01*
X002218Y064006D01*
X002206Y063957D01*
X002190Y063909D01*
X002171Y063863D01*
X002148Y063819D01*
X002121Y063776D01*
X002091Y063736D01*
X002059Y063698D01*
X002023Y063663D01*
X001984Y063631D01*
X001943Y063602D01*
X001900Y063576D01*
X001855Y063554D01*
X001809Y063536D01*
X001761Y063521D01*
X001712Y063510D01*
X001663Y063503D01*
X001613Y063500D01*
X001562Y063501D01*
X001513Y063506D01*
X001463Y063515D01*
X001415Y063528D01*
X001368Y063544D01*
X001322Y063565D01*
X001278Y063589D01*
X001236Y063616D01*
X001196Y063646D01*
X001159Y063680D01*
X001125Y063717D01*
X001093Y063756D01*
X001065Y063797D01*
X001040Y063841D01*
X001019Y063886D01*
X001002Y063933D01*
X000988Y063981D01*
X000978Y064030D01*
X000972Y064080D01*
X000970Y064130D01*
X015120Y062755D02*
X015122Y062825D01*
X015128Y062894D01*
X015138Y062963D01*
X015151Y063031D01*
X015169Y063098D01*
X015190Y063165D01*
X015215Y063230D01*
X015244Y063293D01*
X015276Y063355D01*
X015312Y063415D01*
X015351Y063472D01*
X015393Y063528D01*
X015438Y063581D01*
X015486Y063631D01*
X015537Y063678D01*
X015591Y063723D01*
X015647Y063764D01*
X015705Y063802D01*
X015765Y063837D01*
X015828Y063869D01*
X015891Y063896D01*
X015957Y063920D01*
X016023Y063941D01*
X016091Y063957D01*
X016159Y063970D01*
X016228Y063979D01*
X016298Y063984D01*
X016367Y063985D01*
X016437Y063982D01*
X016506Y063975D01*
X016575Y063964D01*
X016643Y063950D01*
X016710Y063931D01*
X016776Y063909D01*
X016841Y063883D01*
X016904Y063853D01*
X016965Y063820D01*
X017024Y063784D01*
X017081Y063744D01*
X017136Y063701D01*
X017188Y063655D01*
X017238Y063606D01*
X017285Y063554D01*
X017328Y063500D01*
X017369Y063444D01*
X017406Y063385D01*
X017440Y063324D01*
X017471Y063262D01*
X017498Y063197D01*
X017521Y063132D01*
X017540Y063065D01*
X017556Y062997D01*
X017568Y062928D01*
X017576Y062859D01*
X017580Y062790D01*
X017580Y062720D01*
X017576Y062651D01*
X017568Y062582D01*
X017556Y062513D01*
X017540Y062445D01*
X017521Y062378D01*
X017498Y062313D01*
X017471Y062248D01*
X017440Y062186D01*
X017406Y062125D01*
X017369Y062066D01*
X017328Y062010D01*
X017285Y061956D01*
X017238Y061904D01*
X017188Y061855D01*
X017136Y061809D01*
X017081Y061766D01*
X017024Y061726D01*
X016965Y061690D01*
X016904Y061657D01*
X016841Y061627D01*
X016776Y061601D01*
X016710Y061579D01*
X016643Y061560D01*
X016575Y061546D01*
X016506Y061535D01*
X016437Y061528D01*
X016367Y061525D01*
X016298Y061526D01*
X016228Y061531D01*
X016159Y061540D01*
X016091Y061553D01*
X016023Y061569D01*
X015957Y061590D01*
X015891Y061614D01*
X015828Y061641D01*
X015765Y061673D01*
X015705Y061708D01*
X015647Y061746D01*
X015591Y061787D01*
X015537Y061832D01*
X015486Y061879D01*
X015438Y061929D01*
X015393Y061982D01*
X015351Y062038D01*
X015312Y062095D01*
X015276Y062155D01*
X015244Y062217D01*
X015215Y062280D01*
X015190Y062345D01*
X015169Y062412D01*
X015151Y062479D01*
X015138Y062547D01*
X015128Y062616D01*
X015122Y062685D01*
X015120Y062755D01*
X024870Y062755D02*
X024872Y062825D01*
X024878Y062894D01*
X024888Y062963D01*
X024901Y063031D01*
X024919Y063098D01*
X024940Y063165D01*
X024965Y063230D01*
X024994Y063293D01*
X025026Y063355D01*
X025062Y063415D01*
X025101Y063472D01*
X025143Y063528D01*
X025188Y063581D01*
X025236Y063631D01*
X025287Y063678D01*
X025341Y063723D01*
X025397Y063764D01*
X025455Y063802D01*
X025515Y063837D01*
X025578Y063869D01*
X025641Y063896D01*
X025707Y063920D01*
X025773Y063941D01*
X025841Y063957D01*
X025909Y063970D01*
X025978Y063979D01*
X026048Y063984D01*
X026117Y063985D01*
X026187Y063982D01*
X026256Y063975D01*
X026325Y063964D01*
X026393Y063950D01*
X026460Y063931D01*
X026526Y063909D01*
X026591Y063883D01*
X026654Y063853D01*
X026715Y063820D01*
X026774Y063784D01*
X026831Y063744D01*
X026886Y063701D01*
X026938Y063655D01*
X026988Y063606D01*
X027035Y063554D01*
X027078Y063500D01*
X027119Y063444D01*
X027156Y063385D01*
X027190Y063324D01*
X027221Y063262D01*
X027248Y063197D01*
X027271Y063132D01*
X027290Y063065D01*
X027306Y062997D01*
X027318Y062928D01*
X027326Y062859D01*
X027330Y062790D01*
X027330Y062720D01*
X027326Y062651D01*
X027318Y062582D01*
X027306Y062513D01*
X027290Y062445D01*
X027271Y062378D01*
X027248Y062313D01*
X027221Y062248D01*
X027190Y062186D01*
X027156Y062125D01*
X027119Y062066D01*
X027078Y062010D01*
X027035Y061956D01*
X026988Y061904D01*
X026938Y061855D01*
X026886Y061809D01*
X026831Y061766D01*
X026774Y061726D01*
X026715Y061690D01*
X026654Y061657D01*
X026591Y061627D01*
X026526Y061601D01*
X026460Y061579D01*
X026393Y061560D01*
X026325Y061546D01*
X026256Y061535D01*
X026187Y061528D01*
X026117Y061525D01*
X026048Y061526D01*
X025978Y061531D01*
X025909Y061540D01*
X025841Y061553D01*
X025773Y061569D01*
X025707Y061590D01*
X025641Y061614D01*
X025578Y061641D01*
X025515Y061673D01*
X025455Y061708D01*
X025397Y061746D01*
X025341Y061787D01*
X025287Y061832D01*
X025236Y061879D01*
X025188Y061929D01*
X025143Y061982D01*
X025101Y062038D01*
X025062Y062095D01*
X025026Y062155D01*
X024994Y062217D01*
X024965Y062280D01*
X024940Y062345D01*
X024919Y062412D01*
X024901Y062479D01*
X024888Y062547D01*
X024878Y062616D01*
X024872Y062685D01*
X024870Y062755D01*
X024870Y036005D02*
X024872Y036075D01*
X024878Y036144D01*
X024888Y036213D01*
X024901Y036281D01*
X024919Y036348D01*
X024940Y036415D01*
X024965Y036480D01*
X024994Y036543D01*
X025026Y036605D01*
X025062Y036665D01*
X025101Y036722D01*
X025143Y036778D01*
X025188Y036831D01*
X025236Y036881D01*
X025287Y036928D01*
X025341Y036973D01*
X025397Y037014D01*
X025455Y037052D01*
X025515Y037087D01*
X025578Y037119D01*
X025641Y037146D01*
X025707Y037170D01*
X025773Y037191D01*
X025841Y037207D01*
X025909Y037220D01*
X025978Y037229D01*
X026048Y037234D01*
X026117Y037235D01*
X026187Y037232D01*
X026256Y037225D01*
X026325Y037214D01*
X026393Y037200D01*
X026460Y037181D01*
X026526Y037159D01*
X026591Y037133D01*
X026654Y037103D01*
X026715Y037070D01*
X026774Y037034D01*
X026831Y036994D01*
X026886Y036951D01*
X026938Y036905D01*
X026988Y036856D01*
X027035Y036804D01*
X027078Y036750D01*
X027119Y036694D01*
X027156Y036635D01*
X027190Y036574D01*
X027221Y036512D01*
X027248Y036447D01*
X027271Y036382D01*
X027290Y036315D01*
X027306Y036247D01*
X027318Y036178D01*
X027326Y036109D01*
X027330Y036040D01*
X027330Y035970D01*
X027326Y035901D01*
X027318Y035832D01*
X027306Y035763D01*
X027290Y035695D01*
X027271Y035628D01*
X027248Y035563D01*
X027221Y035498D01*
X027190Y035436D01*
X027156Y035375D01*
X027119Y035316D01*
X027078Y035260D01*
X027035Y035206D01*
X026988Y035154D01*
X026938Y035105D01*
X026886Y035059D01*
X026831Y035016D01*
X026774Y034976D01*
X026715Y034940D01*
X026654Y034907D01*
X026591Y034877D01*
X026526Y034851D01*
X026460Y034829D01*
X026393Y034810D01*
X026325Y034796D01*
X026256Y034785D01*
X026187Y034778D01*
X026117Y034775D01*
X026048Y034776D01*
X025978Y034781D01*
X025909Y034790D01*
X025841Y034803D01*
X025773Y034819D01*
X025707Y034840D01*
X025641Y034864D01*
X025578Y034891D01*
X025515Y034923D01*
X025455Y034958D01*
X025397Y034996D01*
X025341Y035037D01*
X025287Y035082D01*
X025236Y035129D01*
X025188Y035179D01*
X025143Y035232D01*
X025101Y035288D01*
X025062Y035345D01*
X025026Y035405D01*
X024994Y035467D01*
X024965Y035530D01*
X024940Y035595D01*
X024919Y035662D01*
X024901Y035729D01*
X024888Y035797D01*
X024878Y035866D01*
X024872Y035935D01*
X024870Y036005D01*
X015120Y036005D02*
X015122Y036075D01*
X015128Y036144D01*
X015138Y036213D01*
X015151Y036281D01*
X015169Y036348D01*
X015190Y036415D01*
X015215Y036480D01*
X015244Y036543D01*
X015276Y036605D01*
X015312Y036665D01*
X015351Y036722D01*
X015393Y036778D01*
X015438Y036831D01*
X015486Y036881D01*
X015537Y036928D01*
X015591Y036973D01*
X015647Y037014D01*
X015705Y037052D01*
X015765Y037087D01*
X015828Y037119D01*
X015891Y037146D01*
X015957Y037170D01*
X016023Y037191D01*
X016091Y037207D01*
X016159Y037220D01*
X016228Y037229D01*
X016298Y037234D01*
X016367Y037235D01*
X016437Y037232D01*
X016506Y037225D01*
X016575Y037214D01*
X016643Y037200D01*
X016710Y037181D01*
X016776Y037159D01*
X016841Y037133D01*
X016904Y037103D01*
X016965Y037070D01*
X017024Y037034D01*
X017081Y036994D01*
X017136Y036951D01*
X017188Y036905D01*
X017238Y036856D01*
X017285Y036804D01*
X017328Y036750D01*
X017369Y036694D01*
X017406Y036635D01*
X017440Y036574D01*
X017471Y036512D01*
X017498Y036447D01*
X017521Y036382D01*
X017540Y036315D01*
X017556Y036247D01*
X017568Y036178D01*
X017576Y036109D01*
X017580Y036040D01*
X017580Y035970D01*
X017576Y035901D01*
X017568Y035832D01*
X017556Y035763D01*
X017540Y035695D01*
X017521Y035628D01*
X017498Y035563D01*
X017471Y035498D01*
X017440Y035436D01*
X017406Y035375D01*
X017369Y035316D01*
X017328Y035260D01*
X017285Y035206D01*
X017238Y035154D01*
X017188Y035105D01*
X017136Y035059D01*
X017081Y035016D01*
X017024Y034976D01*
X016965Y034940D01*
X016904Y034907D01*
X016841Y034877D01*
X016776Y034851D01*
X016710Y034829D01*
X016643Y034810D01*
X016575Y034796D01*
X016506Y034785D01*
X016437Y034778D01*
X016367Y034775D01*
X016298Y034776D01*
X016228Y034781D01*
X016159Y034790D01*
X016091Y034803D01*
X016023Y034819D01*
X015957Y034840D01*
X015891Y034864D01*
X015828Y034891D01*
X015765Y034923D01*
X015705Y034958D01*
X015647Y034996D01*
X015591Y035037D01*
X015537Y035082D01*
X015486Y035129D01*
X015438Y035179D01*
X015393Y035232D01*
X015351Y035288D01*
X015312Y035345D01*
X015276Y035405D01*
X015244Y035467D01*
X015215Y035530D01*
X015190Y035595D01*
X015169Y035662D01*
X015151Y035729D01*
X015138Y035797D01*
X015128Y035866D01*
X015122Y035935D01*
X015120Y036005D01*
X057970Y034630D02*
X057972Y034680D01*
X057978Y034730D01*
X057988Y034779D01*
X058002Y034827D01*
X058019Y034874D01*
X058040Y034919D01*
X058065Y034963D01*
X058093Y035004D01*
X058125Y035043D01*
X058159Y035080D01*
X058196Y035114D01*
X058236Y035144D01*
X058278Y035171D01*
X058322Y035195D01*
X058368Y035216D01*
X058415Y035232D01*
X058463Y035245D01*
X058513Y035254D01*
X058562Y035259D01*
X058613Y035260D01*
X058663Y035257D01*
X058712Y035250D01*
X058761Y035239D01*
X058809Y035224D01*
X058855Y035206D01*
X058900Y035184D01*
X058943Y035158D01*
X058984Y035129D01*
X059023Y035097D01*
X059059Y035062D01*
X059091Y035024D01*
X059121Y034984D01*
X059148Y034941D01*
X059171Y034897D01*
X059190Y034851D01*
X059206Y034803D01*
X059218Y034754D01*
X059226Y034705D01*
X059230Y034655D01*
X059230Y034605D01*
X059226Y034555D01*
X059218Y034506D01*
X059206Y034457D01*
X059190Y034409D01*
X059171Y034363D01*
X059148Y034319D01*
X059121Y034276D01*
X059091Y034236D01*
X059059Y034198D01*
X059023Y034163D01*
X058984Y034131D01*
X058943Y034102D01*
X058900Y034076D01*
X058855Y034054D01*
X058809Y034036D01*
X058761Y034021D01*
X058712Y034010D01*
X058663Y034003D01*
X058613Y034000D01*
X058562Y034001D01*
X058513Y034006D01*
X058463Y034015D01*
X058415Y034028D01*
X058368Y034044D01*
X058322Y034065D01*
X058278Y034089D01*
X058236Y034116D01*
X058196Y034146D01*
X058159Y034180D01*
X058125Y034217D01*
X058093Y034256D01*
X058065Y034297D01*
X058040Y034341D01*
X058019Y034386D01*
X058002Y034433D01*
X057988Y034481D01*
X057978Y034530D01*
X057972Y034580D01*
X057970Y034630D01*
X057970Y064130D02*
X057972Y064180D01*
X057978Y064230D01*
X057988Y064279D01*
X058002Y064327D01*
X058019Y064374D01*
X058040Y064419D01*
X058065Y064463D01*
X058093Y064504D01*
X058125Y064543D01*
X058159Y064580D01*
X058196Y064614D01*
X058236Y064644D01*
X058278Y064671D01*
X058322Y064695D01*
X058368Y064716D01*
X058415Y064732D01*
X058463Y064745D01*
X058513Y064754D01*
X058562Y064759D01*
X058613Y064760D01*
X058663Y064757D01*
X058712Y064750D01*
X058761Y064739D01*
X058809Y064724D01*
X058855Y064706D01*
X058900Y064684D01*
X058943Y064658D01*
X058984Y064629D01*
X059023Y064597D01*
X059059Y064562D01*
X059091Y064524D01*
X059121Y064484D01*
X059148Y064441D01*
X059171Y064397D01*
X059190Y064351D01*
X059206Y064303D01*
X059218Y064254D01*
X059226Y064205D01*
X059230Y064155D01*
X059230Y064105D01*
X059226Y064055D01*
X059218Y064006D01*
X059206Y063957D01*
X059190Y063909D01*
X059171Y063863D01*
X059148Y063819D01*
X059121Y063776D01*
X059091Y063736D01*
X059059Y063698D01*
X059023Y063663D01*
X058984Y063631D01*
X058943Y063602D01*
X058900Y063576D01*
X058855Y063554D01*
X058809Y063536D01*
X058761Y063521D01*
X058712Y063510D01*
X058663Y063503D01*
X058613Y063500D01*
X058562Y063501D01*
X058513Y063506D01*
X058463Y063515D01*
X058415Y063528D01*
X058368Y063544D01*
X058322Y063565D01*
X058278Y063589D01*
X058236Y063616D01*
X058196Y063646D01*
X058159Y063680D01*
X058125Y063717D01*
X058093Y063756D01*
X058065Y063797D01*
X058040Y063841D01*
X058019Y063886D01*
X058002Y063933D01*
X057988Y063981D01*
X057978Y064030D01*
X057972Y064080D01*
X057970Y064130D01*
D11*
X053293Y056015D02*
X053170Y056015D01*
X053108Y055954D01*
X052987Y056015D02*
X052740Y055645D01*
X052987Y055645D02*
X052740Y056015D01*
X053108Y055645D02*
X053355Y055892D01*
X053355Y055954D01*
X053293Y056015D01*
X053355Y055645D02*
X053108Y055645D01*
X059490Y054274D02*
X059613Y054398D01*
X059737Y054398D01*
X059860Y054274D01*
X059860Y054153D02*
X059675Y053968D01*
X059737Y053906D02*
X059490Y054153D01*
X059490Y053906D02*
X059860Y053906D01*
X059860Y053785D02*
X059860Y053538D01*
X059490Y053538D01*
X059551Y053416D02*
X059613Y053416D01*
X059675Y053355D01*
X059675Y053170D01*
X059675Y053355D02*
X059737Y053416D01*
X059798Y053416D01*
X059860Y053355D01*
X059860Y053170D01*
X059490Y053170D01*
X059490Y053355D01*
X059551Y053416D01*
X059490Y053047D02*
X059613Y052924D01*
X059737Y052924D01*
X059860Y053047D01*
X059490Y052434D02*
X059490Y052187D01*
X059490Y052311D02*
X059860Y052311D01*
X059798Y052066D02*
X059551Y052066D01*
X059490Y052004D01*
X059490Y051881D01*
X059551Y051819D01*
X059798Y051819D01*
X059860Y051881D01*
X059860Y052004D01*
X059798Y052066D01*
X059860Y051698D02*
X059490Y051698D01*
X059675Y051698D02*
X059675Y051451D01*
X059860Y051451D02*
X059490Y051451D01*
X059613Y050898D02*
X059490Y050774D01*
X059490Y050653D02*
X059490Y050406D01*
X059490Y050285D02*
X059860Y050285D01*
X059675Y050285D02*
X059675Y050038D01*
X059860Y050038D02*
X059490Y050038D01*
X059490Y049916D02*
X059860Y049916D01*
X059737Y049793D01*
X059860Y049670D01*
X059490Y049670D01*
X059490Y049547D02*
X059613Y049424D01*
X059737Y049424D01*
X059860Y049547D01*
X059860Y048934D02*
X059860Y048687D01*
X059490Y048687D01*
X059551Y048566D02*
X059675Y048566D01*
X059737Y048504D01*
X059737Y048319D01*
X059860Y048319D02*
X059490Y048319D01*
X059490Y048504D01*
X059551Y048566D01*
X059737Y048442D02*
X059860Y048566D01*
X059860Y048074D02*
X059490Y048074D01*
X059490Y047951D02*
X059490Y048198D01*
X059490Y047829D02*
X059860Y047829D01*
X059490Y047582D01*
X059860Y047582D01*
X059737Y047023D02*
X059613Y047023D01*
X059490Y046899D01*
X059490Y046778D02*
X059860Y046778D01*
X059490Y046531D01*
X059860Y046531D01*
X059860Y046410D02*
X059737Y046286D01*
X059737Y046348D02*
X059737Y046163D01*
X059860Y046163D02*
X059490Y046163D01*
X059490Y046348D01*
X059551Y046410D01*
X059675Y046410D01*
X059737Y046348D01*
X059798Y046041D02*
X059675Y046041D01*
X059675Y045918D01*
X059798Y046041D02*
X059860Y045980D01*
X059860Y045856D01*
X059798Y045795D01*
X059551Y045795D01*
X059490Y045856D01*
X059490Y045980D01*
X059551Y046041D01*
X059490Y045672D02*
X059613Y045549D01*
X059737Y045549D01*
X059860Y045672D01*
X059798Y045059D02*
X059551Y045059D01*
X059490Y044997D01*
X059490Y044812D01*
X059860Y044812D01*
X059860Y044997D01*
X059798Y045059D01*
X059860Y044691D02*
X059490Y044691D01*
X059490Y044444D02*
X059860Y044691D01*
X059860Y044444D02*
X059490Y044444D01*
X059551Y044323D02*
X059490Y044261D01*
X059490Y044137D01*
X059551Y044076D01*
X059798Y044076D01*
X059860Y044137D01*
X059860Y044261D01*
X059798Y044323D01*
X059675Y044323D01*
X059675Y044199D01*
X059860Y046899D02*
X059737Y047023D01*
X059860Y050530D02*
X059490Y050530D01*
X059613Y050898D02*
X059737Y050898D01*
X059860Y050774D01*
X048245Y045490D02*
X048245Y045120D01*
X048122Y045120D02*
X048369Y045120D01*
X048122Y045367D02*
X048245Y045490D01*
X048000Y045490D02*
X047753Y045490D01*
X047753Y045120D01*
X047753Y045305D02*
X047877Y045305D01*
X046600Y049270D02*
X046600Y049640D01*
X046477Y049640D02*
X046724Y049640D01*
X046355Y049640D02*
X046108Y049270D01*
X045987Y049270D02*
X045740Y049270D01*
X045740Y049640D01*
X045987Y049640D01*
X046108Y049640D02*
X046355Y049270D01*
X045863Y049455D02*
X045740Y049455D01*
X028523Y057270D02*
X028378Y057415D01*
X028329Y057367D02*
X028523Y057560D01*
X028329Y057560D02*
X028329Y057270D01*
X028228Y057318D02*
X028180Y057270D01*
X028083Y057270D01*
X028035Y057318D01*
X028228Y057512D01*
X028228Y057318D01*
X028035Y057318D02*
X028035Y057512D01*
X028083Y057560D01*
X028180Y057560D01*
X028228Y057512D01*
X028035Y057645D02*
X028035Y057693D01*
X028228Y057887D01*
X028228Y057935D01*
X028035Y057935D01*
X027933Y057887D02*
X027933Y057790D01*
X027885Y057742D01*
X027740Y057742D01*
X027837Y057742D02*
X027933Y057645D01*
X027837Y057560D02*
X027837Y057270D01*
X027933Y057270D02*
X027740Y057270D01*
X027740Y057463D02*
X027837Y057560D01*
X027740Y057645D02*
X027740Y057935D01*
X027885Y057935D01*
X027933Y057887D01*
X027630Y056234D02*
X027533Y056234D01*
X027485Y056186D01*
X027485Y056137D01*
X027533Y056089D01*
X027678Y056089D01*
X027678Y056186D02*
X027630Y056234D01*
X027678Y056186D02*
X027678Y055992D01*
X027630Y055944D01*
X027533Y055944D01*
X027485Y055992D01*
X027384Y055992D02*
X027384Y056186D01*
X027335Y056234D01*
X027190Y056234D01*
X027190Y055944D01*
X027335Y055944D01*
X027384Y055992D01*
X025428Y055992D02*
X025380Y055944D01*
X025283Y055944D01*
X025235Y055992D01*
X025235Y056040D01*
X025283Y056089D01*
X025380Y056089D01*
X025428Y056040D01*
X025428Y055992D01*
X025380Y056089D02*
X025428Y056137D01*
X025428Y056186D01*
X025380Y056234D01*
X025283Y056234D01*
X025235Y056186D01*
X025235Y056137D01*
X025283Y056089D01*
X025134Y056186D02*
X025085Y056234D01*
X024940Y056234D01*
X024940Y055944D01*
X025085Y055944D01*
X025134Y055992D01*
X025134Y056186D01*
X018773Y057270D02*
X018628Y057415D01*
X018579Y057367D02*
X018773Y057560D01*
X018579Y057560D02*
X018579Y057270D01*
X018478Y057318D02*
X018430Y057270D01*
X018333Y057270D01*
X018285Y057318D01*
X018478Y057512D01*
X018478Y057318D01*
X018285Y057318D02*
X018285Y057512D01*
X018333Y057560D01*
X018430Y057560D01*
X018478Y057512D01*
X018430Y057645D02*
X018478Y057693D01*
X018478Y057742D01*
X018430Y057790D01*
X018285Y057790D01*
X018285Y057693D01*
X018333Y057645D01*
X018430Y057645D01*
X018285Y057790D02*
X018381Y057887D01*
X018478Y057935D01*
X018183Y057887D02*
X018183Y057790D01*
X018135Y057742D01*
X017990Y057742D01*
X018087Y057742D02*
X018183Y057645D01*
X018087Y057560D02*
X018087Y057270D01*
X018183Y057270D02*
X017990Y057270D01*
X017990Y057463D02*
X018087Y057560D01*
X017990Y057645D02*
X017990Y057935D01*
X018135Y057935D01*
X018183Y057887D01*
X017928Y056234D02*
X017928Y056186D01*
X017735Y055992D01*
X017735Y055944D01*
X017634Y055992D02*
X017634Y056186D01*
X017585Y056234D01*
X017440Y056234D01*
X017440Y055944D01*
X017585Y055944D01*
X017634Y055992D01*
X017735Y056234D02*
X017928Y056234D01*
X015678Y056234D02*
X015581Y056186D01*
X015485Y056089D01*
X015630Y056089D01*
X015678Y056040D01*
X015678Y055992D01*
X015630Y055944D01*
X015533Y055944D01*
X015485Y055992D01*
X015485Y056089D01*
X015384Y056186D02*
X015335Y056234D01*
X015190Y056234D01*
X015190Y055944D01*
X015335Y055944D01*
X015384Y055992D01*
X015384Y056186D01*
X011460Y056208D02*
X011460Y056401D01*
X011460Y056304D02*
X011170Y056304D01*
X011267Y056208D01*
X011218Y056106D02*
X011412Y055913D01*
X011460Y055961D01*
X011460Y056058D01*
X011412Y056106D01*
X011218Y056106D01*
X011170Y056058D01*
X011170Y055961D01*
X011218Y055913D01*
X011412Y055913D01*
X011460Y055812D02*
X011460Y055618D01*
X011267Y055812D01*
X011218Y055812D01*
X011170Y055763D01*
X011170Y055667D01*
X011218Y055618D01*
X010960Y055664D02*
X010960Y055519D01*
X010912Y055471D01*
X010815Y055471D01*
X010767Y055519D01*
X010767Y055664D01*
X010670Y055664D02*
X010960Y055664D01*
X010912Y055766D02*
X010960Y055814D01*
X010960Y055959D01*
X011008Y055959D02*
X010767Y055959D01*
X010767Y055814D01*
X010815Y055766D01*
X010912Y055766D01*
X011057Y055862D02*
X011057Y055911D01*
X011008Y055959D01*
X010912Y056060D02*
X010815Y056060D01*
X010767Y056109D01*
X010767Y056205D01*
X010815Y056254D01*
X010863Y056254D01*
X010863Y056060D01*
X010912Y056060D02*
X010960Y056109D01*
X010960Y056205D01*
X010960Y056650D02*
X010960Y056746D01*
X010960Y056698D02*
X010670Y056698D01*
X010670Y056650D02*
X010670Y056746D01*
X010767Y056846D02*
X010767Y056991D01*
X010815Y057039D01*
X010960Y057039D01*
X010960Y056846D02*
X010767Y056846D01*
X010767Y057141D02*
X010960Y057237D01*
X010767Y057334D01*
X010815Y057435D02*
X010767Y057484D01*
X010767Y057580D01*
X010815Y057629D01*
X010863Y057629D01*
X010863Y057435D01*
X010815Y057435D02*
X010912Y057435D01*
X010960Y057484D01*
X010960Y057580D01*
X010960Y057730D02*
X010767Y057730D01*
X010863Y057730D02*
X010767Y057827D01*
X010767Y057875D01*
X010767Y057975D02*
X010767Y058072D01*
X010718Y058024D02*
X010912Y058024D01*
X010960Y058072D01*
X010912Y058172D02*
X010815Y058172D01*
X010767Y058220D01*
X010767Y058317D01*
X010815Y058365D01*
X010863Y058365D01*
X010863Y058172D01*
X010912Y058172D02*
X010960Y058220D01*
X010960Y058317D01*
X010960Y058467D02*
X010767Y058467D01*
X010863Y058467D02*
X010767Y058563D01*
X010767Y058612D01*
X010863Y059007D02*
X010863Y059152D01*
X010815Y059200D01*
X010718Y059200D01*
X010670Y059152D01*
X010670Y059007D01*
X010960Y059007D01*
X010912Y059301D02*
X010718Y059301D01*
X010670Y059350D01*
X010670Y059447D01*
X010718Y059495D01*
X010670Y059596D02*
X010670Y059741D01*
X010718Y059790D01*
X010767Y059790D01*
X010815Y059741D01*
X010815Y059596D01*
X010912Y059495D02*
X010960Y059447D01*
X010960Y059350D01*
X010912Y059301D01*
X010960Y059596D02*
X010960Y059741D01*
X010912Y059790D01*
X010863Y059790D01*
X010815Y059741D01*
X010960Y059596D02*
X010670Y059596D01*
X010210Y059565D02*
X010210Y059758D01*
X010162Y059859D02*
X010210Y059908D01*
X010210Y060004D01*
X010162Y060053D01*
X010162Y059859D02*
X009968Y059859D01*
X009920Y059908D01*
X009920Y060004D01*
X009968Y060053D01*
X009920Y060154D02*
X009920Y060347D01*
X009920Y060251D02*
X010210Y060251D01*
X010210Y060449D02*
X009920Y060449D01*
X009920Y060594D01*
X009968Y060642D01*
X010065Y060642D01*
X010113Y060594D01*
X010113Y060449D01*
X010113Y060545D02*
X010210Y060642D01*
X010162Y060743D02*
X010210Y060792D01*
X010210Y060888D01*
X010162Y060937D01*
X009968Y060937D01*
X009920Y060888D01*
X009920Y060792D01*
X009968Y060743D01*
X010162Y060743D01*
X010210Y061038D02*
X009920Y061038D01*
X010210Y061231D01*
X009920Y061231D01*
X009920Y061333D02*
X009920Y061429D01*
X009920Y061381D02*
X010210Y061381D01*
X010210Y061333D02*
X010210Y061429D01*
X010162Y061529D02*
X010210Y061577D01*
X010210Y061674D01*
X010162Y061722D01*
X010162Y061824D02*
X010210Y061872D01*
X010210Y061969D01*
X010162Y062017D01*
X010113Y062017D01*
X010065Y061969D01*
X010065Y061872D01*
X010017Y061824D01*
X009968Y061824D01*
X009920Y061872D01*
X009920Y061969D01*
X009968Y062017D01*
X009968Y061722D02*
X009920Y061674D01*
X009920Y061577D01*
X009968Y061529D01*
X010162Y061529D01*
X010162Y062895D02*
X010210Y062943D01*
X010210Y063040D01*
X010162Y063088D01*
X009968Y063088D01*
X009920Y063040D01*
X009920Y062943D01*
X009968Y062895D01*
X010162Y062895D01*
X010162Y063190D02*
X010210Y063238D01*
X010210Y063335D01*
X010162Y063383D01*
X010210Y063484D02*
X010210Y063581D01*
X010210Y063533D02*
X009920Y063533D01*
X009920Y063581D02*
X009920Y063484D01*
X009968Y063383D02*
X009920Y063335D01*
X009920Y063238D01*
X009968Y063190D01*
X010162Y063190D01*
X010210Y063681D02*
X010210Y063874D01*
X010065Y063777D02*
X010065Y063681D01*
X009920Y063681D02*
X010210Y063681D01*
X009920Y063681D02*
X009920Y063874D01*
X009920Y063975D02*
X009920Y064169D01*
X009920Y064072D02*
X010210Y064072D01*
X010210Y064367D02*
X010065Y064367D01*
X009968Y064464D01*
X009920Y064464D01*
X010065Y064367D02*
X009968Y064270D01*
X009920Y064270D01*
X009920Y059758D02*
X009920Y059565D01*
X010210Y059565D01*
X010210Y059463D02*
X010210Y059270D01*
X009920Y059270D01*
X010065Y059565D02*
X010065Y059661D01*
X010065Y058347D02*
X010113Y058299D01*
X010113Y058154D01*
X010113Y058251D02*
X010210Y058347D01*
X010065Y058347D02*
X009968Y058347D01*
X009920Y058299D01*
X009920Y058154D01*
X010210Y058154D01*
X010210Y058053D02*
X010210Y057859D01*
X009920Y057859D01*
X009920Y058053D01*
X010065Y057956D02*
X010065Y057859D01*
X010210Y057758D02*
X009920Y057758D01*
X009920Y057565D02*
X010210Y057565D01*
X010113Y057661D01*
X010210Y057758D01*
X010162Y057463D02*
X009968Y057463D01*
X009920Y057415D01*
X009920Y057318D01*
X009968Y057270D01*
X010162Y057270D01*
X010210Y057318D01*
X010210Y057415D01*
X010162Y057463D01*
X011170Y056647D02*
X011315Y056502D01*
X011315Y056696D01*
X011460Y056647D02*
X011170Y056647D01*
X010960Y055371D02*
X010960Y055274D01*
X010960Y055323D02*
X010767Y055323D01*
X010767Y055274D01*
X010767Y055174D02*
X010767Y055126D01*
X010863Y055029D01*
X010767Y055029D02*
X010960Y055029D01*
X010912Y054928D02*
X010960Y054879D01*
X010960Y054734D01*
X010670Y054734D01*
X010670Y054879D01*
X010718Y054928D01*
X010767Y054928D01*
X010815Y054879D01*
X010815Y054734D01*
X010815Y054633D02*
X010815Y054440D01*
X010815Y054338D02*
X010815Y054145D01*
X010960Y054145D02*
X010670Y054145D01*
X010670Y054338D02*
X010960Y054338D01*
X011170Y054338D02*
X011170Y054145D01*
X011460Y054145D01*
X011315Y054145D02*
X011315Y054242D01*
X011315Y054440D02*
X011315Y054633D01*
X011267Y054633D02*
X011460Y054633D01*
X011460Y054734D02*
X011460Y054928D01*
X011460Y055029D02*
X011460Y055222D01*
X011460Y055029D02*
X011170Y055029D01*
X010912Y054928D02*
X010863Y054928D01*
X010815Y054879D01*
X011170Y054734D02*
X011460Y054734D01*
X011267Y054633D02*
X011170Y054536D01*
X011267Y054440D01*
X011460Y054440D01*
X010670Y055323D02*
X010621Y055323D01*
X001605Y061645D02*
X001358Y061645D01*
X001237Y061645D02*
X000990Y062015D01*
X001237Y062015D02*
X000990Y061645D01*
X001358Y061892D02*
X001482Y062015D01*
X001482Y061645D01*
X000710Y060117D02*
X000710Y059870D01*
X000463Y060117D01*
X000401Y060117D01*
X000340Y060056D01*
X000340Y059932D01*
X000401Y059870D01*
X000340Y059380D02*
X000340Y059257D01*
X000340Y059318D02*
X000710Y059318D01*
X000710Y059257D02*
X000710Y059380D01*
X000710Y059135D02*
X000587Y059012D01*
X000587Y059073D02*
X000587Y058888D01*
X000710Y058888D02*
X000340Y058888D01*
X000340Y059073D01*
X000401Y059135D01*
X000525Y059135D01*
X000587Y059073D01*
X000525Y058767D02*
X000587Y058705D01*
X000587Y058520D01*
X000710Y058520D02*
X000340Y058520D01*
X000340Y058705D01*
X000401Y058767D01*
X000525Y058767D01*
X000710Y056367D02*
X000710Y056120D01*
X000710Y056244D02*
X000340Y056244D01*
X000463Y056120D01*
X000340Y055630D02*
X000340Y055507D01*
X000340Y055568D02*
X000710Y055568D01*
X000710Y055507D02*
X000710Y055630D01*
X000710Y055385D02*
X000587Y055262D01*
X000587Y055323D02*
X000587Y055138D01*
X000710Y055138D02*
X000340Y055138D01*
X000340Y055323D01*
X000401Y055385D01*
X000525Y055385D01*
X000587Y055323D01*
X000525Y055017D02*
X000587Y054955D01*
X000587Y054770D01*
X000710Y054770D02*
X000340Y054770D01*
X000340Y054955D01*
X000401Y055017D01*
X000525Y055017D01*
X014151Y041490D02*
X014151Y041200D01*
X014151Y041297D02*
X014296Y041297D01*
X014344Y041345D01*
X014344Y041442D01*
X014296Y041490D01*
X014151Y041490D01*
X014247Y041297D02*
X014344Y041200D01*
X014296Y041115D02*
X014344Y041067D01*
X014151Y040873D01*
X014199Y040825D01*
X014296Y040825D01*
X014344Y040873D01*
X014344Y041067D01*
X014296Y041115D02*
X014199Y041115D01*
X014151Y041067D01*
X014151Y040873D01*
X014050Y040825D02*
X013856Y040825D01*
X013953Y040825D02*
X013953Y041115D01*
X013856Y041018D01*
X014445Y040922D02*
X014639Y041115D01*
X014590Y041200D02*
X014494Y041200D01*
X014445Y041248D01*
X014445Y041297D01*
X014494Y041345D01*
X014590Y041345D01*
X014639Y041297D01*
X014639Y041248D01*
X014590Y041200D01*
X014590Y041345D02*
X014639Y041393D01*
X014639Y041442D01*
X014590Y041490D01*
X014494Y041490D01*
X014445Y041442D01*
X014445Y041393D01*
X014494Y041345D01*
X014445Y041115D02*
X014445Y040825D01*
X014494Y040970D02*
X014639Y040825D01*
X014701Y042526D02*
X014846Y042526D01*
X014894Y042575D01*
X014894Y042768D01*
X014846Y042817D01*
X014701Y042817D01*
X014701Y042526D01*
X014995Y042526D02*
X015189Y042526D01*
X015092Y042526D02*
X015092Y042817D01*
X014995Y042720D01*
X015290Y042768D02*
X015338Y042817D01*
X015435Y042817D01*
X015483Y042768D01*
X015290Y042575D01*
X015338Y042526D01*
X015435Y042526D01*
X015483Y042575D01*
X015483Y042768D01*
X015290Y042768D02*
X015290Y042575D01*
X016826Y042526D02*
X016971Y042526D01*
X017019Y042575D01*
X017019Y042768D01*
X016971Y042817D01*
X016826Y042817D01*
X016826Y042526D01*
X017120Y042526D02*
X017314Y042526D01*
X017217Y042526D02*
X017217Y042817D01*
X017120Y042720D01*
X017415Y042720D02*
X017512Y042817D01*
X017512Y042526D01*
X017608Y042526D02*
X017415Y042526D01*
X023606Y041018D02*
X023703Y041115D01*
X023703Y040825D01*
X023606Y040825D02*
X023800Y040825D01*
X023901Y040873D02*
X024094Y041067D01*
X024094Y040873D01*
X024046Y040825D01*
X023949Y040825D01*
X023901Y040873D01*
X023901Y041067D01*
X023949Y041115D01*
X024046Y041115D01*
X024094Y041067D01*
X024195Y041115D02*
X024195Y040825D01*
X024195Y040922D02*
X024389Y041115D01*
X024340Y041200D02*
X024389Y041248D01*
X024389Y041442D01*
X024340Y041490D01*
X024244Y041490D01*
X024195Y041442D01*
X024195Y041393D01*
X024244Y041345D01*
X024389Y041345D01*
X024340Y041200D02*
X024244Y041200D01*
X024195Y041248D01*
X024094Y041200D02*
X023997Y041297D01*
X024046Y041297D02*
X023901Y041297D01*
X023901Y041200D02*
X023901Y041490D01*
X024046Y041490D01*
X024094Y041442D01*
X024094Y041345D01*
X024046Y041297D01*
X024244Y040970D02*
X024389Y040825D01*
X024451Y042526D02*
X024596Y042526D01*
X024644Y042575D01*
X024644Y042768D01*
X024596Y042817D01*
X024451Y042817D01*
X024451Y042526D01*
X024745Y042526D02*
X024939Y042526D01*
X024842Y042526D02*
X024842Y042817D01*
X024745Y042720D01*
X025040Y042768D02*
X025088Y042817D01*
X025185Y042817D01*
X025233Y042768D01*
X025233Y042720D01*
X025040Y042526D01*
X025233Y042526D01*
X026576Y042526D02*
X026721Y042526D01*
X026769Y042575D01*
X026769Y042768D01*
X026721Y042817D01*
X026576Y042817D01*
X026576Y042526D01*
X026870Y042526D02*
X027064Y042526D01*
X026967Y042526D02*
X026967Y042817D01*
X026870Y042720D01*
X027165Y042768D02*
X027213Y042817D01*
X027310Y042817D01*
X027358Y042768D01*
X027358Y042720D01*
X027310Y042671D01*
X027358Y042623D01*
X027358Y042575D01*
X027310Y042526D01*
X027213Y042526D01*
X027165Y042575D01*
X027262Y042671D02*
X027310Y042671D01*
X010119Y038019D02*
X009873Y038019D01*
X009749Y037896D01*
X009873Y037772D01*
X010119Y037772D01*
X010119Y037651D02*
X010119Y037404D01*
X010119Y037528D02*
X009749Y037528D01*
X009873Y037404D01*
X009934Y037283D02*
X009996Y037221D01*
X009996Y037036D01*
X010119Y037036D02*
X009749Y037036D01*
X009749Y037221D01*
X009811Y037283D01*
X009934Y037283D01*
X009934Y037772D02*
X009934Y038019D01*
X008369Y037958D02*
X008369Y037772D01*
X007999Y037772D01*
X007999Y037958D01*
X008061Y038019D01*
X008123Y038019D01*
X008184Y037958D01*
X008184Y037772D01*
X008184Y037958D02*
X008246Y038019D01*
X008308Y038019D01*
X008369Y037958D01*
X008369Y037651D02*
X008369Y037404D01*
X008369Y037528D02*
X007999Y037528D01*
X008123Y037404D01*
X008184Y037283D02*
X008246Y037221D01*
X008246Y037036D01*
X008369Y037036D02*
X007999Y037036D01*
X007999Y037221D01*
X008061Y037283D01*
X008184Y037283D01*
X004869Y037404D02*
X004623Y037651D01*
X004561Y037651D01*
X004499Y037589D01*
X004499Y037466D01*
X004561Y037404D01*
X004561Y037283D02*
X004684Y037283D01*
X004746Y037221D01*
X004746Y037036D01*
X004869Y037036D02*
X004499Y037036D01*
X004499Y037221D01*
X004561Y037283D01*
X004869Y037404D02*
X004869Y037651D01*
X004869Y037772D02*
X004623Y037772D01*
X004499Y037896D01*
X004623Y038019D01*
X004869Y038019D01*
X004684Y038019D02*
X004684Y037772D01*
X003119Y037772D02*
X003119Y037958D01*
X003058Y038019D01*
X002996Y038019D01*
X002934Y037958D01*
X002934Y037772D01*
X002873Y037651D02*
X002811Y037651D01*
X002749Y037589D01*
X002749Y037466D01*
X002811Y037404D01*
X002811Y037283D02*
X002934Y037283D01*
X002996Y037221D01*
X002996Y037036D01*
X003119Y037036D02*
X002749Y037036D01*
X002749Y037221D01*
X002811Y037283D01*
X003119Y037404D02*
X002873Y037651D01*
X002749Y037772D02*
X002749Y037958D01*
X002811Y038019D01*
X002873Y038019D01*
X002934Y037958D01*
X003119Y037772D02*
X002749Y037772D01*
X003119Y037651D02*
X003119Y037404D01*
X003276Y033615D02*
X003469Y033325D01*
X003570Y033373D02*
X003619Y033325D01*
X003715Y033325D01*
X003764Y033373D01*
X003764Y033422D01*
X003715Y033470D01*
X003667Y033470D01*
X003715Y033470D02*
X003764Y033518D01*
X003764Y033567D01*
X003715Y033615D01*
X003619Y033615D01*
X003570Y033567D01*
X003469Y033615D02*
X003276Y033325D01*
X008526Y033325D02*
X008719Y033615D01*
X008820Y033470D02*
X008965Y033615D01*
X008965Y033325D01*
X009014Y033470D02*
X008820Y033470D01*
X008719Y033325D02*
X008526Y033615D01*
D12*
X000325Y034630D02*
X000327Y034701D01*
X000333Y034771D01*
X000343Y034842D01*
X000356Y034911D01*
X000374Y034980D01*
X000395Y035048D01*
X000420Y035114D01*
X000449Y035179D01*
X000481Y035242D01*
X000517Y035303D01*
X000556Y035362D01*
X000598Y035419D01*
X000644Y035473D01*
X000692Y035525D01*
X000743Y035574D01*
X000797Y035620D01*
X000853Y035664D01*
X000912Y035703D01*
X000973Y035740D01*
X001035Y035773D01*
X001100Y035803D01*
X001166Y035829D01*
X001233Y035851D01*
X001301Y035870D01*
X001371Y035884D01*
X001441Y035895D01*
X001511Y035902D01*
X001582Y035905D01*
X001653Y035904D01*
X001724Y035899D01*
X001794Y035890D01*
X001864Y035877D01*
X001933Y035861D01*
X002001Y035840D01*
X002067Y035816D01*
X002133Y035788D01*
X002196Y035757D01*
X002258Y035722D01*
X002318Y035684D01*
X002375Y035642D01*
X002430Y035598D01*
X002483Y035550D01*
X002532Y035500D01*
X002579Y035447D01*
X002623Y035391D01*
X002664Y035333D01*
X002701Y035273D01*
X002735Y035210D01*
X002766Y035146D01*
X002793Y035081D01*
X002816Y035014D01*
X002835Y034946D01*
X002851Y034877D01*
X002863Y034807D01*
X002871Y034736D01*
X002875Y034665D01*
X002875Y034595D01*
X002871Y034524D01*
X002863Y034453D01*
X002851Y034383D01*
X002835Y034314D01*
X002816Y034246D01*
X002793Y034179D01*
X002766Y034114D01*
X002735Y034050D01*
X002701Y033987D01*
X002664Y033927D01*
X002623Y033869D01*
X002579Y033813D01*
X002532Y033760D01*
X002483Y033710D01*
X002430Y033662D01*
X002375Y033618D01*
X002318Y033576D01*
X002258Y033538D01*
X002196Y033503D01*
X002133Y033472D01*
X002067Y033444D01*
X002001Y033420D01*
X001933Y033399D01*
X001864Y033383D01*
X001794Y033370D01*
X001724Y033361D01*
X001653Y033356D01*
X001582Y033355D01*
X001511Y033358D01*
X001441Y033365D01*
X001371Y033376D01*
X001301Y033390D01*
X001233Y033409D01*
X001166Y033431D01*
X001100Y033457D01*
X001035Y033487D01*
X000973Y033520D01*
X000912Y033557D01*
X000853Y033596D01*
X000797Y033640D01*
X000743Y033686D01*
X000692Y033735D01*
X000644Y033787D01*
X000598Y033841D01*
X000556Y033898D01*
X000517Y033957D01*
X000481Y034018D01*
X000449Y034081D01*
X000420Y034146D01*
X000395Y034212D01*
X000374Y034280D01*
X000356Y034349D01*
X000343Y034418D01*
X000333Y034489D01*
X000327Y034559D01*
X000325Y034630D01*
X015225Y045880D02*
X015225Y049380D01*
X015225Y052880D01*
X028725Y052880D01*
X028725Y049380D01*
X028725Y045880D01*
X015225Y045880D01*
X007471Y053237D02*
X007471Y054025D01*
X000975Y054025D01*
X000975Y056977D01*
X007471Y056977D01*
X007471Y054025D01*
X007471Y053237D02*
X000975Y053237D01*
X000975Y054025D01*
X000975Y056977D02*
X000975Y057765D01*
X007471Y057765D01*
X007471Y056977D01*
X007471Y057765D02*
X007471Y060718D01*
X000975Y060718D01*
X000975Y061505D01*
X007471Y061505D01*
X007471Y060718D01*
X000325Y064130D02*
X000327Y064201D01*
X000333Y064271D01*
X000343Y064342D01*
X000356Y064411D01*
X000374Y064480D01*
X000395Y064548D01*
X000420Y064614D01*
X000449Y064679D01*
X000481Y064742D01*
X000517Y064803D01*
X000556Y064862D01*
X000598Y064919D01*
X000644Y064973D01*
X000692Y065025D01*
X000743Y065074D01*
X000797Y065120D01*
X000853Y065164D01*
X000912Y065203D01*
X000973Y065240D01*
X001035Y065273D01*
X001100Y065303D01*
X001166Y065329D01*
X001233Y065351D01*
X001301Y065370D01*
X001371Y065384D01*
X001441Y065395D01*
X001511Y065402D01*
X001582Y065405D01*
X001653Y065404D01*
X001724Y065399D01*
X001794Y065390D01*
X001864Y065377D01*
X001933Y065361D01*
X002001Y065340D01*
X002067Y065316D01*
X002133Y065288D01*
X002196Y065257D01*
X002258Y065222D01*
X002318Y065184D01*
X002375Y065142D01*
X002430Y065098D01*
X002483Y065050D01*
X002532Y065000D01*
X002579Y064947D01*
X002623Y064891D01*
X002664Y064833D01*
X002701Y064773D01*
X002735Y064710D01*
X002766Y064646D01*
X002793Y064581D01*
X002816Y064514D01*
X002835Y064446D01*
X002851Y064377D01*
X002863Y064307D01*
X002871Y064236D01*
X002875Y064165D01*
X002875Y064095D01*
X002871Y064024D01*
X002863Y063953D01*
X002851Y063883D01*
X002835Y063814D01*
X002816Y063746D01*
X002793Y063679D01*
X002766Y063614D01*
X002735Y063550D01*
X002701Y063487D01*
X002664Y063427D01*
X002623Y063369D01*
X002579Y063313D01*
X002532Y063260D01*
X002483Y063210D01*
X002430Y063162D01*
X002375Y063118D01*
X002318Y063076D01*
X002258Y063038D01*
X002196Y063003D01*
X002133Y062972D01*
X002067Y062944D01*
X002001Y062920D01*
X001933Y062899D01*
X001864Y062883D01*
X001794Y062870D01*
X001724Y062861D01*
X001653Y062856D01*
X001582Y062855D01*
X001511Y062858D01*
X001441Y062865D01*
X001371Y062876D01*
X001301Y062890D01*
X001233Y062909D01*
X001166Y062931D01*
X001100Y062957D01*
X001035Y062987D01*
X000973Y063020D01*
X000912Y063057D01*
X000853Y063096D01*
X000797Y063140D01*
X000743Y063186D01*
X000692Y063235D01*
X000644Y063287D01*
X000598Y063341D01*
X000556Y063398D01*
X000517Y063457D01*
X000481Y063518D01*
X000449Y063581D01*
X000420Y063646D01*
X000395Y063712D01*
X000374Y063780D01*
X000356Y063849D01*
X000343Y063918D01*
X000333Y063989D01*
X000327Y064059D01*
X000325Y064130D01*
X000975Y060718D02*
X000975Y057765D01*
X015643Y062755D02*
X015645Y062808D01*
X015651Y062860D01*
X015661Y062912D01*
X015674Y062963D01*
X015692Y063013D01*
X015713Y063062D01*
X015738Y063109D01*
X015766Y063153D01*
X015797Y063196D01*
X015832Y063236D01*
X015869Y063273D01*
X015909Y063308D01*
X015952Y063339D01*
X015997Y063367D01*
X016043Y063392D01*
X016092Y063413D01*
X016142Y063431D01*
X016193Y063444D01*
X016245Y063454D01*
X016297Y063460D01*
X016350Y063462D01*
X016403Y063460D01*
X016455Y063454D01*
X016507Y063444D01*
X016558Y063431D01*
X016608Y063413D01*
X016657Y063392D01*
X016704Y063367D01*
X016748Y063339D01*
X016791Y063308D01*
X016831Y063273D01*
X016868Y063236D01*
X016903Y063196D01*
X016934Y063153D01*
X016962Y063108D01*
X016987Y063062D01*
X017008Y063013D01*
X017026Y062963D01*
X017039Y062912D01*
X017049Y062860D01*
X017055Y062808D01*
X017057Y062755D01*
X017055Y062702D01*
X017049Y062650D01*
X017039Y062598D01*
X017026Y062547D01*
X017008Y062497D01*
X016987Y062448D01*
X016962Y062401D01*
X016934Y062357D01*
X016903Y062314D01*
X016868Y062274D01*
X016831Y062237D01*
X016791Y062202D01*
X016748Y062171D01*
X016703Y062143D01*
X016657Y062118D01*
X016608Y062097D01*
X016558Y062079D01*
X016507Y062066D01*
X016455Y062056D01*
X016403Y062050D01*
X016350Y062048D01*
X016297Y062050D01*
X016245Y062056D01*
X016193Y062066D01*
X016142Y062079D01*
X016092Y062097D01*
X016043Y062118D01*
X015996Y062143D01*
X015952Y062171D01*
X015909Y062202D01*
X015869Y062237D01*
X015832Y062274D01*
X015797Y062314D01*
X015766Y062357D01*
X015738Y062402D01*
X015713Y062448D01*
X015692Y062497D01*
X015674Y062547D01*
X015661Y062598D01*
X015651Y062650D01*
X015645Y062702D01*
X015643Y062755D01*
X025393Y062755D02*
X025395Y062808D01*
X025401Y062860D01*
X025411Y062912D01*
X025424Y062963D01*
X025442Y063013D01*
X025463Y063062D01*
X025488Y063109D01*
X025516Y063153D01*
X025547Y063196D01*
X025582Y063236D01*
X025619Y063273D01*
X025659Y063308D01*
X025702Y063339D01*
X025747Y063367D01*
X025793Y063392D01*
X025842Y063413D01*
X025892Y063431D01*
X025943Y063444D01*
X025995Y063454D01*
X026047Y063460D01*
X026100Y063462D01*
X026153Y063460D01*
X026205Y063454D01*
X026257Y063444D01*
X026308Y063431D01*
X026358Y063413D01*
X026407Y063392D01*
X026454Y063367D01*
X026498Y063339D01*
X026541Y063308D01*
X026581Y063273D01*
X026618Y063236D01*
X026653Y063196D01*
X026684Y063153D01*
X026712Y063108D01*
X026737Y063062D01*
X026758Y063013D01*
X026776Y062963D01*
X026789Y062912D01*
X026799Y062860D01*
X026805Y062808D01*
X026807Y062755D01*
X026805Y062702D01*
X026799Y062650D01*
X026789Y062598D01*
X026776Y062547D01*
X026758Y062497D01*
X026737Y062448D01*
X026712Y062401D01*
X026684Y062357D01*
X026653Y062314D01*
X026618Y062274D01*
X026581Y062237D01*
X026541Y062202D01*
X026498Y062171D01*
X026453Y062143D01*
X026407Y062118D01*
X026358Y062097D01*
X026308Y062079D01*
X026257Y062066D01*
X026205Y062056D01*
X026153Y062050D01*
X026100Y062048D01*
X026047Y062050D01*
X025995Y062056D01*
X025943Y062066D01*
X025892Y062079D01*
X025842Y062097D01*
X025793Y062118D01*
X025746Y062143D01*
X025702Y062171D01*
X025659Y062202D01*
X025619Y062237D01*
X025582Y062274D01*
X025547Y062314D01*
X025516Y062357D01*
X025488Y062402D01*
X025463Y062448D01*
X025442Y062497D01*
X025424Y062547D01*
X025411Y062598D01*
X025401Y062650D01*
X025395Y062702D01*
X025393Y062755D01*
X047819Y062255D02*
X047819Y057531D01*
X048213Y057531D01*
X048213Y061074D01*
X050280Y061074D01*
X050280Y057531D01*
X050674Y057531D01*
X050674Y061074D01*
X056776Y061074D01*
X056776Y057531D01*
X057170Y057531D01*
X057170Y061074D01*
X059237Y061074D01*
X059237Y057531D01*
X059631Y057531D01*
X059631Y062255D01*
X047819Y062255D01*
X051658Y062255D02*
X051658Y061074D01*
X054629Y064160D02*
X054854Y064160D01*
X054929Y064235D01*
X054929Y064535D01*
X054854Y064610D01*
X054629Y064610D01*
X054629Y064160D01*
X055090Y064160D02*
X055390Y064160D01*
X055240Y064160D02*
X055240Y064610D01*
X055090Y064460D01*
X055792Y062255D02*
X055792Y061074D01*
X057325Y064130D02*
X057327Y064201D01*
X057333Y064271D01*
X057343Y064342D01*
X057356Y064411D01*
X057374Y064480D01*
X057395Y064548D01*
X057420Y064614D01*
X057449Y064679D01*
X057481Y064742D01*
X057517Y064803D01*
X057556Y064862D01*
X057598Y064919D01*
X057644Y064973D01*
X057692Y065025D01*
X057743Y065074D01*
X057797Y065120D01*
X057853Y065164D01*
X057912Y065203D01*
X057973Y065240D01*
X058035Y065273D01*
X058100Y065303D01*
X058166Y065329D01*
X058233Y065351D01*
X058301Y065370D01*
X058371Y065384D01*
X058441Y065395D01*
X058511Y065402D01*
X058582Y065405D01*
X058653Y065404D01*
X058724Y065399D01*
X058794Y065390D01*
X058864Y065377D01*
X058933Y065361D01*
X059001Y065340D01*
X059067Y065316D01*
X059133Y065288D01*
X059196Y065257D01*
X059258Y065222D01*
X059318Y065184D01*
X059375Y065142D01*
X059430Y065098D01*
X059483Y065050D01*
X059532Y065000D01*
X059579Y064947D01*
X059623Y064891D01*
X059664Y064833D01*
X059701Y064773D01*
X059735Y064710D01*
X059766Y064646D01*
X059793Y064581D01*
X059816Y064514D01*
X059835Y064446D01*
X059851Y064377D01*
X059863Y064307D01*
X059871Y064236D01*
X059875Y064165D01*
X059875Y064095D01*
X059871Y064024D01*
X059863Y063953D01*
X059851Y063883D01*
X059835Y063814D01*
X059816Y063746D01*
X059793Y063679D01*
X059766Y063614D01*
X059735Y063550D01*
X059701Y063487D01*
X059664Y063427D01*
X059623Y063369D01*
X059579Y063313D01*
X059532Y063260D01*
X059483Y063210D01*
X059430Y063162D01*
X059375Y063118D01*
X059318Y063076D01*
X059258Y063038D01*
X059196Y063003D01*
X059133Y062972D01*
X059067Y062944D01*
X059001Y062920D01*
X058933Y062899D01*
X058864Y062883D01*
X058794Y062870D01*
X058724Y062861D01*
X058653Y062856D01*
X058582Y062855D01*
X058511Y062858D01*
X058441Y062865D01*
X058371Y062876D01*
X058301Y062890D01*
X058233Y062909D01*
X058166Y062931D01*
X058100Y062957D01*
X058035Y062987D01*
X057973Y063020D01*
X057912Y063057D01*
X057853Y063096D01*
X057797Y063140D01*
X057743Y063186D01*
X057692Y063235D01*
X057644Y063287D01*
X057598Y063341D01*
X057556Y063398D01*
X057517Y063457D01*
X057481Y063518D01*
X057449Y063581D01*
X057420Y063646D01*
X057395Y063712D01*
X057374Y063780D01*
X057356Y063849D01*
X057343Y063918D01*
X057333Y063989D01*
X057327Y064059D01*
X057325Y064130D01*
X059221Y055380D02*
X052725Y055380D01*
X052725Y054593D01*
X059221Y054593D01*
X059221Y051620D01*
X052725Y051620D01*
X052725Y054593D01*
X052725Y051620D02*
X052725Y050833D01*
X059221Y050833D01*
X059221Y047880D01*
X052725Y047880D01*
X052725Y050833D01*
X052725Y047880D02*
X052725Y047093D01*
X059221Y047093D01*
X059221Y044160D01*
X052725Y044160D01*
X052725Y047093D01*
X052725Y044160D02*
X052725Y043372D01*
X059221Y043372D01*
X059221Y044160D01*
X059221Y047093D02*
X059221Y047880D01*
X059221Y050833D02*
X059221Y051620D01*
X059221Y054593D02*
X059221Y055380D01*
X059237Y041229D02*
X059631Y041229D01*
X059631Y036505D01*
X047819Y036505D01*
X047819Y041229D01*
X048213Y041229D01*
X048213Y037686D01*
X050280Y037686D01*
X050280Y041229D01*
X050674Y041229D01*
X050674Y037686D01*
X056776Y037686D01*
X056776Y041229D01*
X057170Y041229D01*
X057170Y037686D01*
X059237Y037686D01*
X059237Y041229D01*
X055792Y037686D02*
X055792Y036505D01*
X053171Y034525D02*
X053171Y034450D01*
X053096Y034375D01*
X052946Y034375D01*
X052871Y034450D01*
X052871Y034525D01*
X052946Y034600D01*
X053096Y034600D01*
X053171Y034525D01*
X053096Y034375D02*
X053171Y034300D01*
X053171Y034225D01*
X053096Y034150D01*
X052946Y034150D01*
X052871Y034225D01*
X052871Y034300D01*
X052946Y034375D01*
X052711Y034150D02*
X052410Y034150D01*
X052561Y034150D02*
X052561Y034600D01*
X052410Y034450D01*
X052250Y034525D02*
X052175Y034600D01*
X051950Y034600D01*
X051950Y034150D01*
X052175Y034150D01*
X052250Y034225D01*
X052250Y034525D01*
X051658Y036505D02*
X051658Y037686D01*
X057325Y034630D02*
X057327Y034701D01*
X057333Y034771D01*
X057343Y034842D01*
X057356Y034911D01*
X057374Y034980D01*
X057395Y035048D01*
X057420Y035114D01*
X057449Y035179D01*
X057481Y035242D01*
X057517Y035303D01*
X057556Y035362D01*
X057598Y035419D01*
X057644Y035473D01*
X057692Y035525D01*
X057743Y035574D01*
X057797Y035620D01*
X057853Y035664D01*
X057912Y035703D01*
X057973Y035740D01*
X058035Y035773D01*
X058100Y035803D01*
X058166Y035829D01*
X058233Y035851D01*
X058301Y035870D01*
X058371Y035884D01*
X058441Y035895D01*
X058511Y035902D01*
X058582Y035905D01*
X058653Y035904D01*
X058724Y035899D01*
X058794Y035890D01*
X058864Y035877D01*
X058933Y035861D01*
X059001Y035840D01*
X059067Y035816D01*
X059133Y035788D01*
X059196Y035757D01*
X059258Y035722D01*
X059318Y035684D01*
X059375Y035642D01*
X059430Y035598D01*
X059483Y035550D01*
X059532Y035500D01*
X059579Y035447D01*
X059623Y035391D01*
X059664Y035333D01*
X059701Y035273D01*
X059735Y035210D01*
X059766Y035146D01*
X059793Y035081D01*
X059816Y035014D01*
X059835Y034946D01*
X059851Y034877D01*
X059863Y034807D01*
X059871Y034736D01*
X059875Y034665D01*
X059875Y034595D01*
X059871Y034524D01*
X059863Y034453D01*
X059851Y034383D01*
X059835Y034314D01*
X059816Y034246D01*
X059793Y034179D01*
X059766Y034114D01*
X059735Y034050D01*
X059701Y033987D01*
X059664Y033927D01*
X059623Y033869D01*
X059579Y033813D01*
X059532Y033760D01*
X059483Y033710D01*
X059430Y033662D01*
X059375Y033618D01*
X059318Y033576D01*
X059258Y033538D01*
X059196Y033503D01*
X059133Y033472D01*
X059067Y033444D01*
X059001Y033420D01*
X058933Y033399D01*
X058864Y033383D01*
X058794Y033370D01*
X058724Y033361D01*
X058653Y033356D01*
X058582Y033355D01*
X058511Y033358D01*
X058441Y033365D01*
X058371Y033376D01*
X058301Y033390D01*
X058233Y033409D01*
X058166Y033431D01*
X058100Y033457D01*
X058035Y033487D01*
X057973Y033520D01*
X057912Y033557D01*
X057853Y033596D01*
X057797Y033640D01*
X057743Y033686D01*
X057692Y033735D01*
X057644Y033787D01*
X057598Y033841D01*
X057556Y033898D01*
X057517Y033957D01*
X057481Y034018D01*
X057449Y034081D01*
X057420Y034146D01*
X057395Y034212D01*
X057374Y034280D01*
X057356Y034349D01*
X057343Y034418D01*
X057333Y034489D01*
X057327Y034559D01*
X057325Y034630D01*
X025393Y036005D02*
X025395Y036058D01*
X025401Y036110D01*
X025411Y036162D01*
X025424Y036213D01*
X025442Y036263D01*
X025463Y036312D01*
X025488Y036359D01*
X025516Y036403D01*
X025547Y036446D01*
X025582Y036486D01*
X025619Y036523D01*
X025659Y036558D01*
X025702Y036589D01*
X025747Y036617D01*
X025793Y036642D01*
X025842Y036663D01*
X025892Y036681D01*
X025943Y036694D01*
X025995Y036704D01*
X026047Y036710D01*
X026100Y036712D01*
X026153Y036710D01*
X026205Y036704D01*
X026257Y036694D01*
X026308Y036681D01*
X026358Y036663D01*
X026407Y036642D01*
X026454Y036617D01*
X026498Y036589D01*
X026541Y036558D01*
X026581Y036523D01*
X026618Y036486D01*
X026653Y036446D01*
X026684Y036403D01*
X026712Y036358D01*
X026737Y036312D01*
X026758Y036263D01*
X026776Y036213D01*
X026789Y036162D01*
X026799Y036110D01*
X026805Y036058D01*
X026807Y036005D01*
X026805Y035952D01*
X026799Y035900D01*
X026789Y035848D01*
X026776Y035797D01*
X026758Y035747D01*
X026737Y035698D01*
X026712Y035651D01*
X026684Y035607D01*
X026653Y035564D01*
X026618Y035524D01*
X026581Y035487D01*
X026541Y035452D01*
X026498Y035421D01*
X026453Y035393D01*
X026407Y035368D01*
X026358Y035347D01*
X026308Y035329D01*
X026257Y035316D01*
X026205Y035306D01*
X026153Y035300D01*
X026100Y035298D01*
X026047Y035300D01*
X025995Y035306D01*
X025943Y035316D01*
X025892Y035329D01*
X025842Y035347D01*
X025793Y035368D01*
X025746Y035393D01*
X025702Y035421D01*
X025659Y035452D01*
X025619Y035487D01*
X025582Y035524D01*
X025547Y035564D01*
X025516Y035607D01*
X025488Y035652D01*
X025463Y035698D01*
X025442Y035747D01*
X025424Y035797D01*
X025411Y035848D01*
X025401Y035900D01*
X025395Y035952D01*
X025393Y036005D01*
X015643Y036005D02*
X015645Y036058D01*
X015651Y036110D01*
X015661Y036162D01*
X015674Y036213D01*
X015692Y036263D01*
X015713Y036312D01*
X015738Y036359D01*
X015766Y036403D01*
X015797Y036446D01*
X015832Y036486D01*
X015869Y036523D01*
X015909Y036558D01*
X015952Y036589D01*
X015997Y036617D01*
X016043Y036642D01*
X016092Y036663D01*
X016142Y036681D01*
X016193Y036694D01*
X016245Y036704D01*
X016297Y036710D01*
X016350Y036712D01*
X016403Y036710D01*
X016455Y036704D01*
X016507Y036694D01*
X016558Y036681D01*
X016608Y036663D01*
X016657Y036642D01*
X016704Y036617D01*
X016748Y036589D01*
X016791Y036558D01*
X016831Y036523D01*
X016868Y036486D01*
X016903Y036446D01*
X016934Y036403D01*
X016962Y036358D01*
X016987Y036312D01*
X017008Y036263D01*
X017026Y036213D01*
X017039Y036162D01*
X017049Y036110D01*
X017055Y036058D01*
X017057Y036005D01*
X017055Y035952D01*
X017049Y035900D01*
X017039Y035848D01*
X017026Y035797D01*
X017008Y035747D01*
X016987Y035698D01*
X016962Y035651D01*
X016934Y035607D01*
X016903Y035564D01*
X016868Y035524D01*
X016831Y035487D01*
X016791Y035452D01*
X016748Y035421D01*
X016703Y035393D01*
X016657Y035368D01*
X016608Y035347D01*
X016558Y035329D01*
X016507Y035316D01*
X016455Y035306D01*
X016403Y035300D01*
X016350Y035298D01*
X016297Y035300D01*
X016245Y035306D01*
X016193Y035316D01*
X016142Y035329D01*
X016092Y035347D01*
X016043Y035368D01*
X015996Y035393D01*
X015952Y035421D01*
X015909Y035452D01*
X015869Y035487D01*
X015832Y035524D01*
X015797Y035564D01*
X015766Y035607D01*
X015738Y035652D01*
X015713Y035698D01*
X015692Y035747D01*
X015674Y035797D01*
X015661Y035848D01*
X015651Y035900D01*
X015645Y035952D01*
X015643Y036005D01*
D13*
X004333Y030549D02*
X004333Y030313D01*
X006617Y030313D01*
X006617Y030549D01*
X004333Y030549D01*
X004136Y030667D01*
X004136Y031494D01*
X004333Y031612D01*
X006617Y031612D01*
X006814Y031494D01*
X006814Y030667D01*
X006617Y030549D01*
X006617Y031612D02*
X006617Y033187D01*
X005908Y033620D02*
X005042Y033620D01*
X004333Y033187D02*
X004333Y031612D01*
X004215Y034447D02*
X004215Y035313D01*
X005042Y036140D02*
X005908Y036140D01*
X004806Y034880D02*
X004808Y034931D01*
X004814Y034982D01*
X004824Y035032D01*
X004837Y035082D01*
X004855Y035130D01*
X004875Y035177D01*
X004900Y035222D01*
X004928Y035265D01*
X004959Y035306D01*
X004993Y035344D01*
X005030Y035379D01*
X005069Y035412D01*
X005111Y035442D01*
X005155Y035468D01*
X005201Y035490D01*
X005249Y035510D01*
X005298Y035525D01*
X005348Y035537D01*
X005398Y035545D01*
X005449Y035549D01*
X005501Y035549D01*
X005552Y035545D01*
X005602Y035537D01*
X005652Y035525D01*
X005701Y035510D01*
X005749Y035490D01*
X005795Y035468D01*
X005839Y035442D01*
X005881Y035412D01*
X005920Y035379D01*
X005957Y035344D01*
X005991Y035306D01*
X006022Y035265D01*
X006050Y035222D01*
X006075Y035177D01*
X006095Y035130D01*
X006113Y035082D01*
X006126Y035032D01*
X006136Y034982D01*
X006142Y034931D01*
X006144Y034880D01*
X006142Y034829D01*
X006136Y034778D01*
X006126Y034728D01*
X006113Y034678D01*
X006095Y034630D01*
X006075Y034583D01*
X006050Y034538D01*
X006022Y034495D01*
X005991Y034454D01*
X005957Y034416D01*
X005920Y034381D01*
X005881Y034348D01*
X005839Y034318D01*
X005795Y034292D01*
X005749Y034270D01*
X005701Y034250D01*
X005652Y034235D01*
X005602Y034223D01*
X005552Y034215D01*
X005501Y034211D01*
X005449Y034211D01*
X005398Y034215D01*
X005348Y034223D01*
X005298Y034235D01*
X005249Y034250D01*
X005201Y034270D01*
X005155Y034292D01*
X005111Y034318D01*
X005069Y034348D01*
X005030Y034381D01*
X004993Y034416D01*
X004959Y034454D01*
X004928Y034495D01*
X004900Y034538D01*
X004875Y034583D01*
X004855Y034630D01*
X004837Y034678D01*
X004824Y034728D01*
X004814Y034778D01*
X004808Y034829D01*
X004806Y034880D01*
X006735Y035313D02*
X006735Y034447D01*
X009465Y034447D02*
X009465Y035313D01*
X010292Y036140D02*
X011158Y036140D01*
X011985Y035313D02*
X011985Y034447D01*
X011158Y033620D02*
X010292Y033620D01*
X009583Y033187D02*
X009583Y031612D01*
X011867Y031612D01*
X012064Y031494D01*
X012064Y030667D01*
X011867Y030549D01*
X009583Y030549D01*
X009583Y030313D01*
X011867Y030313D01*
X011867Y030549D01*
X011867Y031612D02*
X011867Y033187D01*
X010056Y034880D02*
X010058Y034931D01*
X010064Y034982D01*
X010074Y035032D01*
X010087Y035082D01*
X010105Y035130D01*
X010125Y035177D01*
X010150Y035222D01*
X010178Y035265D01*
X010209Y035306D01*
X010243Y035344D01*
X010280Y035379D01*
X010319Y035412D01*
X010361Y035442D01*
X010405Y035468D01*
X010451Y035490D01*
X010499Y035510D01*
X010548Y035525D01*
X010598Y035537D01*
X010648Y035545D01*
X010699Y035549D01*
X010751Y035549D01*
X010802Y035545D01*
X010852Y035537D01*
X010902Y035525D01*
X010951Y035510D01*
X010999Y035490D01*
X011045Y035468D01*
X011089Y035442D01*
X011131Y035412D01*
X011170Y035379D01*
X011207Y035344D01*
X011241Y035306D01*
X011272Y035265D01*
X011300Y035222D01*
X011325Y035177D01*
X011345Y035130D01*
X011363Y035082D01*
X011376Y035032D01*
X011386Y034982D01*
X011392Y034931D01*
X011394Y034880D01*
X011392Y034829D01*
X011386Y034778D01*
X011376Y034728D01*
X011363Y034678D01*
X011345Y034630D01*
X011325Y034583D01*
X011300Y034538D01*
X011272Y034495D01*
X011241Y034454D01*
X011207Y034416D01*
X011170Y034381D01*
X011131Y034348D01*
X011089Y034318D01*
X011045Y034292D01*
X010999Y034270D01*
X010951Y034250D01*
X010902Y034235D01*
X010852Y034223D01*
X010802Y034215D01*
X010751Y034211D01*
X010699Y034211D01*
X010648Y034215D01*
X010598Y034223D01*
X010548Y034235D01*
X010499Y034250D01*
X010451Y034270D01*
X010405Y034292D01*
X010361Y034318D01*
X010319Y034348D01*
X010280Y034381D01*
X010243Y034416D01*
X010209Y034454D01*
X010178Y034495D01*
X010150Y034538D01*
X010125Y034583D01*
X010105Y034630D01*
X010087Y034678D01*
X010074Y034728D01*
X010064Y034778D01*
X010058Y034829D01*
X010056Y034880D01*
X009583Y031612D02*
X009386Y031494D01*
X009386Y030667D01*
X009583Y030549D01*
X044515Y048755D02*
X045129Y048755D01*
X044822Y049062D02*
X044822Y048448D01*
X044703Y050193D02*
X045316Y050193D01*
D14*
X009788Y054255D03*
X009788Y055005D03*
D15*
X009475Y054630D03*
D16*
X009975Y055380D03*
X009975Y055755D03*
D17*
X009350Y055380D03*
D18*
X009350Y055943D03*
D19*
X009475Y056755D02*
X009350Y056880D01*
X009350Y057130D01*
X009475Y057255D01*
X009725Y057255D01*
X009850Y057130D01*
X009850Y056880D01*
X009475Y056755D02*
X010350Y056755D01*
X010225Y058630D02*
X010350Y058755D01*
X010350Y059130D01*
X009850Y059005D02*
X009850Y058630D01*
X010225Y058630D01*
X009850Y058630D02*
X009475Y058630D01*
X009350Y058755D01*
X009350Y059130D01*
X009475Y062255D02*
X009350Y062380D01*
X009350Y062630D01*
X009475Y062755D01*
X009850Y062630D02*
X009850Y062380D01*
X009725Y062255D01*
X009475Y062255D01*
X009850Y062630D02*
X009975Y062755D01*
X010225Y062755D01*
X010350Y062630D01*
X010350Y062380D01*
X010225Y062255D01*
D20*
X014785Y056755D02*
X015198Y056479D01*
X015198Y057050D01*
X014785Y056755D01*
X015660Y058505D02*
X016073Y058229D01*
X016073Y058800D01*
X015660Y058505D01*
X017502Y057031D02*
X017915Y056755D01*
X017502Y056460D01*
X017502Y057031D01*
X024535Y056755D02*
X024948Y056479D01*
X024948Y057050D01*
X024535Y056755D01*
X025410Y058505D02*
X025823Y058229D01*
X025823Y058800D01*
X025410Y058505D01*
X027252Y057031D02*
X027665Y056755D01*
X027252Y056460D01*
X027252Y057031D01*
X038975Y057050D02*
X038975Y057500D01*
X039975Y057500D01*
X040975Y057500D01*
X040975Y057050D01*
X038975Y057050D01*
X034475Y056880D02*
X034482Y057150D01*
X034501Y057419D01*
X034535Y057687D01*
X034581Y057953D01*
X034640Y058216D01*
X034712Y058477D01*
X034797Y058733D01*
X034894Y058985D01*
X035003Y059232D01*
X035124Y059473D01*
X035257Y059708D01*
X035402Y059936D01*
X035557Y060156D01*
X035723Y060369D01*
X035900Y060574D01*
X036086Y060769D01*
X036281Y060955D01*
X036486Y061132D01*
X036699Y061298D01*
X036919Y061453D01*
X037147Y061598D01*
X037382Y061731D01*
X037623Y061852D01*
X037870Y061961D01*
X038122Y062058D01*
X038378Y062143D01*
X038639Y062215D01*
X038902Y062274D01*
X039168Y062320D01*
X039436Y062354D01*
X039705Y062373D01*
X039975Y062380D01*
X040245Y062373D01*
X040514Y062354D01*
X040782Y062320D01*
X041048Y062274D01*
X041311Y062215D01*
X041572Y062143D01*
X041828Y062058D01*
X042080Y061961D01*
X042327Y061852D01*
X042568Y061731D01*
X042803Y061598D01*
X043031Y061453D01*
X043251Y061298D01*
X043464Y061132D01*
X043669Y060955D01*
X043864Y060769D01*
X044050Y060574D01*
X044227Y060369D01*
X044393Y060156D01*
X044548Y059936D01*
X044693Y059708D01*
X044826Y059473D01*
X044947Y059232D01*
X045056Y058985D01*
X045153Y058733D01*
X045238Y058477D01*
X045310Y058216D01*
X045369Y057953D01*
X045415Y057687D01*
X045449Y057419D01*
X045468Y057150D01*
X045475Y056880D01*
X045468Y056610D01*
X045449Y056341D01*
X045415Y056073D01*
X045369Y055807D01*
X045310Y055544D01*
X045238Y055283D01*
X045153Y055027D01*
X045056Y054775D01*
X044947Y054528D01*
X044826Y054287D01*
X044693Y054052D01*
X044548Y053824D01*
X044393Y053604D01*
X044227Y053391D01*
X044050Y053186D01*
X043864Y052991D01*
X043669Y052805D01*
X043464Y052628D01*
X043251Y052462D01*
X043031Y052307D01*
X042803Y052162D01*
X042568Y052029D01*
X042327Y051908D01*
X042080Y051799D01*
X041828Y051702D01*
X041572Y051617D01*
X041311Y051545D01*
X041048Y051486D01*
X040782Y051440D01*
X040514Y051406D01*
X040245Y051387D01*
X039975Y051380D01*
X039705Y051387D01*
X039436Y051406D01*
X039168Y051440D01*
X038902Y051486D01*
X038639Y051545D01*
X038378Y051617D01*
X038122Y051702D01*
X037870Y051799D01*
X037623Y051908D01*
X037382Y052029D01*
X037147Y052162D01*
X036919Y052307D01*
X036699Y052462D01*
X036486Y052628D01*
X036281Y052805D01*
X036086Y052991D01*
X035900Y053186D01*
X035723Y053391D01*
X035557Y053604D01*
X035402Y053824D01*
X035257Y054052D01*
X035124Y054287D01*
X035003Y054528D01*
X034894Y054775D01*
X034797Y055027D01*
X034712Y055283D01*
X034640Y055544D01*
X034581Y055807D01*
X034535Y056073D01*
X034501Y056341D01*
X034482Y056610D01*
X034475Y056880D01*
X032975Y056880D02*
X032983Y057223D01*
X033009Y057566D01*
X033051Y057907D01*
X033110Y058246D01*
X033185Y058581D01*
X033276Y058912D01*
X033384Y059238D01*
X033508Y059559D01*
X033647Y059873D01*
X033802Y060180D01*
X033971Y060479D01*
X034155Y060769D01*
X034353Y061050D01*
X034564Y061321D01*
X034788Y061581D01*
X035025Y061830D01*
X035274Y062067D01*
X035534Y062291D01*
X035805Y062502D01*
X036086Y062700D01*
X036376Y062884D01*
X036675Y063053D01*
X036982Y063208D01*
X037296Y063347D01*
X037617Y063471D01*
X037943Y063579D01*
X038274Y063670D01*
X038609Y063745D01*
X038948Y063804D01*
X039289Y063846D01*
X039632Y063872D01*
X039975Y063880D01*
X040318Y063872D01*
X040661Y063846D01*
X041002Y063804D01*
X041341Y063745D01*
X041676Y063670D01*
X042007Y063579D01*
X042333Y063471D01*
X042654Y063347D01*
X042968Y063208D01*
X043275Y063053D01*
X043574Y062884D01*
X043864Y062700D01*
X044145Y062502D01*
X044416Y062291D01*
X044676Y062067D01*
X044925Y061830D01*
X045162Y061581D01*
X045386Y061321D01*
X045597Y061050D01*
X045795Y060769D01*
X045979Y060479D01*
X046148Y060180D01*
X046303Y059873D01*
X046442Y059559D01*
X046566Y059238D01*
X046674Y058912D01*
X046765Y058581D01*
X046840Y058246D01*
X046899Y057907D01*
X046941Y057566D01*
X046967Y057223D01*
X046975Y056880D01*
X046967Y056537D01*
X046941Y056194D01*
X046899Y055853D01*
X046840Y055514D01*
X046765Y055179D01*
X046674Y054848D01*
X046566Y054522D01*
X046442Y054201D01*
X046303Y053887D01*
X046148Y053580D01*
X045979Y053281D01*
X045795Y052991D01*
X045597Y052710D01*
X045386Y052439D01*
X045162Y052179D01*
X044925Y051930D01*
X044676Y051693D01*
X044416Y051469D01*
X044145Y051258D01*
X043864Y051060D01*
X043574Y050876D01*
X043275Y050707D01*
X042968Y050552D01*
X042654Y050413D01*
X042333Y050289D01*
X042007Y050181D01*
X041676Y050090D01*
X041341Y050015D01*
X041002Y049956D01*
X040661Y049914D01*
X040318Y049888D01*
X039975Y049880D01*
X039632Y049888D01*
X039289Y049914D01*
X038948Y049956D01*
X038609Y050015D01*
X038274Y050090D01*
X037943Y050181D01*
X037617Y050289D01*
X037296Y050413D01*
X036982Y050552D01*
X036675Y050707D01*
X036376Y050876D01*
X036086Y051060D01*
X035805Y051258D01*
X035534Y051469D01*
X035274Y051693D01*
X035025Y051930D01*
X034788Y052179D01*
X034564Y052439D01*
X034353Y052710D01*
X034155Y052991D01*
X033971Y053281D01*
X033802Y053580D01*
X033647Y053887D01*
X033508Y054201D01*
X033384Y054522D01*
X033276Y054848D01*
X033185Y055179D01*
X033110Y055514D01*
X033051Y055853D01*
X033009Y056194D01*
X032983Y056537D01*
X032975Y056880D01*
X039975Y056330D02*
X039975Y055880D01*
X039975Y057500D02*
X039975Y057880D01*
X040475Y057980D02*
X040975Y057980D01*
X040725Y057730D02*
X040725Y058230D01*
X040725Y043230D02*
X040725Y042730D01*
X040975Y042500D02*
X039975Y042500D01*
X038975Y042500D01*
X038975Y042050D01*
X040975Y042050D01*
X040975Y042500D01*
X040975Y042980D02*
X040475Y042980D01*
X039975Y042880D02*
X039975Y042500D01*
X034475Y041880D02*
X034482Y042150D01*
X034501Y042419D01*
X034535Y042687D01*
X034581Y042953D01*
X034640Y043216D01*
X034712Y043477D01*
X034797Y043733D01*
X034894Y043985D01*
X035003Y044232D01*
X035124Y044473D01*
X035257Y044708D01*
X035402Y044936D01*
X035557Y045156D01*
X035723Y045369D01*
X035900Y045574D01*
X036086Y045769D01*
X036281Y045955D01*
X036486Y046132D01*
X036699Y046298D01*
X036919Y046453D01*
X037147Y046598D01*
X037382Y046731D01*
X037623Y046852D01*
X037870Y046961D01*
X038122Y047058D01*
X038378Y047143D01*
X038639Y047215D01*
X038902Y047274D01*
X039168Y047320D01*
X039436Y047354D01*
X039705Y047373D01*
X039975Y047380D01*
X040245Y047373D01*
X040514Y047354D01*
X040782Y047320D01*
X041048Y047274D01*
X041311Y047215D01*
X041572Y047143D01*
X041828Y047058D01*
X042080Y046961D01*
X042327Y046852D01*
X042568Y046731D01*
X042803Y046598D01*
X043031Y046453D01*
X043251Y046298D01*
X043464Y046132D01*
X043669Y045955D01*
X043864Y045769D01*
X044050Y045574D01*
X044227Y045369D01*
X044393Y045156D01*
X044548Y044936D01*
X044693Y044708D01*
X044826Y044473D01*
X044947Y044232D01*
X045056Y043985D01*
X045153Y043733D01*
X045238Y043477D01*
X045310Y043216D01*
X045369Y042953D01*
X045415Y042687D01*
X045449Y042419D01*
X045468Y042150D01*
X045475Y041880D01*
X045468Y041610D01*
X045449Y041341D01*
X045415Y041073D01*
X045369Y040807D01*
X045310Y040544D01*
X045238Y040283D01*
X045153Y040027D01*
X045056Y039775D01*
X044947Y039528D01*
X044826Y039287D01*
X044693Y039052D01*
X044548Y038824D01*
X044393Y038604D01*
X044227Y038391D01*
X044050Y038186D01*
X043864Y037991D01*
X043669Y037805D01*
X043464Y037628D01*
X043251Y037462D01*
X043031Y037307D01*
X042803Y037162D01*
X042568Y037029D01*
X042327Y036908D01*
X042080Y036799D01*
X041828Y036702D01*
X041572Y036617D01*
X041311Y036545D01*
X041048Y036486D01*
X040782Y036440D01*
X040514Y036406D01*
X040245Y036387D01*
X039975Y036380D01*
X039705Y036387D01*
X039436Y036406D01*
X039168Y036440D01*
X038902Y036486D01*
X038639Y036545D01*
X038378Y036617D01*
X038122Y036702D01*
X037870Y036799D01*
X037623Y036908D01*
X037382Y037029D01*
X037147Y037162D01*
X036919Y037307D01*
X036699Y037462D01*
X036486Y037628D01*
X036281Y037805D01*
X036086Y037991D01*
X035900Y038186D01*
X035723Y038391D01*
X035557Y038604D01*
X035402Y038824D01*
X035257Y039052D01*
X035124Y039287D01*
X035003Y039528D01*
X034894Y039775D01*
X034797Y040027D01*
X034712Y040283D01*
X034640Y040544D01*
X034581Y040807D01*
X034535Y041073D01*
X034501Y041341D01*
X034482Y041610D01*
X034475Y041880D01*
X032975Y041880D02*
X032983Y042223D01*
X033009Y042566D01*
X033051Y042907D01*
X033110Y043246D01*
X033185Y043581D01*
X033276Y043912D01*
X033384Y044238D01*
X033508Y044559D01*
X033647Y044873D01*
X033802Y045180D01*
X033971Y045479D01*
X034155Y045769D01*
X034353Y046050D01*
X034564Y046321D01*
X034788Y046581D01*
X035025Y046830D01*
X035274Y047067D01*
X035534Y047291D01*
X035805Y047502D01*
X036086Y047700D01*
X036376Y047884D01*
X036675Y048053D01*
X036982Y048208D01*
X037296Y048347D01*
X037617Y048471D01*
X037943Y048579D01*
X038274Y048670D01*
X038609Y048745D01*
X038948Y048804D01*
X039289Y048846D01*
X039632Y048872D01*
X039975Y048880D01*
X040318Y048872D01*
X040661Y048846D01*
X041002Y048804D01*
X041341Y048745D01*
X041676Y048670D01*
X042007Y048579D01*
X042333Y048471D01*
X042654Y048347D01*
X042968Y048208D01*
X043275Y048053D01*
X043574Y047884D01*
X043864Y047700D01*
X044145Y047502D01*
X044416Y047291D01*
X044676Y047067D01*
X044925Y046830D01*
X045162Y046581D01*
X045386Y046321D01*
X045597Y046050D01*
X045795Y045769D01*
X045979Y045479D01*
X046148Y045180D01*
X046303Y044873D01*
X046442Y044559D01*
X046566Y044238D01*
X046674Y043912D01*
X046765Y043581D01*
X046840Y043246D01*
X046899Y042907D01*
X046941Y042566D01*
X046967Y042223D01*
X046975Y041880D01*
X046967Y041537D01*
X046941Y041194D01*
X046899Y040853D01*
X046840Y040514D01*
X046765Y040179D01*
X046674Y039848D01*
X046566Y039522D01*
X046442Y039201D01*
X046303Y038887D01*
X046148Y038580D01*
X045979Y038281D01*
X045795Y037991D01*
X045597Y037710D01*
X045386Y037439D01*
X045162Y037179D01*
X044925Y036930D01*
X044676Y036693D01*
X044416Y036469D01*
X044145Y036258D01*
X043864Y036060D01*
X043574Y035876D01*
X043275Y035707D01*
X042968Y035552D01*
X042654Y035413D01*
X042333Y035289D01*
X042007Y035181D01*
X041676Y035090D01*
X041341Y035015D01*
X041002Y034956D01*
X040661Y034914D01*
X040318Y034888D01*
X039975Y034880D01*
X039632Y034888D01*
X039289Y034914D01*
X038948Y034956D01*
X038609Y035015D01*
X038274Y035090D01*
X037943Y035181D01*
X037617Y035289D01*
X037296Y035413D01*
X036982Y035552D01*
X036675Y035707D01*
X036376Y035876D01*
X036086Y036060D01*
X035805Y036258D01*
X035534Y036469D01*
X035274Y036693D01*
X035025Y036930D01*
X034788Y037179D01*
X034564Y037439D01*
X034353Y037710D01*
X034155Y037991D01*
X033971Y038281D01*
X033802Y038580D01*
X033647Y038887D01*
X033508Y039201D01*
X033384Y039522D01*
X033276Y039848D01*
X033185Y040179D01*
X033110Y040514D01*
X033051Y040853D01*
X033009Y041194D01*
X032983Y041537D01*
X032975Y041880D01*
X027665Y042005D02*
X027252Y042281D01*
X027252Y041710D01*
X027665Y042005D01*
X026790Y040255D02*
X026377Y040531D01*
X026377Y039960D01*
X026790Y040255D01*
X024948Y041729D02*
X024948Y042300D01*
X024535Y042005D01*
X024948Y041729D01*
X017915Y042005D02*
X017502Y042281D01*
X017502Y041710D01*
X017915Y042005D01*
X017040Y040255D02*
X016627Y040531D01*
X016627Y039960D01*
X017040Y040255D01*
X015198Y041729D02*
X015198Y042300D01*
X014785Y042005D01*
X015198Y041729D01*
X039975Y041330D02*
X039975Y040880D01*
D21*
X039975Y041500D03*
X039975Y056500D03*
D22*
X041360Y056820D02*
X041360Y057240D01*
X041465Y057346D01*
X041675Y057346D01*
X041780Y057240D01*
X042005Y057135D02*
X042215Y057346D01*
X042215Y056715D01*
X042005Y056715D02*
X042425Y056715D01*
X041780Y056820D02*
X041675Y056715D01*
X041465Y056715D01*
X041360Y056820D01*
X041465Y042346D02*
X041360Y042240D01*
X041360Y041820D01*
X041465Y041715D01*
X041675Y041715D01*
X041780Y041820D01*
X042005Y041820D02*
X042110Y041715D01*
X042320Y041715D01*
X042425Y041820D01*
X042425Y041925D01*
X042320Y042030D01*
X042215Y042030D01*
X042320Y042030D02*
X042425Y042135D01*
X042425Y042240D01*
X042320Y042346D01*
X042110Y042346D01*
X042005Y042240D01*
X041780Y042240D02*
X041675Y042346D01*
X041465Y042346D01*
D23*
X048350Y045630D02*
X048350Y047130D01*
X048850Y047130D01*
X049100Y047380D02*
X049100Y047880D01*
X049250Y047880D01*
X050600Y047880D01*
X050600Y047380D01*
X050850Y047130D02*
X051350Y047130D01*
X051350Y045630D01*
X050850Y045630D01*
X050600Y045380D02*
X050600Y044880D01*
X049100Y044880D01*
X049100Y045380D01*
X048850Y045630D02*
X048350Y045630D01*
X048750Y047630D02*
X048750Y051130D01*
X049100Y051380D02*
X049100Y050880D01*
X050450Y050880D01*
X049250Y047880D01*
X049800Y049380D02*
X049802Y049393D01*
X049807Y049406D01*
X049816Y049417D01*
X049827Y049424D01*
X049840Y049429D01*
X049853Y049430D01*
X049867Y049427D01*
X049879Y049421D01*
X049889Y049412D01*
X049896Y049400D01*
X049900Y049387D01*
X049900Y049373D01*
X049896Y049360D01*
X049889Y049348D01*
X049879Y049339D01*
X049867Y049333D01*
X049853Y049330D01*
X049840Y049331D01*
X049827Y049336D01*
X049816Y049343D01*
X049807Y049354D01*
X049802Y049367D01*
X049800Y049380D01*
X050450Y050880D02*
X050600Y050880D01*
X050600Y051380D01*
X050850Y051630D02*
X051350Y051630D01*
X051350Y053130D01*
X050850Y053130D01*
X050600Y053380D02*
X050600Y053880D01*
X049100Y053880D01*
X049100Y053380D01*
X048850Y053130D02*
X048350Y053130D01*
X048350Y051630D01*
X048850Y051630D01*
X050950Y051130D02*
X050950Y047630D01*
X051725Y036055D02*
X051775Y034905D01*
X051875Y034805D01*
X055575Y034805D01*
X055675Y034905D01*
X055725Y036055D01*
X041675Y034505D02*
X041675Y033505D01*
X041673Y033488D01*
X041669Y033471D01*
X041662Y033455D01*
X041652Y033441D01*
X041639Y033428D01*
X041625Y033418D01*
X041609Y033411D01*
X041592Y033407D01*
X041575Y033405D01*
X041325Y033405D01*
X041275Y033455D01*
X038675Y033455D01*
X038625Y033405D01*
X038375Y033405D01*
X038358Y033407D01*
X038341Y033411D01*
X038325Y033418D01*
X038311Y033428D01*
X038298Y033441D01*
X038288Y033455D01*
X038281Y033471D01*
X038277Y033488D01*
X038275Y033505D01*
X038275Y034505D01*
X038277Y034522D01*
X038281Y034539D01*
X038288Y034555D01*
X038298Y034569D01*
X038311Y034582D01*
X038325Y034592D01*
X038341Y034599D01*
X038358Y034603D01*
X038375Y034605D01*
X038625Y034605D01*
X038675Y034555D01*
X041275Y034555D01*
X041325Y034605D01*
X041575Y034605D01*
X041592Y034603D01*
X041609Y034599D01*
X041625Y034592D01*
X041639Y034582D01*
X041652Y034569D01*
X041662Y034555D01*
X041669Y034539D01*
X041673Y034522D01*
X041675Y034505D01*
X032075Y039130D02*
X032075Y043130D01*
X029875Y043130D01*
X029875Y039130D01*
X032075Y039130D01*
X030975Y039980D02*
X030975Y041130D01*
X030475Y041130D01*
X030475Y040980D01*
X030608Y040980D01*
X030975Y041130D02*
X030495Y040430D01*
X031455Y040430D01*
X030975Y041130D01*
X031475Y041130D01*
X031475Y041280D01*
X031343Y041280D01*
X030975Y041130D02*
X031455Y041830D01*
X030495Y041830D01*
X030975Y041130D01*
X030975Y042280D01*
X029200Y041911D02*
X029200Y036867D01*
X028659Y036867D01*
X028659Y035170D01*
X029200Y035170D01*
X029200Y033661D01*
X023000Y033661D01*
X023000Y035170D01*
X023000Y036867D01*
X023541Y036867D01*
X023541Y035170D01*
X023000Y035170D01*
X023000Y036867D02*
X023000Y041911D01*
X029200Y041911D01*
X029200Y036867D02*
X029200Y035170D01*
X022325Y039130D02*
X022325Y043130D01*
X020125Y043130D01*
X020125Y039130D01*
X022325Y039130D01*
X021225Y039980D02*
X021225Y041130D01*
X021725Y041130D01*
X021725Y041280D01*
X021593Y041280D01*
X021225Y041130D02*
X020725Y041130D01*
X020725Y040980D01*
X020858Y040980D01*
X021225Y041130D02*
X020745Y040430D01*
X021705Y040430D01*
X021225Y041130D01*
X021225Y042280D01*
X020745Y041830D02*
X021705Y041830D01*
X021225Y041130D01*
X020745Y041830D01*
X019450Y041911D02*
X019450Y036867D01*
X018909Y036867D01*
X018909Y035170D01*
X019450Y035170D01*
X019450Y033661D01*
X013250Y033661D01*
X013250Y035170D01*
X013250Y036867D01*
X013791Y036867D01*
X013791Y035170D01*
X013250Y035170D01*
X013250Y036867D02*
X013250Y041911D01*
X019450Y041911D01*
X019450Y036867D02*
X019450Y035170D01*
X020125Y055630D02*
X020125Y059630D01*
X022325Y059630D01*
X022325Y055630D01*
X020125Y055630D01*
X021225Y056480D02*
X021225Y057630D01*
X020725Y057630D01*
X020725Y057480D01*
X020858Y057480D01*
X021225Y057630D02*
X020745Y056930D01*
X021705Y056930D01*
X021225Y057630D01*
X021725Y057630D01*
X021725Y057780D01*
X021593Y057780D01*
X021225Y057630D02*
X021225Y058780D01*
X020745Y058330D02*
X021705Y058330D01*
X021225Y057630D01*
X020745Y058330D01*
X019450Y056849D02*
X019450Y061893D01*
X019450Y063590D01*
X019450Y065099D01*
X013250Y065099D01*
X013250Y063590D01*
X013791Y063590D01*
X013791Y061893D01*
X013250Y061893D01*
X013250Y063590D01*
X013250Y061893D02*
X013250Y056849D01*
X019450Y056849D01*
X023000Y056849D02*
X023000Y061893D01*
X023541Y061893D01*
X023541Y063590D01*
X023000Y063590D01*
X023000Y065099D01*
X029200Y065099D01*
X029200Y063590D01*
X029200Y061893D01*
X028659Y061893D01*
X028659Y063590D01*
X029200Y063590D01*
X029200Y061893D02*
X029200Y056849D01*
X023000Y056849D01*
X023000Y061893D02*
X023000Y063590D01*
X019450Y063590D02*
X018909Y063590D01*
X018909Y061893D01*
X019450Y061893D01*
X029875Y059630D02*
X029875Y055630D01*
X032075Y055630D01*
X032075Y059630D01*
X029875Y059630D01*
X030975Y058780D02*
X030975Y057630D01*
X031475Y057630D01*
X031475Y057780D01*
X031343Y057780D01*
X030975Y057630D02*
X031455Y056930D01*
X030495Y056930D01*
X030975Y057630D01*
X030475Y057630D01*
X030475Y057480D01*
X030608Y057480D01*
X030975Y057630D02*
X030495Y058330D01*
X031455Y058330D01*
X030975Y057630D01*
X030975Y056480D01*
X038375Y064155D02*
X038625Y064155D01*
X038675Y064205D01*
X041275Y064205D01*
X041325Y064155D01*
X041575Y064155D01*
X041592Y064157D01*
X041609Y064161D01*
X041625Y064168D01*
X041639Y064178D01*
X041652Y064191D01*
X041662Y064205D01*
X041669Y064221D01*
X041673Y064238D01*
X041675Y064255D01*
X041675Y065255D01*
X041673Y065272D01*
X041669Y065289D01*
X041662Y065305D01*
X041652Y065319D01*
X041639Y065332D01*
X041625Y065342D01*
X041609Y065349D01*
X041592Y065353D01*
X041575Y065355D01*
X041325Y065355D01*
X041275Y065305D01*
X038675Y065305D01*
X038625Y065355D01*
X038375Y065355D01*
X038358Y065353D01*
X038341Y065349D01*
X038325Y065342D01*
X038311Y065332D01*
X038298Y065319D01*
X038288Y065305D01*
X038281Y065289D01*
X038277Y065272D01*
X038275Y065255D01*
X038275Y064255D01*
X038277Y064238D01*
X038281Y064221D01*
X038288Y064205D01*
X038298Y064191D01*
X038311Y064178D01*
X038325Y064168D01*
X038341Y064161D01*
X038358Y064157D01*
X038375Y064155D01*
X051775Y063855D02*
X051725Y062705D01*
X051775Y063855D02*
X051875Y063955D01*
X055575Y063955D01*
X055675Y063855D01*
X055725Y062705D01*
D24*
X029179Y064849D02*
X023021Y064849D01*
X023235Y061485D02*
X023345Y061485D01*
X023382Y061448D01*
X023382Y061375D01*
X023345Y061338D01*
X023235Y061338D01*
X023235Y061265D02*
X023235Y061485D01*
X023308Y061338D02*
X023382Y061265D01*
X023345Y061235D02*
X023382Y061198D01*
X023382Y061125D01*
X023345Y061088D01*
X023235Y061088D01*
X023235Y061015D02*
X023235Y061235D01*
X023345Y061235D01*
X023456Y061265D02*
X023603Y061412D01*
X023603Y061448D01*
X023566Y061485D01*
X023493Y061485D01*
X023456Y061448D01*
X023456Y061265D02*
X023603Y061265D01*
X023566Y061235D02*
X023603Y061198D01*
X023603Y061162D01*
X023566Y061125D01*
X023603Y061088D01*
X023603Y061052D01*
X023566Y061015D01*
X023493Y061015D01*
X023456Y061052D01*
X023456Y060985D02*
X023566Y060985D01*
X023603Y060948D01*
X023603Y060875D01*
X023566Y060838D01*
X023456Y060838D01*
X023456Y060765D02*
X023456Y060985D01*
X023382Y060985D02*
X023235Y060985D01*
X023235Y060875D01*
X023308Y060912D01*
X023345Y060912D01*
X023382Y060875D01*
X023382Y060802D01*
X023345Y060765D01*
X023272Y060765D01*
X023235Y060802D01*
X023382Y061015D02*
X023308Y061088D01*
X023456Y061198D02*
X023493Y061235D01*
X023566Y061235D01*
X023566Y061125D02*
X023529Y061125D01*
X023750Y060948D02*
X023677Y060875D01*
X023787Y060875D01*
X023824Y060838D01*
X023824Y060802D01*
X023787Y060765D01*
X023714Y060765D01*
X023677Y060802D01*
X023677Y060875D01*
X023750Y060948D02*
X023824Y060985D01*
X023603Y060765D02*
X023529Y060838D01*
X024876Y060789D02*
X024876Y060752D01*
X024912Y060716D01*
X024986Y060716D01*
X025023Y060679D01*
X025023Y060642D01*
X024986Y060606D01*
X024912Y060606D01*
X024876Y060642D01*
X024876Y060789D02*
X024912Y060826D01*
X024986Y060826D01*
X025023Y060789D01*
X025097Y060789D02*
X025133Y060826D01*
X025207Y060826D01*
X025244Y060789D01*
X025244Y060752D01*
X025207Y060716D01*
X025244Y060679D01*
X025244Y060642D01*
X025207Y060606D01*
X025133Y060606D01*
X025097Y060642D01*
X025170Y060716D02*
X025207Y060716D01*
X025318Y060789D02*
X025318Y060642D01*
X025354Y060606D01*
X025428Y060606D01*
X025465Y060642D01*
X025465Y060716D01*
X025391Y060716D01*
X025318Y060789D02*
X025354Y060826D01*
X025428Y060826D01*
X025465Y060789D01*
X025027Y059491D02*
X025063Y059455D01*
X025063Y059418D01*
X025027Y059381D01*
X025063Y059345D01*
X025063Y059308D01*
X025027Y059271D01*
X024953Y059271D01*
X024917Y059308D01*
X024842Y059308D02*
X024842Y059455D01*
X024806Y059491D01*
X024696Y059491D01*
X024696Y059271D01*
X024806Y059271D01*
X024842Y059308D01*
X024806Y059229D02*
X024732Y059229D01*
X024696Y059192D01*
X024696Y059155D01*
X024732Y059119D01*
X024806Y059119D01*
X024842Y059082D01*
X024842Y059045D01*
X024806Y059009D01*
X024732Y059009D01*
X024696Y059045D01*
X024842Y059192D02*
X024806Y059229D01*
X024917Y059192D02*
X024917Y059045D01*
X024953Y059009D01*
X025027Y059009D01*
X025063Y059045D01*
X025138Y059009D02*
X025138Y059229D01*
X025063Y059192D02*
X025027Y059229D01*
X024953Y059229D01*
X024917Y059192D01*
X024990Y059381D02*
X025027Y059381D01*
X025027Y059491D02*
X024953Y059491D01*
X024917Y059455D01*
X025138Y059119D02*
X025284Y059119D01*
X025359Y059192D02*
X025359Y059045D01*
X025395Y059009D01*
X025469Y059009D01*
X025505Y059045D01*
X025505Y059192D01*
X025469Y059229D01*
X025395Y059229D01*
X025359Y059192D01*
X025284Y059229D02*
X025284Y059009D01*
X025580Y059229D02*
X025726Y059229D01*
X025653Y059229D02*
X025653Y059009D01*
X025874Y059009D02*
X025874Y059229D01*
X025801Y059229D02*
X025947Y059229D01*
X026022Y059229D02*
X026022Y059009D01*
X026022Y059082D02*
X026168Y059229D01*
X026243Y059229D02*
X026243Y059192D01*
X026316Y059119D01*
X026316Y059009D01*
X026316Y059119D02*
X026389Y059192D01*
X026389Y059229D01*
X026464Y058972D02*
X026610Y058972D01*
X026685Y059045D02*
X026721Y059009D01*
X026795Y059009D01*
X026831Y059045D01*
X026831Y059082D01*
X026795Y059119D01*
X026721Y059119D01*
X026685Y059155D01*
X026685Y059192D01*
X026721Y059229D01*
X026795Y059229D01*
X026831Y059192D01*
X026906Y059229D02*
X026979Y059155D01*
X027052Y059229D01*
X027052Y059009D01*
X027126Y059009D02*
X027126Y059155D01*
X027200Y059229D01*
X027273Y059155D01*
X027273Y059009D01*
X027273Y059119D02*
X027126Y059119D01*
X026906Y059009D02*
X026906Y059229D01*
X026168Y059009D02*
X026058Y059119D01*
X028181Y060096D02*
X028218Y060059D01*
X028291Y060059D01*
X028328Y060096D01*
X028328Y060133D01*
X028291Y060170D01*
X028218Y060170D01*
X028181Y060206D01*
X028181Y060243D01*
X028218Y060280D01*
X028291Y060280D01*
X028328Y060243D01*
X028402Y060243D02*
X028439Y060280D01*
X028512Y060280D01*
X028549Y060243D01*
X028549Y060206D01*
X028512Y060170D01*
X028549Y060133D01*
X028549Y060096D01*
X028512Y060059D01*
X028439Y060059D01*
X028402Y060096D01*
X028476Y060170D02*
X028512Y060170D01*
X028623Y060170D02*
X028697Y060170D01*
X028770Y060280D02*
X028623Y060280D01*
X028623Y060059D01*
X028770Y060059D01*
X019429Y064849D02*
X013271Y064849D01*
X013485Y061360D02*
X013595Y061360D01*
X013632Y061323D01*
X013632Y061250D01*
X013595Y061213D01*
X013485Y061213D01*
X013485Y061140D02*
X013485Y061360D01*
X013558Y061213D02*
X013632Y061140D01*
X013595Y061110D02*
X013632Y061073D01*
X013632Y061000D01*
X013595Y060963D01*
X013485Y060963D01*
X013485Y060890D02*
X013485Y061110D01*
X013595Y061110D01*
X013706Y061110D02*
X013706Y061000D01*
X013779Y061037D01*
X013816Y061037D01*
X013853Y061000D01*
X013853Y060927D01*
X013816Y060890D01*
X013743Y060890D01*
X013706Y060927D01*
X013706Y060860D02*
X013816Y060860D01*
X013853Y060823D01*
X013853Y060750D01*
X013816Y060713D01*
X013706Y060713D01*
X013706Y060640D02*
X013706Y060860D01*
X013632Y060860D02*
X013485Y060860D01*
X013485Y060750D01*
X013558Y060787D01*
X013595Y060787D01*
X013632Y060750D01*
X013632Y060677D01*
X013595Y060640D01*
X013522Y060640D01*
X013485Y060677D01*
X013632Y060890D02*
X013558Y060963D01*
X013706Y061110D02*
X013853Y061110D01*
X013816Y061140D02*
X013816Y061360D01*
X013706Y061250D01*
X013853Y061250D01*
X014074Y060860D02*
X014000Y060823D01*
X013927Y060750D01*
X014037Y060750D01*
X014074Y060713D01*
X014074Y060677D01*
X014037Y060640D01*
X013964Y060640D01*
X013927Y060677D01*
X013927Y060750D01*
X013853Y060640D02*
X013779Y060713D01*
X014946Y059491D02*
X015056Y059491D01*
X015092Y059455D01*
X015092Y059308D01*
X015056Y059271D01*
X014946Y059271D01*
X014946Y059491D01*
X015167Y059455D02*
X015203Y059491D01*
X015277Y059491D01*
X015313Y059455D01*
X015313Y059418D01*
X015167Y059271D01*
X015313Y059271D01*
X015277Y059229D02*
X015203Y059229D01*
X015167Y059192D01*
X015167Y059045D01*
X015203Y059009D01*
X015277Y059009D01*
X015313Y059045D01*
X015388Y059009D02*
X015388Y059229D01*
X015313Y059192D02*
X015277Y059229D01*
X015388Y059119D02*
X015534Y059119D01*
X015609Y059192D02*
X015609Y059045D01*
X015645Y059009D01*
X015719Y059009D01*
X015755Y059045D01*
X015755Y059192D01*
X015719Y059229D01*
X015645Y059229D01*
X015609Y059192D01*
X015534Y059229D02*
X015534Y059009D01*
X015830Y059229D02*
X015976Y059229D01*
X015903Y059229D02*
X015903Y059009D01*
X016124Y059009D02*
X016124Y059229D01*
X016051Y059229D02*
X016197Y059229D01*
X016272Y059229D02*
X016272Y059009D01*
X016272Y059082D02*
X016418Y059229D01*
X016493Y059229D02*
X016493Y059192D01*
X016566Y059119D01*
X016566Y059009D01*
X016566Y059119D02*
X016639Y059192D01*
X016639Y059229D01*
X016714Y058972D02*
X016860Y058972D01*
X016935Y059045D02*
X016971Y059009D01*
X017045Y059009D01*
X017081Y059045D01*
X017081Y059082D01*
X017045Y059119D01*
X016971Y059119D01*
X016935Y059155D01*
X016935Y059192D01*
X016971Y059229D01*
X017045Y059229D01*
X017081Y059192D01*
X017156Y059229D02*
X017229Y059155D01*
X017302Y059229D01*
X017302Y059009D01*
X017376Y059009D02*
X017376Y059155D01*
X017450Y059229D01*
X017523Y059155D01*
X017523Y059009D01*
X017523Y059119D02*
X017376Y059119D01*
X017156Y059009D02*
X017156Y059229D01*
X016418Y059009D02*
X016308Y059119D01*
X015092Y059082D02*
X015092Y059045D01*
X015056Y059009D01*
X014982Y059009D01*
X014946Y059045D01*
X014982Y059119D02*
X015056Y059119D01*
X015092Y059082D01*
X015092Y059192D02*
X015056Y059229D01*
X014982Y059229D01*
X014946Y059192D01*
X014946Y059155D01*
X014982Y059119D01*
X015162Y060606D02*
X015126Y060642D01*
X015162Y060606D02*
X015236Y060606D01*
X015273Y060642D01*
X015273Y060679D01*
X015236Y060716D01*
X015162Y060716D01*
X015126Y060752D01*
X015126Y060789D01*
X015162Y060826D01*
X015236Y060826D01*
X015273Y060789D01*
X015347Y060752D02*
X015420Y060826D01*
X015420Y060606D01*
X015347Y060606D02*
X015494Y060606D01*
X015568Y060642D02*
X015604Y060606D01*
X015678Y060606D01*
X015715Y060642D01*
X015715Y060716D01*
X015641Y060716D01*
X015568Y060789D02*
X015568Y060642D01*
X015568Y060789D02*
X015604Y060826D01*
X015678Y060826D01*
X015715Y060789D01*
X018431Y060243D02*
X018431Y060206D01*
X018468Y060170D01*
X018541Y060170D01*
X018578Y060133D01*
X018578Y060096D01*
X018541Y060059D01*
X018468Y060059D01*
X018431Y060096D01*
X018431Y060243D02*
X018468Y060280D01*
X018541Y060280D01*
X018578Y060243D01*
X018652Y060206D02*
X018726Y060280D01*
X018726Y060059D01*
X018799Y060059D02*
X018652Y060059D01*
X018873Y060059D02*
X019020Y060059D01*
X018947Y060170D02*
X018873Y060170D01*
X018873Y060280D02*
X018873Y060059D01*
X018873Y060280D02*
X019020Y060280D01*
X017502Y039751D02*
X017428Y039678D01*
X017428Y039531D01*
X017354Y039531D02*
X017354Y039751D01*
X017281Y039678D01*
X017207Y039751D01*
X017207Y039531D01*
X017133Y039568D02*
X017096Y039531D01*
X017023Y039531D01*
X016986Y039568D01*
X016986Y039489D02*
X017096Y039489D01*
X017133Y039452D01*
X017133Y039305D01*
X017096Y039269D01*
X016986Y039269D01*
X016986Y039489D01*
X016912Y039495D02*
X016765Y039495D01*
X016618Y039531D02*
X016618Y039641D01*
X016691Y039715D01*
X016691Y039751D01*
X016618Y039641D02*
X016544Y039715D01*
X016544Y039751D01*
X016470Y039751D02*
X016323Y039605D01*
X016360Y039641D02*
X016470Y039531D01*
X016323Y039531D02*
X016323Y039751D01*
X016249Y039751D02*
X016102Y039751D01*
X016028Y039751D02*
X015881Y039751D01*
X015955Y039751D02*
X015955Y039531D01*
X015807Y039568D02*
X015807Y039715D01*
X015771Y039751D01*
X015697Y039751D01*
X015660Y039715D01*
X015660Y039568D01*
X015697Y039531D01*
X015771Y039531D01*
X015807Y039568D01*
X015586Y039531D02*
X015586Y039751D01*
X015586Y039641D02*
X015439Y039641D01*
X015365Y039568D02*
X015329Y039531D01*
X015255Y039531D01*
X015218Y039568D01*
X015218Y039715D01*
X015255Y039751D01*
X015329Y039751D01*
X015365Y039715D01*
X015439Y039751D02*
X015439Y039531D01*
X015144Y039568D02*
X015108Y039531D01*
X015034Y039531D01*
X014998Y039568D01*
X015034Y039641D02*
X015108Y039641D01*
X015144Y039605D01*
X015144Y039568D01*
X015034Y039641D02*
X014998Y039678D01*
X014998Y039715D01*
X015034Y039751D01*
X015108Y039751D01*
X015144Y039715D01*
X016176Y039751D02*
X016176Y039531D01*
X016986Y039678D02*
X017023Y039641D01*
X017096Y039641D01*
X017133Y039605D01*
X017133Y039568D01*
X017133Y039715D02*
X017096Y039751D01*
X017023Y039751D01*
X016986Y039715D01*
X016986Y039678D01*
X017207Y039415D02*
X017281Y039489D01*
X017281Y039269D01*
X017354Y039269D02*
X017207Y039269D01*
X017428Y039305D02*
X017465Y039269D01*
X017538Y039269D01*
X017575Y039305D01*
X017575Y039342D01*
X017538Y039379D01*
X017428Y039379D01*
X017428Y039305D01*
X017428Y039379D02*
X017502Y039452D01*
X017575Y039489D01*
X017575Y039531D02*
X017575Y039678D01*
X017502Y039751D01*
X017428Y039641D02*
X017575Y039641D01*
X018235Y038235D02*
X018345Y038235D01*
X018382Y038198D01*
X018382Y038125D01*
X018345Y038088D01*
X018235Y038088D01*
X018235Y038015D02*
X018235Y038235D01*
X018308Y038088D02*
X018382Y038015D01*
X018345Y037985D02*
X018382Y037948D01*
X018382Y037875D01*
X018345Y037838D01*
X018235Y037838D01*
X018235Y037765D02*
X018235Y037985D01*
X018345Y037985D01*
X018456Y038015D02*
X018603Y038015D01*
X018529Y038015D02*
X018529Y038235D01*
X018456Y038162D01*
X018529Y037985D02*
X018529Y037765D01*
X018566Y037735D02*
X018603Y037698D01*
X018603Y037625D01*
X018566Y037588D01*
X018456Y037588D01*
X018456Y037515D02*
X018456Y037735D01*
X018566Y037735D01*
X018603Y037765D02*
X018456Y037765D01*
X018382Y037765D02*
X018308Y037838D01*
X018235Y037735D02*
X018235Y037625D01*
X018308Y037662D01*
X018345Y037662D01*
X018382Y037625D01*
X018382Y037552D01*
X018345Y037515D01*
X018272Y037515D01*
X018235Y037552D01*
X018235Y037735D02*
X018382Y037735D01*
X018456Y037912D02*
X018529Y037985D01*
X018677Y038052D02*
X018824Y038198D01*
X018824Y038052D01*
X018787Y038015D01*
X018714Y038015D01*
X018677Y038052D01*
X018677Y038198D01*
X018714Y038235D01*
X018787Y038235D01*
X018824Y038198D01*
X018750Y037985D02*
X018750Y037765D01*
X018750Y037698D02*
X018677Y037625D01*
X018787Y037625D01*
X018824Y037588D01*
X018824Y037552D01*
X018787Y037515D01*
X018714Y037515D01*
X018677Y037552D01*
X018677Y037625D01*
X018750Y037698D02*
X018824Y037735D01*
X018824Y037765D02*
X018677Y037765D01*
X018677Y037912D02*
X018750Y037985D01*
X018529Y037588D02*
X018603Y037515D01*
X016215Y038017D02*
X016215Y038091D01*
X016141Y038091D01*
X016068Y038164D02*
X016068Y038017D01*
X016104Y037981D01*
X016178Y037981D01*
X016215Y038017D01*
X016215Y038164D02*
X016178Y038201D01*
X016104Y038201D01*
X016068Y038164D01*
X015994Y038164D02*
X015957Y038201D01*
X015883Y038201D01*
X015847Y038164D01*
X015773Y038164D02*
X015736Y038201D01*
X015662Y038201D01*
X015626Y038164D01*
X015626Y038127D01*
X015662Y038091D01*
X015736Y038091D01*
X015773Y038054D01*
X015773Y038017D01*
X015736Y037981D01*
X015662Y037981D01*
X015626Y038017D01*
X015847Y037981D02*
X015994Y038127D01*
X015994Y038164D01*
X015994Y037981D02*
X015847Y037981D01*
X014215Y038481D02*
X014068Y038481D01*
X014068Y038701D01*
X014215Y038701D01*
X014141Y038591D02*
X014068Y038591D01*
X013994Y038627D02*
X013994Y038664D01*
X013957Y038701D01*
X013883Y038701D01*
X013847Y038664D01*
X013773Y038664D02*
X013736Y038701D01*
X013662Y038701D01*
X013626Y038664D01*
X013626Y038627D01*
X013662Y038591D01*
X013736Y038591D01*
X013773Y038554D01*
X013773Y038517D01*
X013736Y038481D01*
X013662Y038481D01*
X013626Y038517D01*
X013847Y038481D02*
X013994Y038627D01*
X013994Y038481D02*
X013847Y038481D01*
X013271Y033911D02*
X019429Y033911D01*
X023021Y033911D02*
X029179Y033911D01*
X028537Y037515D02*
X028574Y037552D01*
X028574Y037588D01*
X028537Y037625D01*
X028427Y037625D01*
X028427Y037552D01*
X028464Y037515D01*
X028537Y037515D01*
X028427Y037625D02*
X028500Y037698D01*
X028574Y037735D01*
X028537Y037765D02*
X028464Y037765D01*
X028427Y037802D01*
X028353Y037765D02*
X028206Y037765D01*
X028206Y037735D02*
X028316Y037735D01*
X028353Y037698D01*
X028353Y037625D01*
X028316Y037588D01*
X028206Y037588D01*
X028206Y037515D02*
X028206Y037735D01*
X028132Y037735D02*
X027985Y037735D01*
X027985Y037625D01*
X028058Y037662D01*
X028095Y037662D01*
X028132Y037625D01*
X028132Y037552D01*
X028095Y037515D01*
X028022Y037515D01*
X027985Y037552D01*
X027985Y037765D02*
X027985Y037985D01*
X028095Y037985D01*
X028132Y037948D01*
X028132Y037875D01*
X028095Y037838D01*
X027985Y037838D01*
X028058Y037838D02*
X028132Y037765D01*
X028279Y037765D02*
X028279Y037985D01*
X028206Y037912D01*
X028206Y038015D02*
X028353Y038015D01*
X028279Y038015D02*
X028279Y038235D01*
X028206Y038162D01*
X028132Y038198D02*
X028132Y038125D01*
X028095Y038088D01*
X027985Y038088D01*
X027985Y038015D02*
X027985Y038235D01*
X028095Y038235D01*
X028132Y038198D01*
X028058Y038088D02*
X028132Y038015D01*
X028427Y038015D02*
X028574Y038162D01*
X028574Y038198D01*
X028537Y038235D01*
X028464Y038235D01*
X028427Y038198D01*
X028427Y038015D02*
X028574Y038015D01*
X028537Y037985D02*
X028574Y037948D01*
X028574Y037912D01*
X028537Y037875D01*
X028574Y037838D01*
X028574Y037802D01*
X028537Y037765D01*
X028537Y037875D02*
X028500Y037875D01*
X028427Y037948D02*
X028464Y037985D01*
X028537Y037985D01*
X028279Y037588D02*
X028353Y037515D01*
X027178Y039269D02*
X027178Y039305D01*
X027325Y039452D01*
X027325Y039489D01*
X027178Y039489D01*
X027178Y039531D02*
X027178Y039678D01*
X027252Y039751D01*
X027325Y039678D01*
X027325Y039531D01*
X027325Y039641D02*
X027178Y039641D01*
X027104Y039751D02*
X027104Y039531D01*
X027031Y039489D02*
X027031Y039269D01*
X027104Y039269D02*
X026957Y039269D01*
X026883Y039305D02*
X026883Y039452D01*
X026846Y039489D01*
X026736Y039489D01*
X026736Y039269D01*
X026846Y039269D01*
X026883Y039305D01*
X026957Y039415D02*
X027031Y039489D01*
X026957Y039531D02*
X026957Y039751D01*
X027031Y039678D01*
X027104Y039751D01*
X026883Y039715D02*
X026846Y039751D01*
X026773Y039751D01*
X026736Y039715D01*
X026736Y039678D01*
X026773Y039641D01*
X026846Y039641D01*
X026883Y039605D01*
X026883Y039568D01*
X026846Y039531D01*
X026773Y039531D01*
X026736Y039568D01*
X026662Y039495D02*
X026515Y039495D01*
X026368Y039531D02*
X026368Y039641D01*
X026441Y039715D01*
X026441Y039751D01*
X026368Y039641D02*
X026294Y039715D01*
X026294Y039751D01*
X026220Y039751D02*
X026073Y039605D01*
X026110Y039641D02*
X026220Y039531D01*
X026073Y039531D02*
X026073Y039751D01*
X025999Y039751D02*
X025852Y039751D01*
X025778Y039751D02*
X025631Y039751D01*
X025705Y039751D02*
X025705Y039531D01*
X025557Y039568D02*
X025557Y039715D01*
X025521Y039751D01*
X025447Y039751D01*
X025410Y039715D01*
X025410Y039568D01*
X025447Y039531D01*
X025521Y039531D01*
X025557Y039568D01*
X025336Y039531D02*
X025336Y039751D01*
X025336Y039641D02*
X025189Y039641D01*
X025115Y039568D02*
X025079Y039531D01*
X025005Y039531D01*
X024968Y039568D01*
X024968Y039715D01*
X025005Y039751D01*
X025079Y039751D01*
X025115Y039715D01*
X025189Y039751D02*
X025189Y039531D01*
X024894Y039568D02*
X024858Y039531D01*
X024784Y039531D01*
X024748Y039568D01*
X024784Y039641D02*
X024858Y039641D01*
X024894Y039605D01*
X024894Y039568D01*
X024784Y039641D02*
X024748Y039678D01*
X024748Y039715D01*
X024784Y039751D01*
X024858Y039751D01*
X024894Y039715D01*
X025926Y039751D02*
X025926Y039531D01*
X025928Y038201D02*
X025854Y038201D01*
X025818Y038164D01*
X025818Y038017D01*
X025854Y037981D01*
X025928Y037981D01*
X025965Y038017D01*
X025965Y038091D01*
X025891Y038091D01*
X025965Y038164D02*
X025928Y038201D01*
X025744Y038091D02*
X025597Y038091D01*
X025707Y038201D01*
X025707Y037981D01*
X025523Y038017D02*
X025486Y037981D01*
X025412Y037981D01*
X025376Y038017D01*
X025412Y038091D02*
X025486Y038091D01*
X025523Y038054D01*
X025523Y038017D01*
X025412Y038091D02*
X025376Y038127D01*
X025376Y038164D01*
X025412Y038201D01*
X025486Y038201D01*
X025523Y038164D01*
X023965Y038481D02*
X023818Y038481D01*
X023818Y038701D01*
X023965Y038701D01*
X023891Y038591D02*
X023818Y038591D01*
X023744Y038591D02*
X023597Y038591D01*
X023707Y038701D01*
X023707Y038481D01*
X023523Y038517D02*
X023486Y038481D01*
X023412Y038481D01*
X023376Y038517D01*
X023412Y038591D02*
X023486Y038591D01*
X023523Y038554D01*
X023523Y038517D01*
X023412Y038591D02*
X023376Y038627D01*
X023376Y038664D01*
X023412Y038701D01*
X023486Y038701D01*
X023523Y038664D01*
D25*
X023935Y042432D03*
X026100Y042432D03*
X028265Y042432D03*
X018515Y042432D03*
X016350Y042432D03*
X014185Y042432D03*
X014185Y056328D03*
X016350Y056328D03*
X018515Y056328D03*
X023935Y056328D03*
X026100Y056328D03*
X028265Y056328D03*
D26*
X029345Y056259D02*
X029345Y056018D01*
X029525Y056018D01*
X029465Y056138D01*
X029465Y056198D01*
X029525Y056259D01*
X029645Y056259D01*
X029705Y056198D01*
X029705Y056078D01*
X029645Y056018D01*
X029645Y055890D02*
X029405Y055890D01*
X029345Y055830D01*
X029345Y055650D01*
X029705Y055650D01*
X029705Y055830D01*
X029645Y055890D01*
X032270Y055903D02*
X032390Y055783D01*
X032270Y055903D02*
X032630Y055903D01*
X032630Y055783D02*
X032630Y056023D01*
X032630Y056151D02*
X032630Y056211D01*
X032570Y056211D01*
X032570Y056151D01*
X032630Y056151D01*
X032570Y056335D02*
X032630Y056395D01*
X032630Y056515D01*
X032570Y056575D01*
X032450Y056575D01*
X032390Y056515D01*
X032390Y056455D01*
X032450Y056335D01*
X032270Y056335D01*
X032270Y056575D01*
X032270Y056703D02*
X032630Y056703D01*
X032510Y056703D02*
X032270Y056944D01*
X032270Y057072D02*
X032630Y057072D01*
X032630Y057312D01*
X032450Y057192D02*
X032450Y057072D01*
X032270Y057072D02*
X032270Y057312D01*
X032450Y057440D02*
X032450Y057680D01*
X032570Y057808D02*
X032330Y057808D01*
X032270Y057868D01*
X032270Y057989D01*
X032330Y058049D01*
X032570Y057808D01*
X032630Y057868D01*
X032630Y057989D01*
X032570Y058049D01*
X032330Y058049D01*
X032330Y058177D02*
X032270Y058237D01*
X032270Y058357D01*
X032330Y058417D01*
X032570Y058177D01*
X032630Y058237D01*
X032630Y058357D01*
X032570Y058417D01*
X032330Y058417D01*
X032450Y058545D02*
X032450Y058785D01*
X032330Y058913D02*
X032570Y058913D01*
X032630Y058973D01*
X032630Y059094D01*
X032570Y059154D01*
X032630Y059282D02*
X032390Y059282D01*
X032270Y059402D01*
X032390Y059522D01*
X032630Y059522D01*
X032450Y059522D02*
X032450Y059282D01*
X032330Y059154D02*
X032270Y059094D01*
X032270Y058973D01*
X032330Y058913D01*
X032330Y058177D02*
X032570Y058177D01*
X032630Y057620D02*
X032270Y057620D01*
X032450Y057440D01*
X032630Y056944D02*
X032450Y056764D01*
X025958Y050610D02*
X025651Y050610D01*
X025651Y050150D01*
X025651Y050380D02*
X025804Y050380D01*
X025497Y050380D02*
X025190Y050380D01*
X025037Y050150D02*
X024807Y050380D01*
X024730Y050303D02*
X025037Y050610D01*
X024730Y050610D02*
X024730Y050150D01*
X024577Y050150D02*
X024270Y050150D01*
X024577Y050457D01*
X024577Y050534D01*
X024500Y050610D01*
X024346Y050610D01*
X024270Y050534D01*
X024116Y050534D02*
X024040Y050610D01*
X023886Y050610D01*
X023809Y050534D01*
X023656Y050534D02*
X023656Y050380D01*
X023579Y050303D01*
X023349Y050303D01*
X023349Y050150D02*
X023349Y050610D01*
X023579Y050610D01*
X023656Y050534D01*
X023809Y050150D02*
X024116Y050457D01*
X024116Y050534D01*
X024116Y050150D02*
X023809Y050150D01*
X023195Y050227D02*
X023119Y050150D01*
X022965Y050150D01*
X022889Y050227D01*
X023195Y050534D01*
X023195Y050227D01*
X022889Y050227D02*
X022889Y050534D01*
X022965Y050610D01*
X023119Y050610D01*
X023195Y050534D01*
X022735Y050150D02*
X022428Y050150D01*
X022582Y050150D02*
X022582Y050610D01*
X022428Y050457D01*
X022275Y050534D02*
X022198Y050610D01*
X022044Y050610D01*
X021968Y050534D01*
X021968Y050227D01*
X022044Y050150D01*
X022198Y050150D01*
X022275Y050227D01*
X021814Y050227D02*
X021738Y050150D01*
X021584Y050150D01*
X021507Y050227D01*
X021814Y050534D01*
X021814Y050227D01*
X021507Y050227D02*
X021507Y050534D01*
X021584Y050610D01*
X021738Y050610D01*
X021814Y050534D01*
X021354Y050380D02*
X021047Y050380D01*
X021277Y050610D01*
X021277Y050150D01*
X020893Y050227D02*
X020893Y050534D01*
X020817Y050610D01*
X020663Y050610D01*
X020587Y050534D01*
X020587Y050457D01*
X020663Y050380D01*
X020893Y050380D01*
X020893Y050227D02*
X020817Y050150D01*
X020663Y050150D01*
X020587Y050227D01*
X019973Y050150D02*
X019666Y050150D01*
X019666Y050610D01*
X019973Y050610D01*
X019819Y050380D02*
X019666Y050380D01*
X019512Y050227D02*
X019512Y050534D01*
X019436Y050610D01*
X019205Y050610D01*
X019205Y050150D01*
X019436Y050150D01*
X019512Y050227D01*
X019052Y050227D02*
X018975Y050150D01*
X018822Y050150D01*
X018745Y050227D01*
X018745Y050534D01*
X018822Y050610D01*
X018975Y050610D01*
X019052Y050534D01*
X019898Y048860D02*
X019745Y048707D01*
X019898Y048860D02*
X019898Y048400D01*
X019745Y048400D02*
X020052Y048400D01*
X020205Y048477D02*
X020512Y048784D01*
X020512Y048477D01*
X020436Y048400D01*
X020282Y048400D01*
X020205Y048477D01*
X020205Y048784D01*
X020282Y048860D01*
X020436Y048860D01*
X020512Y048784D01*
X020666Y048784D02*
X020743Y048860D01*
X020896Y048860D01*
X020973Y048784D01*
X020666Y048477D01*
X020743Y048400D01*
X020896Y048400D01*
X020973Y048477D01*
X020973Y048784D01*
X021126Y048784D02*
X021126Y048477D01*
X021433Y048784D01*
X021433Y048477D01*
X021356Y048400D01*
X021203Y048400D01*
X021126Y048477D01*
X021126Y048784D02*
X021203Y048860D01*
X021356Y048860D01*
X021433Y048784D01*
X021587Y048860D02*
X021587Y048553D01*
X021740Y048400D01*
X021893Y048553D01*
X021893Y048860D01*
X022507Y048477D02*
X022584Y048477D01*
X022584Y048400D01*
X022507Y048400D01*
X022507Y048477D01*
X022738Y048400D02*
X023044Y048707D01*
X023044Y048784D01*
X022968Y048860D01*
X022814Y048860D01*
X022738Y048784D01*
X022738Y048400D02*
X023044Y048400D01*
X023198Y048400D02*
X023505Y048707D01*
X023505Y048784D01*
X023428Y048860D01*
X023275Y048860D01*
X023198Y048784D01*
X023198Y048400D02*
X023505Y048400D01*
X024119Y048477D02*
X024119Y048707D01*
X024119Y048477D02*
X024195Y048400D01*
X024426Y048400D01*
X024426Y048707D01*
X024579Y048630D02*
X024733Y048630D01*
X024579Y048860D02*
X024886Y048860D01*
X024579Y048860D02*
X024579Y048400D01*
X020666Y048477D02*
X020666Y048784D01*
X022640Y043022D02*
X022880Y043022D01*
X022700Y043022D02*
X022700Y042782D01*
X022640Y042782D02*
X022520Y042902D01*
X022640Y043022D01*
X022640Y042782D02*
X022880Y042782D01*
X022820Y042654D02*
X022880Y042594D01*
X022880Y042473D01*
X022820Y042413D01*
X022580Y042413D01*
X022520Y042473D01*
X022520Y042594D01*
X022580Y042654D01*
X022700Y042285D02*
X022700Y042045D01*
X022820Y041917D02*
X022880Y041857D01*
X022880Y041737D01*
X022820Y041677D01*
X022580Y041917D01*
X022820Y041917D01*
X022580Y041917D02*
X022520Y041857D01*
X022520Y041737D01*
X022580Y041677D01*
X022820Y041677D01*
X022820Y041549D02*
X022880Y041489D01*
X022880Y041368D01*
X022820Y041308D01*
X022580Y041549D01*
X022820Y041549D01*
X022580Y041549D02*
X022520Y041489D01*
X022520Y041368D01*
X022580Y041308D01*
X022820Y041308D01*
X022700Y041180D02*
X022700Y040940D01*
X022520Y041120D01*
X022880Y041120D01*
X022880Y040812D02*
X022880Y040572D01*
X022520Y040572D01*
X022520Y040812D01*
X022700Y040692D02*
X022700Y040572D01*
X022880Y040444D02*
X022700Y040264D01*
X022760Y040203D02*
X022520Y040444D01*
X022520Y040203D02*
X022880Y040203D01*
X022820Y040075D02*
X022880Y040015D01*
X022880Y039895D01*
X022820Y039835D01*
X022700Y039835D02*
X022640Y039955D01*
X022640Y040015D01*
X022700Y040075D01*
X022820Y040075D01*
X022700Y039835D02*
X022520Y039835D01*
X022520Y040075D01*
X022820Y039711D02*
X022880Y039711D01*
X022880Y039651D01*
X022820Y039651D01*
X022820Y039711D01*
X022880Y039523D02*
X022880Y039283D01*
X022880Y039403D02*
X022520Y039403D01*
X022640Y039283D01*
X019955Y039330D02*
X019895Y039390D01*
X019655Y039390D01*
X019595Y039330D01*
X019595Y039150D01*
X019955Y039150D01*
X019955Y039330D01*
X019955Y039518D02*
X019955Y039759D01*
X019955Y039638D02*
X019595Y039638D01*
X019715Y039518D01*
X019775Y039887D02*
X019775Y040127D01*
X019955Y040067D02*
X019595Y040067D01*
X019775Y039887D01*
X019182Y034891D02*
X019242Y034831D01*
X019242Y034771D01*
X019182Y034711D01*
X019242Y034651D01*
X019242Y034591D01*
X019182Y034531D01*
X019062Y034531D01*
X019002Y034591D01*
X018874Y034591D02*
X018814Y034531D01*
X018693Y034531D01*
X018633Y034591D01*
X018693Y034711D02*
X018633Y034771D01*
X018633Y034831D01*
X018693Y034891D01*
X018814Y034891D01*
X018874Y034831D01*
X019002Y034831D02*
X019062Y034891D01*
X019182Y034891D01*
X019182Y034711D02*
X019122Y034711D01*
X018874Y034651D02*
X018874Y034591D01*
X018874Y034651D02*
X018814Y034711D01*
X018693Y034711D01*
X018633Y034391D02*
X018753Y034271D01*
X018874Y034391D01*
X018874Y034031D01*
X019002Y034031D02*
X019182Y034031D01*
X019242Y034091D01*
X019242Y034331D01*
X019182Y034391D01*
X019002Y034391D01*
X019002Y034031D01*
X018633Y034031D02*
X018633Y034391D01*
X018505Y034331D02*
X018445Y034391D01*
X018325Y034391D01*
X018265Y034331D01*
X018265Y034271D01*
X018325Y034211D01*
X018445Y034211D01*
X018505Y034151D01*
X018505Y034091D01*
X018445Y034031D01*
X018325Y034031D01*
X018265Y034091D01*
X018137Y034091D02*
X018077Y034031D01*
X017957Y034031D01*
X017897Y034091D01*
X018137Y034331D01*
X018137Y034091D01*
X018137Y034331D02*
X018077Y034391D01*
X017957Y034391D01*
X017897Y034331D01*
X017897Y034091D01*
X017769Y034091D02*
X017769Y034151D01*
X017709Y034211D01*
X017528Y034211D01*
X017528Y034091D01*
X017588Y034031D01*
X017709Y034031D01*
X017769Y034091D01*
X017649Y034331D02*
X017528Y034211D01*
X017649Y034331D02*
X017769Y034391D01*
X017400Y034391D02*
X017400Y034031D01*
X017160Y034391D01*
X017160Y034031D01*
X017032Y034091D02*
X016972Y034031D01*
X016852Y034031D01*
X016792Y034091D01*
X017032Y034331D01*
X017032Y034091D01*
X017032Y034331D02*
X016972Y034391D01*
X016852Y034391D01*
X016792Y034331D01*
X016792Y034091D01*
X016664Y034091D02*
X016664Y034151D01*
X016604Y034211D01*
X016423Y034211D01*
X016423Y034091D01*
X016484Y034031D01*
X016604Y034031D01*
X016664Y034091D01*
X016544Y034331D02*
X016423Y034211D01*
X016295Y034211D02*
X016055Y034211D01*
X015927Y034211D02*
X015807Y034211D01*
X015927Y034211D02*
X015927Y034091D01*
X015867Y034031D01*
X015747Y034031D01*
X015687Y034091D01*
X015687Y034331D01*
X015747Y034391D01*
X015867Y034391D01*
X015927Y034331D01*
X016055Y034391D02*
X016055Y034031D01*
X016295Y034031D02*
X016295Y034391D01*
X016544Y034331D02*
X016664Y034391D01*
X015559Y034391D02*
X015319Y034391D01*
X015319Y034031D01*
X015319Y034211D02*
X015439Y034211D01*
X023120Y034175D02*
X023240Y034175D01*
X023120Y034355D02*
X023120Y033994D01*
X023120Y034355D02*
X023360Y034355D01*
X023488Y034295D02*
X023488Y034055D01*
X023548Y033994D01*
X023668Y033994D01*
X023729Y034055D01*
X023729Y034175D01*
X023608Y034175D01*
X023488Y034295D02*
X023548Y034355D01*
X023668Y034355D01*
X023729Y034295D01*
X023857Y034355D02*
X023857Y033994D01*
X023857Y034175D02*
X024097Y034175D01*
X024225Y034175D02*
X024405Y034175D01*
X024465Y034115D01*
X024465Y034055D01*
X024405Y033994D01*
X024285Y033994D01*
X024225Y034055D01*
X024225Y034175D01*
X024345Y034295D01*
X024465Y034355D01*
X024593Y034295D02*
X024653Y034355D01*
X024773Y034355D01*
X024833Y034295D01*
X024593Y034055D01*
X024653Y033994D01*
X024773Y033994D01*
X024833Y034055D01*
X024833Y034295D01*
X024962Y034355D02*
X025202Y033994D01*
X025202Y034355D01*
X025330Y034175D02*
X025510Y034175D01*
X025570Y034115D01*
X025570Y034055D01*
X025510Y033994D01*
X025390Y033994D01*
X025330Y034055D01*
X025330Y034175D01*
X025450Y034295D01*
X025570Y034355D01*
X025698Y034295D02*
X025758Y034355D01*
X025878Y034355D01*
X025938Y034295D01*
X025698Y034055D01*
X025758Y033994D01*
X025878Y033994D01*
X025938Y034055D01*
X025938Y034295D01*
X026067Y034295D02*
X026067Y034235D01*
X026127Y034175D01*
X026247Y034175D01*
X026307Y034115D01*
X026307Y034055D01*
X026247Y033994D01*
X026127Y033994D01*
X026067Y034055D01*
X026067Y034295D02*
X026127Y034355D01*
X026247Y034355D01*
X026307Y034295D01*
X026435Y034355D02*
X026555Y034235D01*
X026675Y034355D01*
X026675Y033994D01*
X026803Y033994D02*
X026983Y033994D01*
X027043Y034055D01*
X027043Y034295D01*
X026983Y034355D01*
X026803Y034355D01*
X026803Y033994D01*
X026435Y033994D02*
X026435Y034355D01*
X025698Y034295D02*
X025698Y034055D01*
X024962Y033994D02*
X024962Y034355D01*
X024593Y034295D02*
X024593Y034055D01*
X024097Y033994D02*
X024097Y034355D01*
X023668Y034494D02*
X023668Y034855D01*
X023488Y034675D01*
X023729Y034675D01*
X023360Y034615D02*
X023360Y034555D01*
X023300Y034494D01*
X023180Y034494D01*
X023120Y034555D01*
X023180Y034675D02*
X023300Y034675D01*
X023360Y034615D01*
X023360Y034795D02*
X023300Y034855D01*
X023180Y034855D01*
X023120Y034795D01*
X023120Y034735D01*
X023180Y034675D01*
X029345Y039150D02*
X029345Y039330D01*
X029405Y039390D01*
X029645Y039390D01*
X029705Y039330D01*
X029705Y039150D01*
X029345Y039150D01*
X029465Y039518D02*
X029345Y039638D01*
X029705Y039638D01*
X029705Y039518D02*
X029705Y039759D01*
X029645Y039887D02*
X029705Y039947D01*
X029705Y040067D01*
X029645Y040127D01*
X029525Y040127D01*
X029465Y040067D01*
X029465Y040007D01*
X029525Y039887D01*
X029345Y039887D01*
X029345Y040127D01*
X032270Y040075D02*
X032270Y039835D01*
X032450Y039835D01*
X032390Y039955D01*
X032390Y040015D01*
X032450Y040075D01*
X032570Y040075D01*
X032630Y040015D01*
X032630Y039895D01*
X032570Y039835D01*
X032570Y039711D02*
X032630Y039711D01*
X032630Y039651D01*
X032570Y039651D01*
X032570Y039711D01*
X032630Y039523D02*
X032630Y039283D01*
X032630Y039403D02*
X032270Y039403D01*
X032390Y039283D01*
X032510Y040203D02*
X032270Y040444D01*
X032270Y040572D02*
X032630Y040572D01*
X032630Y040812D01*
X032450Y040692D02*
X032450Y040572D01*
X032270Y040572D02*
X032270Y040812D01*
X032450Y040940D02*
X032450Y041180D01*
X032570Y041308D02*
X032330Y041308D01*
X032270Y041368D01*
X032270Y041489D01*
X032330Y041549D01*
X032570Y041308D01*
X032630Y041368D01*
X032630Y041489D01*
X032570Y041549D01*
X032330Y041549D01*
X032330Y041677D02*
X032270Y041737D01*
X032270Y041857D01*
X032330Y041917D01*
X032570Y041677D01*
X032630Y041737D01*
X032630Y041857D01*
X032570Y041917D01*
X032330Y041917D01*
X032450Y042045D02*
X032450Y042285D01*
X032330Y042413D02*
X032570Y042413D01*
X032630Y042473D01*
X032630Y042594D01*
X032570Y042654D01*
X032630Y042782D02*
X032390Y042782D01*
X032270Y042902D01*
X032390Y043022D01*
X032630Y043022D01*
X032450Y043022D02*
X032450Y042782D01*
X032330Y042654D02*
X032270Y042594D01*
X032270Y042473D01*
X032330Y042413D01*
X032330Y041677D02*
X032570Y041677D01*
X032630Y041120D02*
X032270Y041120D01*
X032450Y040940D01*
X032630Y040444D02*
X032450Y040264D01*
X032270Y040203D02*
X032630Y040203D01*
X036040Y034235D02*
X036220Y034235D01*
X036280Y034175D01*
X036280Y034055D01*
X036220Y033995D01*
X036040Y033995D01*
X036040Y033875D02*
X036040Y034235D01*
X036160Y033995D02*
X036280Y033875D01*
X036408Y033875D02*
X036649Y033875D01*
X036528Y033875D02*
X036528Y034235D01*
X036408Y034115D01*
X036777Y034055D02*
X036957Y034235D01*
X036957Y033875D01*
X037017Y034055D02*
X036777Y034055D01*
X037810Y034135D02*
X037930Y034255D01*
X037930Y033895D01*
X037810Y033895D02*
X038050Y033895D01*
X038178Y033955D02*
X038418Y034195D01*
X038418Y033955D01*
X038358Y033895D01*
X038238Y033895D01*
X038178Y033955D01*
X038178Y034195D01*
X038238Y034255D01*
X038358Y034255D01*
X038418Y034195D01*
X038546Y034195D02*
X038546Y033955D01*
X038786Y034195D01*
X038786Y033955D01*
X038726Y033895D01*
X038606Y033895D01*
X038546Y033955D01*
X038546Y034195D02*
X038606Y034255D01*
X038726Y034255D01*
X038786Y034195D01*
X038915Y034255D02*
X038915Y033895D01*
X038915Y034015D02*
X039155Y034255D01*
X038975Y034075D02*
X039155Y033895D01*
X039283Y033775D02*
X039403Y033895D01*
X039343Y033895D01*
X039343Y033955D01*
X039403Y033955D01*
X039403Y033895D01*
X039897Y033895D02*
X040137Y033895D01*
X040017Y033895D02*
X040017Y034255D01*
X039897Y034135D01*
X040265Y033895D02*
X040505Y034255D01*
X040633Y034195D02*
X040693Y034255D01*
X040814Y034255D01*
X040874Y034195D01*
X040874Y034135D01*
X040633Y033895D01*
X040874Y033895D01*
X041002Y033895D02*
X041002Y034255D01*
X041242Y034255D02*
X041242Y033895D01*
X041122Y034015D01*
X041002Y033895D01*
X022880Y055783D02*
X022880Y056023D01*
X022880Y055903D02*
X022520Y055903D01*
X022640Y055783D01*
X022820Y056151D02*
X022820Y056211D01*
X022880Y056211D01*
X022880Y056151D01*
X022820Y056151D01*
X022820Y056335D02*
X022880Y056395D01*
X022880Y056515D01*
X022820Y056575D01*
X022700Y056575D01*
X022640Y056515D01*
X022640Y056455D01*
X022700Y056335D01*
X022520Y056335D01*
X022520Y056575D01*
X022520Y056703D02*
X022880Y056703D01*
X022760Y056703D02*
X022520Y056944D01*
X022520Y057072D02*
X022880Y057072D01*
X022880Y057312D01*
X022700Y057192D02*
X022700Y057072D01*
X022520Y057072D02*
X022520Y057312D01*
X022700Y057440D02*
X022700Y057680D01*
X022820Y057808D02*
X022580Y058049D01*
X022820Y058049D01*
X022880Y057989D01*
X022880Y057868D01*
X022820Y057808D01*
X022580Y057808D01*
X022520Y057868D01*
X022520Y057989D01*
X022580Y058049D01*
X022580Y058177D02*
X022520Y058237D01*
X022520Y058357D01*
X022580Y058417D01*
X022820Y058177D01*
X022880Y058237D01*
X022880Y058357D01*
X022820Y058417D01*
X022580Y058417D01*
X022700Y058545D02*
X022700Y058785D01*
X022820Y058913D02*
X022880Y058973D01*
X022880Y059094D01*
X022820Y059154D01*
X022880Y059282D02*
X022640Y059282D01*
X022520Y059402D01*
X022640Y059522D01*
X022880Y059522D01*
X022700Y059522D02*
X022700Y059282D01*
X022580Y059154D02*
X022520Y059094D01*
X022520Y058973D01*
X022580Y058913D01*
X022820Y058913D01*
X022820Y058177D02*
X022580Y058177D01*
X022520Y057620D02*
X022700Y057440D01*
X022880Y057620D02*
X022520Y057620D01*
X022880Y056944D02*
X022700Y056764D01*
X019955Y056198D02*
X019595Y056198D01*
X019775Y056018D01*
X019775Y056259D01*
X019895Y055890D02*
X019655Y055890D01*
X019595Y055830D01*
X019595Y055650D01*
X019955Y055650D01*
X019955Y055830D01*
X019895Y055890D01*
X019242Y063906D02*
X019002Y063906D01*
X019122Y063906D02*
X019122Y064266D01*
X019002Y064146D01*
X018874Y064206D02*
X018814Y064266D01*
X018693Y064266D01*
X018633Y064206D01*
X018633Y064146D01*
X018693Y064086D01*
X018814Y064086D01*
X018874Y064026D01*
X018874Y063966D01*
X018814Y063906D01*
X018693Y063906D01*
X018633Y063966D01*
X018633Y064406D02*
X018633Y064766D01*
X018753Y064646D01*
X018874Y064766D01*
X018874Y064406D01*
X019002Y064406D02*
X019182Y064406D01*
X019242Y064466D01*
X019242Y064706D01*
X019182Y064766D01*
X019002Y064766D01*
X019002Y064406D01*
X018505Y064466D02*
X018445Y064406D01*
X018325Y064406D01*
X018265Y064466D01*
X018137Y064466D02*
X018077Y064406D01*
X017957Y064406D01*
X017897Y064466D01*
X018137Y064706D01*
X018137Y064466D01*
X018265Y064646D02*
X018325Y064586D01*
X018445Y064586D01*
X018505Y064526D01*
X018505Y064466D01*
X018505Y064706D02*
X018445Y064766D01*
X018325Y064766D01*
X018265Y064706D01*
X018265Y064646D01*
X018137Y064706D02*
X018077Y064766D01*
X017957Y064766D01*
X017897Y064706D01*
X017897Y064466D01*
X017769Y064466D02*
X017769Y064526D01*
X017709Y064586D01*
X017528Y064586D01*
X017528Y064466D01*
X017588Y064406D01*
X017709Y064406D01*
X017769Y064466D01*
X017649Y064706D02*
X017528Y064586D01*
X017649Y064706D02*
X017769Y064766D01*
X017400Y064766D02*
X017400Y064406D01*
X017160Y064766D01*
X017160Y064406D01*
X017032Y064466D02*
X016972Y064406D01*
X016852Y064406D01*
X016792Y064466D01*
X017032Y064706D01*
X017032Y064466D01*
X017032Y064706D02*
X016972Y064766D01*
X016852Y064766D01*
X016792Y064706D01*
X016792Y064466D01*
X016664Y064466D02*
X016664Y064526D01*
X016604Y064586D01*
X016423Y064586D01*
X016423Y064466D01*
X016484Y064406D01*
X016604Y064406D01*
X016664Y064466D01*
X016544Y064706D02*
X016423Y064586D01*
X016295Y064586D02*
X016055Y064586D01*
X015927Y064586D02*
X015807Y064586D01*
X015927Y064586D02*
X015927Y064466D01*
X015867Y064406D01*
X015747Y064406D01*
X015687Y064466D01*
X015687Y064706D01*
X015747Y064766D01*
X015867Y064766D01*
X015927Y064706D01*
X016055Y064766D02*
X016055Y064406D01*
X016295Y064406D02*
X016295Y064766D01*
X016544Y064706D02*
X016664Y064766D01*
X015559Y064766D02*
X015319Y064766D01*
X015319Y064406D01*
X015319Y064586D02*
X015439Y064586D01*
X025069Y064586D02*
X025189Y064586D01*
X025069Y064766D02*
X025309Y064766D01*
X025437Y064706D02*
X025437Y064466D01*
X025497Y064406D01*
X025617Y064406D01*
X025677Y064466D01*
X025677Y064586D01*
X025557Y064586D01*
X025677Y064706D02*
X025617Y064766D01*
X025497Y064766D01*
X025437Y064706D01*
X025805Y064766D02*
X025805Y064406D01*
X025805Y064586D02*
X026045Y064586D01*
X026173Y064586D02*
X026354Y064586D01*
X026414Y064526D01*
X026414Y064466D01*
X026354Y064406D01*
X026234Y064406D01*
X026173Y064466D01*
X026173Y064586D01*
X026294Y064706D01*
X026414Y064766D01*
X026542Y064706D02*
X026602Y064766D01*
X026722Y064766D01*
X026782Y064706D01*
X026542Y064466D01*
X026602Y064406D01*
X026722Y064406D01*
X026782Y064466D01*
X026782Y064706D01*
X026910Y064766D02*
X027150Y064406D01*
X027150Y064766D01*
X027278Y064586D02*
X027459Y064586D01*
X027519Y064526D01*
X027519Y064466D01*
X027459Y064406D01*
X027338Y064406D01*
X027278Y064466D01*
X027278Y064586D01*
X027399Y064706D01*
X027519Y064766D01*
X027647Y064706D02*
X027707Y064766D01*
X027827Y064766D01*
X027887Y064706D01*
X027647Y064466D01*
X027707Y064406D01*
X027827Y064406D01*
X027887Y064466D01*
X027887Y064706D01*
X028015Y064706D02*
X028015Y064646D01*
X028075Y064586D01*
X028195Y064586D01*
X028255Y064526D01*
X028255Y064466D01*
X028195Y064406D01*
X028075Y064406D01*
X028015Y064466D01*
X028015Y064706D02*
X028075Y064766D01*
X028195Y064766D01*
X028255Y064706D01*
X028383Y064766D02*
X028383Y064406D01*
X028443Y064266D02*
X028383Y064206D01*
X028383Y064146D01*
X028443Y064086D01*
X028564Y064086D01*
X028624Y064026D01*
X028624Y063966D01*
X028564Y063906D01*
X028443Y063906D01*
X028383Y063966D01*
X028443Y064266D02*
X028564Y064266D01*
X028624Y064206D01*
X028752Y064206D02*
X028812Y064266D01*
X028932Y064266D01*
X028992Y064206D01*
X028992Y064146D01*
X028752Y063906D01*
X028992Y063906D01*
X028932Y064406D02*
X028992Y064466D01*
X028992Y064706D01*
X028932Y064766D01*
X028752Y064766D01*
X028752Y064406D01*
X028932Y064406D01*
X028624Y064406D02*
X028624Y064766D01*
X028503Y064646D01*
X028383Y064766D01*
X027647Y064706D02*
X027647Y064466D01*
X026910Y064406D02*
X026910Y064766D01*
X026542Y064706D02*
X026542Y064466D01*
X026045Y064406D02*
X026045Y064766D01*
X025069Y064766D02*
X025069Y064406D01*
X036408Y064625D02*
X036408Y064985D01*
X036589Y064985D01*
X036649Y064925D01*
X036649Y064805D01*
X036589Y064745D01*
X036408Y064745D01*
X036528Y064745D02*
X036649Y064625D01*
X036777Y064625D02*
X037017Y064625D01*
X036897Y064625D02*
X036897Y064985D01*
X036777Y064865D01*
X037810Y064885D02*
X037930Y065005D01*
X037930Y064645D01*
X037810Y064645D02*
X038050Y064645D01*
X038178Y064705D02*
X038418Y064945D01*
X038418Y064705D01*
X038358Y064645D01*
X038238Y064645D01*
X038178Y064705D01*
X038178Y064945D01*
X038238Y065005D01*
X038358Y065005D01*
X038418Y064945D01*
X038546Y064945D02*
X038606Y065005D01*
X038726Y065005D01*
X038786Y064945D01*
X038546Y064705D01*
X038606Y064645D01*
X038726Y064645D01*
X038786Y064705D01*
X038786Y064945D01*
X038915Y065005D02*
X038915Y064645D01*
X038915Y064765D02*
X039155Y065005D01*
X038975Y064825D02*
X039155Y064645D01*
X039283Y064525D02*
X039403Y064645D01*
X039343Y064645D01*
X039343Y064705D01*
X039403Y064705D01*
X039403Y064645D01*
X039897Y064645D02*
X040137Y064645D01*
X040017Y064645D02*
X040017Y065005D01*
X039897Y064885D01*
X040265Y064645D02*
X040505Y065005D01*
X040633Y064945D02*
X040693Y065005D01*
X040814Y065005D01*
X040874Y064945D01*
X040874Y064885D01*
X040633Y064645D01*
X040874Y064645D01*
X041002Y064645D02*
X041122Y064765D01*
X041242Y064645D01*
X041242Y065005D01*
X041002Y065005D02*
X041002Y064645D01*
X038546Y064705D02*
X038546Y064945D01*
D27*
X027685Y056755D03*
X025390Y058505D03*
X024515Y056755D03*
X017935Y056755D03*
X015640Y058505D03*
X014765Y056755D03*
X014765Y042005D03*
X017060Y040255D03*
X017935Y042005D03*
X024515Y042005D03*
X026810Y040255D03*
X027685Y042005D03*
D28*
X048850Y045380D03*
X048850Y047380D03*
X050850Y047380D03*
X050850Y045380D03*
X050850Y051380D03*
X050850Y053380D03*
X048850Y053380D03*
X048850Y051380D03*
D29*
X049850Y051505D03*
X049850Y053255D03*
X049850Y047255D03*
X049850Y045505D03*
D30*
X049200Y046380D03*
X050500Y046380D03*
X050500Y052380D03*
X049200Y052380D03*
D31*
X029725Y049380D02*
X028725Y049380D01*
X015225Y049380D02*
X014225Y049380D01*
X010975Y050005D02*
X010975Y047005D01*
X010475Y047005D01*
X009475Y047005D01*
X008475Y047005D01*
X007475Y047005D01*
X006475Y047005D01*
X005475Y047005D01*
X004475Y047005D01*
X003475Y047005D01*
X002475Y047005D01*
X001475Y047005D01*
X000975Y047005D01*
X000975Y050005D01*
X001475Y050005D01*
X002475Y050005D01*
X003475Y050005D01*
X004475Y050005D01*
X004975Y050005D01*
X005475Y050005D01*
X006475Y050005D01*
X006975Y050005D01*
X007475Y050005D01*
X008475Y050005D01*
X009475Y050005D01*
X010475Y050005D01*
X010975Y050005D01*
X010975Y046005D02*
X010475Y046005D01*
X009475Y046005D01*
X008475Y046005D01*
X007475Y046005D01*
X006975Y046005D01*
X006475Y046005D01*
X005475Y046005D01*
X004975Y046005D01*
X004475Y046005D01*
X003475Y046005D01*
X002475Y046005D01*
X001475Y046005D01*
X000975Y046005D01*
X000975Y043005D01*
X001475Y043005D01*
X002475Y043005D01*
X003475Y043005D01*
X004475Y043005D01*
X005475Y043005D01*
X006475Y043005D01*
X007475Y043005D01*
X008475Y043005D01*
X009475Y043005D01*
X010475Y043005D01*
X010975Y043005D01*
X010975Y046005D01*
D32*
X021225Y043305D03*
X021225Y038955D03*
X030975Y038955D03*
X030975Y043305D03*
X030975Y055455D03*
X030975Y059805D03*
X021225Y059805D03*
X021225Y055455D03*
D33*
X010475Y050005D02*
X010475Y047005D01*
X010475Y046005D02*
X010475Y043005D01*
X009475Y043005D02*
X009475Y046005D01*
X008475Y046005D02*
X008475Y043005D01*
X007475Y043005D02*
X007475Y046005D01*
X007475Y047005D02*
X007475Y050005D01*
X006475Y050005D02*
X006475Y047005D01*
X005475Y047005D02*
X005475Y050005D01*
X004475Y050005D02*
X004475Y047005D01*
X004475Y046005D02*
X004475Y043005D01*
X003475Y043005D02*
X003475Y046005D01*
X002475Y046005D02*
X002475Y043005D01*
X001475Y043005D02*
X001475Y046005D01*
X001475Y047005D02*
X001475Y050005D01*
X002475Y050005D02*
X002475Y047005D01*
X003475Y047005D02*
X003475Y050005D01*
X005475Y046005D02*
X005475Y043005D01*
X006475Y043005D02*
X006475Y046005D01*
X008475Y047005D02*
X008475Y050005D01*
X009475Y050005D02*
X009475Y047005D01*
D34*
X038105Y034005D03*
X041845Y034005D03*
X041845Y064755D03*
X038105Y064755D03*
D35*
X055495Y063715D03*
X051955Y035045D03*
D36*
X053725Y036355D03*
X053725Y062405D03*
D37*
X052000Y062655D03*
X055450Y062655D03*
X055450Y036105D03*
X052000Y036105D03*
D38*
X053725Y036105D03*
X053725Y062655D03*
M02*
